<?xml version="1.0" encoding="UTF-8" standalone="no"?>
<svg
   xmlns:dc="http://purl.org/dc/elements/1.1/"
   xmlns:cc="http://creativecommons.org/ns#"
   xmlns:rdf="http://www.w3.org/1999/02/22-rdf-syntax-ns#"
   xmlns:svg="http://www.w3.org/2000/svg"
   xmlns="http://www.w3.org/2000/svg"
   xmlns:sodipodi="http://sodipodi.sourceforge.net/DTD/sodipodi-0.dtd"
   xmlns:inkscape="http://www.inkscape.org/namespaces/inkscape"
   viewBox="0 0 753.43976 245.00716"
   height="245.00716"
   width="753.43976"
   xml:space="preserve"
   id="svg2"
   version="1.1"
   sodipodi:docname="io-layers.svg"
   inkscape:version="0.92.2 (5c3e80d, 2017-08-06)"><sodipodi:namedview
     pagecolor="#ffffff"
     bordercolor="#666666"
     borderopacity="1"
     objecttolerance="10"
     gridtolerance="10"
     guidetolerance="10"
     inkscape:pageopacity="0"
     inkscape:pageshadow="2"
     inkscape:window-width="1366"
     inkscape:window-height="690"
     id="namedview13944"
     showgrid="false"
     inkscape:zoom="0.79333333"
     inkscape:cx="359.43262"
     inkscape:cy="157.00717"
     inkscape:window-x="0"
     inkscape:window-y="24"
     inkscape:window-maximized="1"
     inkscape:current-layer="svg2" /><metadata
     id="metadata8"><rdf:RDF><cc:Work
         rdf:about=""><dc:format>image/svg+xml</dc:format><dc:type
           rdf:resource="http://purl.org/dc/dcmitype/StillImage" /><dc:title></dc:title></cc:Work></rdf:RDF></metadata><defs
     id="defs6"><clipPath
       id="clipPath18"
       clipPathUnits="userSpaceOnUse"><path
         style="clip-rule:evenodd"
         id="path16"
         d="M 0,1.2207e-4 H 720 V 450.00012 H 0 Z"
         inkscape:connector-curvature="0" /></clipPath><clipPath
       id="clipPath32"
       clipPathUnits="userSpaceOnUse"><path
         style="clip-rule:evenodd"
         id="path30"
         d="M 1.0729e-5,0 H 720.00001 V 450 H 1.0729e-5 Z"
         inkscape:connector-curvature="0" /></clipPath><clipPath
       id="clipPath48"
       clipPathUnits="userSpaceOnUse"><path
         style="clip-rule:evenodd"
         id="path46"
         d="M 1.0729e-5,0 H 720.00001 V 450 H 1.0729e-5 Z"
         inkscape:connector-curvature="0" /></clipPath><clipPath
       id="clipPath64"
       clipPathUnits="userSpaceOnUse"><path
         style="clip-rule:evenodd"
         id="path62"
         d="M 1.0729e-5,0 H 720.00001 V 450 H 1.0729e-5 Z"
         inkscape:connector-curvature="0" /></clipPath><clipPath
       id="clipPath80"
       clipPathUnits="userSpaceOnUse"><path
         style="clip-rule:evenodd"
         id="path78"
         d="M 1.0729e-5,0 H 720.00001 V 450 H 1.0729e-5 Z"
         inkscape:connector-curvature="0" /></clipPath><clipPath
       id="clipPath92"
       clipPathUnits="userSpaceOnUse"><path
         style="clip-rule:evenodd"
         id="path90"
         d="M 1.0729e-5,0 H 720.00001 V 450 H 1.0729e-5 Z"
         inkscape:connector-curvature="0" /></clipPath><clipPath
       id="clipPath104"
       clipPathUnits="userSpaceOnUse"><path
         style="clip-rule:evenodd"
         id="path102"
         d="M 1.0729e-5,0 H 720.00001 V 450 H 1.0729e-5 Z"
         inkscape:connector-curvature="0" /></clipPath><clipPath
       id="clipPath116"
       clipPathUnits="userSpaceOnUse"><path
         style="clip-rule:evenodd"
         id="path114"
         d="M 1.0729e-5,0 H 720.00001 V 450 H 1.0729e-5 Z"
         inkscape:connector-curvature="0" /></clipPath><clipPath
       id="clipPath128"
       clipPathUnits="userSpaceOnUse"><path
         style="clip-rule:evenodd"
         id="path126"
         d="M 1.0729e-5,0 H 720.00001 V 450 H 1.0729e-5 Z"
         inkscape:connector-curvature="0" /></clipPath><clipPath
       id="clipPath140"
       clipPathUnits="userSpaceOnUse"><path
         style="clip-rule:evenodd"
         id="path138"
         d="M 1.0729e-5,0 H 720.00001 V 450 H 1.0729e-5 Z"
         inkscape:connector-curvature="0" /></clipPath><clipPath
       id="clipPath152"
       clipPathUnits="userSpaceOnUse"><path
         style="clip-rule:evenodd"
         id="path150"
         d="M 1.0729e-5,0 H 720.00001 V 450 H 1.0729e-5 Z"
         inkscape:connector-curvature="0" /></clipPath><clipPath
       id="clipPath164"
       clipPathUnits="userSpaceOnUse"><path
         style="clip-rule:evenodd"
         id="path162"
         d="M 1.0729e-5,0 H 720.00001 V 450 H 1.0729e-5 Z"
         inkscape:connector-curvature="0" /></clipPath><clipPath
       id="clipPath176"
       clipPathUnits="userSpaceOnUse"><path
         style="clip-rule:evenodd"
         id="path174"
         d="M 1.0729e-5,0 H 720.00001 V 450 H 1.0729e-5 Z"
         inkscape:connector-curvature="0" /></clipPath><clipPath
       id="clipPath192"
       clipPathUnits="userSpaceOnUse"><path
         style="clip-rule:evenodd"
         id="path190"
         d="M 1.0729e-5,0 H 720.00001 V 450 H 1.0729e-5 Z"
         inkscape:connector-curvature="0" /></clipPath><clipPath
       id="clipPath204"
       clipPathUnits="userSpaceOnUse"><path
         style="clip-rule:evenodd"
         id="path202"
         d="M 1.0729e-5,0 H 720.00001 V 450 H 1.0729e-5 Z"
         inkscape:connector-curvature="0" /></clipPath><clipPath
       id="clipPath220"
       clipPathUnits="userSpaceOnUse"><path
         style="clip-rule:evenodd"
         id="path218"
         d="M 1.0729e-5,0 H 720.00001 V 450 H 1.0729e-5 Z"
         inkscape:connector-curvature="0" /></clipPath><clipPath
       id="clipPath232"
       clipPathUnits="userSpaceOnUse"><path
         style="clip-rule:evenodd"
         id="path230"
         d="M 1.0729e-5,0 H 720.00001 V 450 H 1.0729e-5 Z"
         inkscape:connector-curvature="0" /></clipPath><clipPath
       id="clipPath248"
       clipPathUnits="userSpaceOnUse"><path
         style="clip-rule:evenodd"
         id="path246"
         d="M 1.0729e-5,0 H 720.00001 V 450 H 1.0729e-5 Z"
         inkscape:connector-curvature="0" /></clipPath><clipPath
       id="clipPath260"
       clipPathUnits="userSpaceOnUse"><path
         style="clip-rule:evenodd"
         id="path258"
         d="M 1.0729e-5,0 H 720.00001 V 450 H 1.0729e-5 Z"
         inkscape:connector-curvature="0" /></clipPath><clipPath
       id="clipPath272"
       clipPathUnits="userSpaceOnUse"><path
         style="clip-rule:evenodd"
         id="path270"
         d="M 1.0729e-5,0 H 720.00001 V 450 H 1.0729e-5 Z"
         inkscape:connector-curvature="0" /></clipPath></defs><path
     inkscape:connector-curvature="0"
     d="M 312.43261,199.99999 H 504.4326 V 116 H 312.43261 Z"
     style="fill:#f2f2f2;fill-opacity:1;fill-rule:evenodd;stroke:none;stroke-width:1.33333325"
     id="path22" /><path
     inkscape:connector-curvature="0"
     d="M 312.43261,199.99999 H 504.4326 V 116 H 312.43261 Z"
     style="fill:none;stroke:#000000;stroke-width:4;stroke-linecap:butt;stroke-linejoin:miter;stroke-miterlimit:10;stroke-dasharray:none;stroke-opacity:1"
     id="path24" /><g
     id="g26"
     transform="matrix(1.3333333,0,0,-1.3333333,-120.56738,387.99999)"><g
       id="g28"
       clip-path="url(#clipPath32)"><text
         transform="matrix(1,0,0,-1,366.48,166.25)"
         style="font-variant:normal;font-weight:normal;font-size:18.02499962px;font-family:Calibri;-inkscape-font-specification:Calibri;writing-mode:lr-tb;fill:#000000;fill-opacity:1;fill-rule:nonzero;stroke:none"
         id="text36"><tspan
           x="0 15.75385 24.748325 29.290625 33.003777 37.546074 44.251373"
           y="0"
           id="tspan34">MPI I/O</tspan></text>
</g></g><path
     inkscape:connector-curvature="0"
     d="M 140.43261,239.99999 H 503.4326 v -40 H 140.43261 Z"
     style="fill:#f2f2f2;fill-opacity:1;fill-rule:evenodd;stroke:none;stroke-width:1.33333325"
     id="path38" /><path
     inkscape:connector-curvature="0"
     d="M 140.43261,239.99999 H 503.4326 v -40 H 140.43261 Z"
     style="fill:none;stroke:#000000;stroke-width:4;stroke-linecap:butt;stroke-linejoin:miter;stroke-miterlimit:10;stroke-dasharray:none;stroke-opacity:1"
     id="path40" /><g
     id="g42"
     transform="matrix(1.3333333,0,0,-1.3333333,-120.56738,387.99999)"><g
       id="g44"
       clip-path="url(#clipPath48)"><text
         transform="matrix(1,0,0,-1,262.63,119.72)"
         style="font-variant:normal;font-weight:normal;font-size:18.02499962px;font-family:Calibri;-inkscape-font-specification:Calibri;writing-mode:lr-tb;fill:#000000;fill-opacity:1;fill-rule:nonzero;stroke:none"
         id="text52"><tspan
           x="0 8.2554502 17.231899 23.234224 32.210674 36.698898 41.187126 50.163574 54.669827 57.661976 62.907249 67.395477 71.883698 80.860153 83.888351 90.6297 98.867126 105.60847 111.64685 120.6233"
           y="0"
           id="tspan50">Parallel file system</tspan></text>
</g></g><path
     inkscape:connector-curvature="0"
     d="m 140.43261,199.99999 h 176 V 116 h -176 z"
     style="fill:#f2f2f2;fill-opacity:1;fill-rule:evenodd;stroke:none;stroke-width:1.33333325"
     id="path54" /><path
     inkscape:connector-curvature="0"
     d="m 140.43261,199.99999 h 176 V 116 h -176 z"
     style="fill:none;stroke:#000000;stroke-width:4;stroke-linecap:butt;stroke-linejoin:miter;stroke-miterlimit:10;stroke-dasharray:none;stroke-opacity:1"
     id="path56" /><g
     id="g58"
     transform="matrix(1.3333333,0,0,-1.3333333,-120.56738,387.99999)"><g
       id="g60"
       clip-path="url(#clipPath64)"><text
         transform="matrix(1,0,0,-1,209.33,166.25)"
         style="font-variant:normal;font-weight:normal;font-size:18.02499962px;font-family:Calibri;-inkscape-font-specification:Calibri;writing-mode:lr-tb;fill:#000000;fill-opacity:1;fill-rule:nonzero;stroke:none"
         id="text68"><tspan
           x="0 8.9944754 20.9811 29.254576 33.724773 42.71925 47.207474 53.948826 62.186249 68.927597 76.426003 85.402451 89.890678 94.378899"
           y="0"
           id="tspan66">POSIX syscalls</tspan></text>
</g></g><path
     inkscape:connector-curvature="0"
     d="M 140.43261,116 H 503.4326 V 2 H 140.43261 Z"
     style="fill:#f2f2f2;fill-opacity:1;fill-rule:evenodd;stroke:none;stroke-width:1.33333325"
     id="path70" /><path
     inkscape:connector-curvature="0"
     d="M 140.43261,116 H 503.4326 V 2 H 140.43261 Z"
     style="fill:none;stroke:#000000;stroke-width:4;stroke-linecap:butt;stroke-linejoin:miter;stroke-miterlimit:10;stroke-dasharray:none;stroke-opacity:1"
     id="path72" /><g
     id="g74"
     transform="matrix(1.3333333,0,0,-1.3333333,-120.56738,387.99999)"><g
       id="g76"
       clip-path="url(#clipPath80)"><text
         transform="matrix(1,0,0,-1,284.4,272.45)"
         style="font-variant:normal;font-weight:normal;font-size:18.02499962px;font-family:Calibri;-inkscape-font-specification:Calibri;writing-mode:lr-tb;fill:#000000;fill-opacity:1;fill-rule:nonzero;stroke:none"
         id="text84"><tspan
           x="0 10.49055 20.224051 29.95755 34.445774 38.933998 46.4324 55.408852 61.447224 65.899399 75.632896 84.627373"
           y="0"
           id="tspan82">Applications</tspan></text>
</g></g><g
     id="g86"
     transform="matrix(1.3333333,0,0,-1.3333333,-120.56738,387.99999)"><g
       id="g88"
       clip-path="url(#clipPath92)"><text
         transform="matrix(1,0,0,-1,90.225,246.6)"
         style="font-variant:normal;font-weight:bold;font-size:18.04999924px;font-family:Calibri;-inkscape-font-specification:Calibri-Bold;writing-mode:lr-tb;fill:#000000;fill-opacity:1;fill-rule:nonzero;stroke:none"
         id="text96"><tspan
           x="0 11.24515 15.72155 23.9704"
           y="0"
           id="tspan94">High</tspan></text>
</g></g><g
     id="g98"
     transform="matrix(1.3333333,0,0,-1.3333333,-120.56738,387.99999)"><g
       id="g100"
       clip-path="url(#clipPath104)"><text
         transform="matrix(1,0,0,-1,124,246.6)"
         style="font-variant:normal;font-weight:bold;font-size:18.04999924px;font-family:Calibri;-inkscape-font-specification:Calibri-Bold;writing-mode:lr-tb;fill:#000000;fill-opacity:1;fill-rule:nonzero;stroke:none"
         id="text108"><tspan
           x="0"
           y="0"
           id="tspan106">-</tspan></text>
</g></g><g
     id="g110"
     transform="matrix(1.3333333,0,0,-1.3333333,-120.56738,387.99999)"><g
       id="g112"
       clip-path="url(#clipPath116)"><text
         transform="matrix(1,0,0,-1,129.25,246.6)"
         style="font-variant:normal;font-weight:bold;font-size:18.04999924px;font-family:Calibri;-inkscape-font-specification:Calibri-Bold;writing-mode:lr-tb;fill:#000000;fill-opacity:1;fill-rule:nonzero;stroke:none"
         id="text120"><tspan
           x="0 4.4763999 13.5014 21.768299 30.793301"
           y="0"
           id="tspan118">level</tspan></text>
</g></g><g
     id="g122"
     transform="matrix(1.3333333,0,0,-1.3333333,-120.56738,387.99999)"><g
       id="g124"
       clip-path="url(#clipPath128)"><text
         transform="matrix(1,0,0,-1,89.475,177.8)"
         style="font-variant:normal;font-weight:bold;font-size:18.02499962px;font-family:Calibri;-inkscape-font-specification:Calibri-Bold;writing-mode:lr-tb;fill:#000000;fill-opacity:1;fill-rule:nonzero;stroke:none"
         id="text132"><tspan
           x="0 4.5062499 14.23975 20.242075 29.236549 35.959873 50.938648 59.933125 69.666626 74.154846 83.131302 89.133621"
           y="0"
           id="tspan130">Intermediate</tspan></text>
</g></g><g
     id="g134"
     transform="matrix(1.3333333,0,0,-1.3333333,-120.56738,387.99999)"><g
       id="g136"
       clip-path="url(#clipPath140)"><text
         transform="matrix(1,0,0,-1,89.475,156.03)"
         style="font-variant:normal;font-weight:bold;font-size:18.04999924px;font-family:Calibri;-inkscape-font-specification:Calibri-Bold;writing-mode:lr-tb;fill:#000000;fill-opacity:1;fill-rule:nonzero;stroke:none"
         id="text144"><tspan
           x="0 4.4763999 13.48335 21.732201 30.739149"
           y="0"
           id="tspan142">level</tspan></text>
</g></g><g
     id="g146"
     transform="matrix(1.3333333,0,0,-1.3333333,-120.56738,387.99999)"><g
       id="g148"
       clip-path="url(#clipPath152)"><text
         transform="matrix(1,0,0,-1,89.475,121)"
         style="font-variant:normal;font-weight:bold;font-size:18.02499962px;font-family:Calibri;-inkscape-font-specification:Calibri-Bold;writing-mode:lr-tb;fill:#000000;fill-opacity:1;fill-rule:nonzero;stroke:none"
         id="text156"><tspan
           x="0 7.4984002 17.19585"
           y="0"
           id="tspan154">Low</tspan></text>
</g></g><g
     id="g158"
     transform="matrix(1.3333333,0,0,-1.3333333,-120.56738,387.99999)"><g
       id="g160"
       clip-path="url(#clipPath164)"><text
         transform="matrix(1,0,0,-1,120.25,121)"
         style="font-variant:normal;font-weight:bold;font-size:18.02499962px;font-family:Calibri;-inkscape-font-specification:Calibri-Bold;writing-mode:lr-tb;fill:#000000;fill-opacity:1;fill-rule:nonzero;stroke:none"
         id="text168"><tspan
           x="0"
           y="0"
           id="tspan166">-</tspan></text>
</g></g><g
     id="g170"
     transform="matrix(1.3333333,0,0,-1.3333333,-120.56738,387.99999)"><g
       id="g172"
       clip-path="url(#clipPath176)"><text
         transform="matrix(1,0,0,-1,125.5,121)"
         style="font-variant:normal;font-weight:bold;font-size:18.02499962px;font-family:Calibri;-inkscape-font-specification:Calibri-Bold;writing-mode:lr-tb;fill:#000000;fill-opacity:1;fill-rule:nonzero;stroke:none"
         id="text180"><tspan
           x="0 4.488225 13.4827 21.73815 30.732624"
           y="0"
           id="tspan178">level</tspan></text>
</g></g><path
     inkscape:connector-curvature="0"
     d="m 548.93927,199.50666 h 34 v 0 h 51 118.99999 v 7.49333 0 11.25334 26.25333 h -118.99999 -51 v 0 h -34 v -26.25333 l -53.78667,1.45333 53.78667,-12.70667 z"
     style="fill:#939fa8;fill-opacity:1;fill-rule:evenodd;stroke:none;stroke-width:1.33333325"
     id="path182" /><path
     inkscape:connector-curvature="0"
     d="m 548.93927,199.50666 h 34 v 0 h 51 118.99999 v 7.49333 0 11.25334 26.25333 h -118.99999 -51 v 0 h -34 v -26.25333 l -53.78667,1.45333 53.78667,-12.70667 z"
     style="fill:none;stroke:#4f5c64;stroke-width:1.00099993;stroke-linecap:butt;stroke-linejoin:round;stroke-miterlimit:10;stroke-dasharray:none;stroke-opacity:1"
     id="path184" /><g
     id="g186"
     transform="matrix(1.3333333,0,0,-1.3333333,-120.56738,387.99999)"><g
       id="g188"
       clip-path="url(#clipPath192)"><text
         transform="matrix(1,0,0,-1,524.53,118.4)"
         style="font-variant:normal;font-weight:normal;font-size:18.02499962px;font-family:Calibri;-inkscape-font-specification:Calibri;writing-mode:lr-tb;fill:#000000;fill-opacity:1;fill-rule:nonzero;stroke:none"
         id="text196"><tspan
           x="0 7.4984002 17.231899 23.973249 30.011625 35.977901"
           y="0"
           id="tspan194">Lustre</tspan></text>
</g></g><g
     id="g198"
     transform="matrix(1.3333333,0,0,-1.3333333,-120.56738,387.99999)"><g
       id="g200"
       clip-path="url(#clipPath204)"><text
         transform="matrix(1,0,0,-1,569.58,118.4)"
         style="font-variant:normal;font-weight:normal;font-size:18.02499962px;font-family:Calibri;-inkscape-font-specification:Calibri;writing-mode:lr-tb;fill:#000000;fill-opacity:1;fill-rule:nonzero;stroke:none"
         id="text208"><tspan
           x="0 4.5062499 8.2554502 19.50305 28.497524 36.771 45.044476 49.550724 54.002899 58.5452"
           y="0"
           id="tspan206">, GPFS,...</tspan></text>
</g></g><path
     inkscape:connector-curvature="0"
     d="m 215.43261,117 h 224 V 43 h -224 z"
     style="fill:#f2f2f2;fill-opacity:1;fill-rule:evenodd;stroke:none;stroke-width:1.33333325"
     id="path210" /><path
     inkscape:connector-curvature="0"
     d="m 215.43261,117 h 224 V 43 h -224 z"
     style="fill:none;stroke:#000000;stroke-width:4;stroke-linecap:butt;stroke-linejoin:miter;stroke-miterlimit:8;stroke-dasharray:none;stroke-opacity:1"
     id="path212" /><g
     id="g214"
     transform="matrix(1.3333333,0,0,-1.3333333,-120.56738,387.99999)"><g
       id="g216"
       clip-path="url(#clipPath220)"><text
         transform="matrix(1,0,0,-1,284.1,236.13)"
         style="font-variant:normal;font-weight:normal;font-size:18.04999924px;font-family:Calibri;-inkscape-font-specification:Calibri;writing-mode:lr-tb;fill:#000000;fill-opacity:1;fill-rule:nonzero;stroke:none"
         id="text224"><tspan
           x="0 11.24515 15.7396 23.988449 33.7174 37.471802 41.9482 50.937099 59.185951 68.17485 72.669296 75.665604 80.214203 86.910751 98.859848"
           y="0"
           id="tspan222">High level I/O </tspan></text>
</g></g><g
     id="g226"
     transform="matrix(1.3333333,0,0,-1.3333333,-120.56738,387.99999)"><g
       id="g228"
       clip-path="url(#clipPath232)"><text
         transform="matrix(1,0,0,-1,302.1,214.33)"
         style="font-variant:normal;font-weight:normal;font-size:18.02499962px;font-family:Calibri;-inkscape-font-specification:Calibri;writing-mode:lr-tb;fill:#000000;fill-opacity:1;fill-rule:nonzero;stroke:none"
         id="text236"><tspan
           x="0 7.5704999 12.0407 21.792225 27.812574 36.825073 42.845425 47.351673 56.328125"
           y="0"
           id="tspan234">Libraries</tspan></text>
</g></g><path
     inkscape:connector-curvature="0"
     d="m 540.93927,55.50666 h 34.16 v 0 h 51.25333 119.58667 v 26.82667 0 11.50667 7.66666 H 626.3526 575.09927 v 0 h -34.16 V 93.84 l -148.6,-10.14667 148.6,-1.36 z"
     style="fill:#939fa8;fill-opacity:1;fill-rule:evenodd;stroke:none;stroke-width:1.33333325"
     id="path238" /><path
     inkscape:connector-curvature="0"
     d="m 540.93927,55.50666 h 34.16 v 0 h 51.25333 119.58667 v 26.82667 0 11.50667 7.66666 H 626.3526 575.09927 v 0 h -34.16 V 93.84 l -148.6,-10.14667 148.6,-1.36 z"
     style="fill:none;stroke:#4f5c64;stroke-width:1.00099993;stroke-linecap:butt;stroke-linejoin:round;stroke-miterlimit:8;stroke-dasharray:none;stroke-opacity:1"
     id="path240" /><g
     id="g242"
     transform="matrix(1.3333333,0,0,-1.3333333,-120.56738,387.99999)"><g
       id="g244"
       clip-path="url(#clipPath248)"><text
         transform="matrix(1,0,0,-1,512.85,226.3)"
         style="font-variant:normal;font-weight:normal;font-size:18.02499962px;font-family:Calibri;-inkscape-font-specification:Calibri;writing-mode:lr-tb;fill:#000000;fill-opacity:1;fill-rule:nonzero;stroke:none"
         id="text252"><tspan
           x="0 11.229575 22.477175 30.75065 39.7271 44.233349"
           y="0"
           id="tspan250">HDF5, </tspan></text>
</g></g><g
     id="g254"
     transform="matrix(1.3333333,0,0,-1.3333333,-120.56738,387.99999)"><g
       id="g256"
       clip-path="url(#clipPath260)"><text
         transform="matrix(1,0,0,-1,560.88,226.3)"
         style="font-variant:normal;font-weight:normal;font-size:18.02499962px;font-family:Calibri;-inkscape-font-specification:Calibri;writing-mode:lr-tb;fill:#000000;fill-opacity:1;fill-rule:nonzero;stroke:none"
         id="text264"><tspan
           x="0 12.00465 20.9811 27.019476 36.807049 48.072674"
           y="0"
           id="tspan262">NetCDF</tspan></text>
</g></g><g
     id="g266"
     transform="matrix(1.3333333,0,0,-1.3333333,-120.56738,387.99999)"><g
       id="g268"
       clip-path="url(#clipPath272)"><text
         transform="matrix(1,0,0,-1,615.7,226.3)"
         style="font-variant:normal;font-weight:normal;font-size:18.02499962px;font-family:Calibri;-inkscape-font-specification:Calibri;writing-mode:lr-tb;fill:#000000;fill-opacity:1;fill-rule:nonzero;stroke:none"
         id="text276"><tspan
           x="0 4.5062499 9.0485497 13.500725"
           y="0"
           id="tspan274">,...</tspan></text>
</g></g></svg>