<?xml version="1.0" encoding="UTF-8" standalone="no"?>
<svg
   xmlns:dc="http://purl.org/dc/elements/1.1/"
   xmlns:cc="http://creativecommons.org/ns#"
   xmlns:rdf="http://www.w3.org/1999/02/22-rdf-syntax-ns#"
   xmlns:svg="http://www.w3.org/2000/svg"
   xmlns="http://www.w3.org/2000/svg"
   xmlns:sodipodi="http://sodipodi.sourceforge.net/DTD/sodipodi-0.dtd"
   xmlns:inkscape="http://www.inkscape.org/namespaces/inkscape"
   viewBox="0 0 923.7915 162.05749"
   height="162.0575"
   width="923.7915"
   xml:space="preserve"
   id="svg2"
   version="1.1"
   sodipodi:docname="io-subarray.svg"
   inkscape:version="0.92.3 (2405546, 2018-03-11)"><sodipodi:namedview
     pagecolor="#ffffff"
     bordercolor="#666666"
     borderopacity="1"
     objecttolerance="10"
     gridtolerance="10"
     guidetolerance="10"
     inkscape:pageopacity="0"
     inkscape:pageshadow="2"
     inkscape:window-width="1293"
     inkscape:window-height="593"
     id="namedview24979"
     showgrid="false"
     inkscape:zoom="0.79333333"
     inkscape:cx="473.79155"
     inkscape:cy="80.00002"
     inkscape:window-x="67"
     inkscape:window-y="27"
     inkscape:window-maximized="1"
     inkscape:current-layer="svg2" /><metadata
     id="metadata8"><rdf:RDF><cc:Work
         rdf:about=""><dc:format>image/svg+xml</dc:format><dc:type
           rdf:resource="http://purl.org/dc/dcmitype/StillImage" /><dc:title></dc:title></cc:Work></rdf:RDF></metadata><defs
     id="defs6"><clipPath
       id="clipPath18"
       clipPathUnits="userSpaceOnUse"><path
         style="clip-rule:evenodd"
         id="path16"
         d="M 0,1.2207e-4 H 720 V 450.00012 H 0 Z"
         inkscape:connector-curvature="0" /></clipPath><clipPath
       id="clipPath92"
       clipPathUnits="userSpaceOnUse"><path
         style="clip-rule:evenodd"
         id="path90"
         d="M 1.0729e-5,0 H 720.00001 V 450 H 1.0729e-5 Z"
         inkscape:connector-curvature="0" /></clipPath><clipPath
       id="clipPath168"
       clipPathUnits="userSpaceOnUse"><path
         style="clip-rule:evenodd"
         id="path166"
         d="M 1.0729e-5,0 H 720.00001 V 450 H 1.0729e-5 Z"
         inkscape:connector-curvature="0" /></clipPath></defs><path
     inkscape:connector-curvature="0"
     d="m 45.791543,29.177482 c 0,-0.0667 0.056,-0.12 0.12534,-0.12 h 47.74933 c 0.0693,0 0.12533,0.0533 0.12533,0.12 v 35.76 c 0,0.0667 -0.056,0.12 -0.12533,0.12 h -47.74933 c -0.0693,0 -0.12534,-0.0533 -0.12534,-0.12 z"
     style="fill:#99ccff;fill-opacity:1;fill-rule:evenodd;stroke:none;stroke-width:1.33333325"
     id="path22" /><path
     inkscape:connector-curvature="0"
     d="m 45.791543,29.177482 c 0,-0.0667 0.056,-0.12 0.12534,-0.12 h 47.74933 c 0.0693,0 0.12533,0.0533 0.12533,0.12 v 35.76 c 0,0.0667 -0.056,0.12 -0.12533,0.12 h -47.74933 c -0.0693,0 -0.12534,-0.0533 -0.12534,-0.12 z"
     style="fill:none;stroke:#000000;stroke-width:2;stroke-linecap:butt;stroke-linejoin:round;stroke-miterlimit:10;stroke-dasharray:none;stroke-opacity:1"
     id="path24" /><path
     inkscape:connector-curvature="0"
     d="m 91.791543,29.177482 c 0,-0.0667 0.056,-0.12 0.12533,-0.12 h 47.754677 c 0.0667,0 0.12,0.0533 0.12,0.12 v 35.76 c 0,0.0667 -0.0533,0.12 -0.12,0.12 H 91.916873 c -0.0693,0 -0.12533,-0.0533 -0.12533,-0.12 z"
     style="fill:#99ccff;fill-opacity:1;fill-rule:evenodd;stroke:none;stroke-width:1.33333325"
     id="path26" /><path
     inkscape:connector-curvature="0"
     d="m 91.791543,29.177482 c 0,-0.0667 0.056,-0.12 0.12533,-0.12 h 47.754677 c 0.0667,0 0.12,0.0533 0.12,0.12 v 35.76 c 0,0.0667 -0.0533,0.12 -0.12,0.12 H 91.916873 c -0.0693,0 -0.12533,-0.0533 -0.12533,-0.12 z"
     style="fill:none;stroke:#000000;stroke-width:2;stroke-linecap:butt;stroke-linejoin:round;stroke-miterlimit:10;stroke-dasharray:none;stroke-opacity:1"
     id="path28" /><path
     inkscape:connector-curvature="0"
     d="m 136.79155,29.177482 c 0,-0.0667 0.0533,-0.12 0.12,-0.12 h 47.76 c 0.0667,0 0.12,0.0533 0.12,0.12 v 35.76 c 0,0.0667 -0.0533,0.12 -0.12,0.12 h -47.76 c -0.0667,0 -0.12,-0.0533 -0.12,-0.12 z"
     style="fill:#ff0000;fill-opacity:1;fill-rule:evenodd;stroke:none;stroke-width:1.33333325"
     id="path30" /><path
     inkscape:connector-curvature="0"
     d="m 136.79155,29.177482 c 0,-0.0667 0.0533,-0.12 0.12,-0.12 h 47.76 c 0.0667,0 0.12,0.0533 0.12,0.12 v 35.76 c 0,0.0667 -0.0533,0.12 -0.12,0.12 h -47.76 c -0.0667,0 -0.12,-0.0533 -0.12,-0.12 z"
     style="fill:none;stroke:#000000;stroke-width:2;stroke-linecap:butt;stroke-linejoin:round;stroke-miterlimit:10;stroke-dasharray:none;stroke-opacity:1"
     id="path32" /><path
     inkscape:connector-curvature="0"
     d="m 182.79155,29.177482 c 0,-0.0667 0.0533,-0.12 0.12,-0.12 h 47.75999 c 0.0667,0 0.12,0.0533 0.12,0.12 v 35.76 c 0,0.0667 -0.0533,0.12 -0.12,0.12 h -47.75999 c -0.0667,0 -0.12,-0.0533 -0.12,-0.12 z"
     style="fill:#ff0000;fill-opacity:1;fill-rule:evenodd;stroke:none;stroke-width:1.33333325"
     id="path34" /><path
     inkscape:connector-curvature="0"
     d="m 182.79155,29.177482 c 0,-0.0667 0.0533,-0.12 0.12,-0.12 h 47.75999 c 0.0667,0 0.12,0.0533 0.12,0.12 v 35.76 c 0,0.0667 -0.0533,0.12 -0.12,0.12 h -47.75999 c -0.0667,0 -0.12,-0.0533 -0.12,-0.12 z"
     style="fill:none;stroke:#000000;stroke-width:2;stroke-linecap:butt;stroke-linejoin:round;stroke-miterlimit:10;stroke-dasharray:none;stroke-opacity:1"
     id="path36" /><path
     inkscape:connector-curvature="0"
     d="m 45.791543,63.177482 c 0,-0.0667 0.056,-0.12 0.12534,-0.12 h 47.74933 c 0.0693,0 0.12533,0.0533 0.12533,0.12 v 35.760005 c 0,0.0667 -0.056,0.12 -0.12533,0.12 h -47.74933 c -0.0693,0 -0.12534,-0.0533 -0.12534,-0.12 z"
     style="fill:#99ccff;fill-opacity:1;fill-rule:evenodd;stroke:none;stroke-width:1.33333325"
     id="path38" /><path
     inkscape:connector-curvature="0"
     d="m 45.791543,63.177482 c 0,-0.0667 0.056,-0.12 0.12534,-0.12 h 47.74933 c 0.0693,0 0.12533,0.0533 0.12533,0.12 v 35.760005 c 0,0.0667 -0.056,0.12 -0.12533,0.12 h -47.74933 c -0.0693,0 -0.12534,-0.0533 -0.12534,-0.12 z"
     style="fill:none;stroke:#000000;stroke-width:2;stroke-linecap:butt;stroke-linejoin:round;stroke-miterlimit:10;stroke-dasharray:none;stroke-opacity:1"
     id="path40" /><path
     inkscape:connector-curvature="0"
     d="m 91.791543,63.177482 c 0,-0.0667 0.056,-0.12 0.12533,-0.12 h 47.754677 c 0.0667,0 0.12,0.0533 0.12,0.12 v 35.760005 c 0,0.0667 -0.0533,0.12 -0.12,0.12 H 91.916873 c -0.0693,0 -0.12533,-0.0533 -0.12533,-0.12 z"
     style="fill:#99ccff;fill-opacity:1;fill-rule:evenodd;stroke:none;stroke-width:1.33333325"
     id="path42" /><path
     inkscape:connector-curvature="0"
     d="m 91.791543,63.177482 c 0,-0.0667 0.056,-0.12 0.12533,-0.12 h 47.754677 c 0.0667,0 0.12,0.0533 0.12,0.12 v 35.760005 c 0,0.0667 -0.0533,0.12 -0.12,0.12 H 91.916873 c -0.0693,0 -0.12533,-0.0533 -0.12533,-0.12 z"
     style="fill:none;stroke:#000000;stroke-width:2;stroke-linecap:butt;stroke-linejoin:round;stroke-miterlimit:10;stroke-dasharray:none;stroke-opacity:1"
     id="path44" /><path
     inkscape:connector-curvature="0"
     d="m 136.79155,63.177482 c 0,-0.0667 0.0533,-0.12 0.12,-0.12 h 47.76 c 0.0667,0 0.12,0.0533 0.12,0.12 v 35.760005 c 0,0.0667 -0.0533,0.12 -0.12,0.12 h -47.76 c -0.0667,0 -0.12,-0.0533 -0.12,-0.12 z"
     style="fill:#ff0000;fill-opacity:1;fill-rule:evenodd;stroke:none;stroke-width:1.33333325"
     id="path46" /><path
     inkscape:connector-curvature="0"
     d="m 136.79155,63.177482 c 0,-0.0667 0.0533,-0.12 0.12,-0.12 h 47.76 c 0.0667,0 0.12,0.0533 0.12,0.12 v 35.760005 c 0,0.0667 -0.0533,0.12 -0.12,0.12 h -47.76 c -0.0667,0 -0.12,-0.0533 -0.12,-0.12 z"
     style="fill:none;stroke:#000000;stroke-width:2;stroke-linecap:butt;stroke-linejoin:round;stroke-miterlimit:10;stroke-dasharray:none;stroke-opacity:1"
     id="path48" /><path
     inkscape:connector-curvature="0"
     d="m 182.79155,63.177482 c 0,-0.0667 0.0533,-0.12 0.12,-0.12 h 47.75999 c 0.0667,0 0.12,0.0533 0.12,0.12 v 35.760005 c 0,0.0667 -0.0533,0.12 -0.12,0.12 h -47.75999 c -0.0667,0 -0.12,-0.0533 -0.12,-0.12 z"
     style="fill:#ff0000;fill-opacity:1;fill-rule:evenodd;stroke:none;stroke-width:1.33333325"
     id="path50" /><path
     inkscape:connector-curvature="0"
     d="m 182.79155,63.177482 c 0,-0.0667 0.0533,-0.12 0.12,-0.12 h 47.75999 c 0.0667,0 0.12,0.0533 0.12,0.12 v 35.760005 c 0,0.0667 -0.0533,0.12 -0.12,0.12 h -47.75999 c -0.0667,0 -0.12,-0.0533 -0.12,-0.12 z"
     style="fill:none;stroke:#000000;stroke-width:2;stroke-linecap:butt;stroke-linejoin:round;stroke-miterlimit:10;stroke-dasharray:none;stroke-opacity:1"
     id="path52" /><path
     inkscape:connector-curvature="0"
     d="m 45.791543,97.177487 c 0,-0.0667 0.056,-0.12 0.12534,-0.12 h 47.74933 c 0.0693,0 0.12533,0.0533 0.12533,0.12 v 35.760003 c 0,0.0667 -0.056,0.12 -0.12533,0.12 h -47.74933 c -0.0693,0 -0.12534,-0.0533 -0.12534,-0.12 z"
     style="fill:#ffff00;fill-opacity:1;fill-rule:evenodd;stroke:none;stroke-width:1.33333325"
     id="path54" /><path
     inkscape:connector-curvature="0"
     d="m 45.791543,97.177487 c 0,-0.0667 0.056,-0.12 0.12534,-0.12 h 47.74933 c 0.0693,0 0.12533,0.0533 0.12533,0.12 v 35.760003 c 0,0.0667 -0.056,0.12 -0.12533,0.12 h -47.74933 c -0.0693,0 -0.12534,-0.0533 -0.12534,-0.12 z"
     style="fill:none;stroke:#000000;stroke-width:2;stroke-linecap:butt;stroke-linejoin:round;stroke-miterlimit:10;stroke-dasharray:none;stroke-opacity:1"
     id="path56" /><path
     inkscape:connector-curvature="0"
     d="m 91.791543,97.177487 c 0,-0.0667 0.056,-0.12 0.12533,-0.12 h 47.754677 c 0.0667,0 0.12,0.0533 0.12,0.12 v 35.760003 c 0,0.0667 -0.0533,0.12 -0.12,0.12 H 91.916873 c -0.0693,0 -0.12533,-0.0533 -0.12533,-0.12 z"
     style="fill:#ffff00;fill-opacity:1;fill-rule:evenodd;stroke:none;stroke-width:1.33333325"
     id="path58" /><path
     inkscape:connector-curvature="0"
     d="m 91.791543,97.177487 c 0,-0.0667 0.056,-0.12 0.12533,-0.12 h 47.754677 c 0.0667,0 0.12,0.0533 0.12,0.12 v 35.760003 c 0,0.0667 -0.0533,0.12 -0.12,0.12 H 91.916873 c -0.0693,0 -0.12533,-0.0533 -0.12533,-0.12 z"
     style="fill:none;stroke:#000000;stroke-width:2;stroke-linecap:butt;stroke-linejoin:round;stroke-miterlimit:10;stroke-dasharray:none;stroke-opacity:1"
     id="path60" /><path
     inkscape:connector-curvature="0"
     d="m 136.79155,97.177487 c 0,-0.0667 0.0533,-0.12 0.12,-0.12 h 47.76 c 0.0667,0 0.12,0.0533 0.12,0.12 v 35.760003 c 0,0.0667 -0.0533,0.12 -0.12,0.12 h -47.76 c -0.0667,0 -0.12,-0.0533 -0.12,-0.12 z"
     style="fill:#808080;fill-opacity:1;fill-rule:evenodd;stroke:none;stroke-width:1.33333325"
     id="path62" /><path
     inkscape:connector-curvature="0"
     d="m 136.79155,97.177487 c 0,-0.0667 0.0533,-0.12 0.12,-0.12 h 47.76 c 0.0667,0 0.12,0.0533 0.12,0.12 v 35.760003 c 0,0.0667 -0.0533,0.12 -0.12,0.12 h -47.76 c -0.0667,0 -0.12,-0.0533 -0.12,-0.12 z"
     style="fill:none;stroke:#000000;stroke-width:2;stroke-linecap:butt;stroke-linejoin:round;stroke-miterlimit:10;stroke-dasharray:none;stroke-opacity:1"
     id="path64" /><path
     inkscape:connector-curvature="0"
     d="m 182.79155,97.177487 c 0,-0.0667 0.0533,-0.12 0.12,-0.12 h 47.75999 c 0.0667,0 0.12,0.0533 0.12,0.12 v 35.760003 c 0,0.0667 -0.0533,0.12 -0.12,0.12 h -47.75999 c -0.0667,0 -0.12,-0.0533 -0.12,-0.12 z"
     style="fill:#808080;fill-opacity:1;fill-rule:evenodd;stroke:none;stroke-width:1.33333325"
     id="path66" /><path
     inkscape:connector-curvature="0"
     d="m 182.79155,97.177487 c 0,-0.0667 0.0533,-0.12 0.12,-0.12 h 47.75999 c 0.0667,0 0.12,0.0533 0.12,0.12 v 35.760003 c 0,0.0667 -0.0533,0.12 -0.12,0.12 h -47.75999 c -0.0667,0 -0.12,-0.0533 -0.12,-0.12 z"
     style="fill:none;stroke:#000000;stroke-width:2;stroke-linecap:butt;stroke-linejoin:round;stroke-miterlimit:10;stroke-dasharray:none;stroke-opacity:1"
     id="path68" /><path
     inkscape:connector-curvature="0"
     d="m 45.791543,125.17749 c 0,-0.0667 0.056,-0.12 0.12534,-0.12 h 47.74933 c 0.0693,0 0.12533,0.0533 0.12533,0.12 v 35.76 c 0,0.0667 -0.056,0.12 -0.12533,0.12 h -47.74933 c -0.0693,0 -0.12534,-0.0533 -0.12534,-0.12 z"
     style="fill:#ffff00;fill-opacity:1;fill-rule:evenodd;stroke:none;stroke-width:1.33333325"
     id="path70" /><path
     inkscape:connector-curvature="0"
     d="m 45.791543,125.17749 c 0,-0.0667 0.056,-0.12 0.12534,-0.12 h 47.74933 c 0.0693,0 0.12533,0.0533 0.12533,0.12 v 35.76 c 0,0.0667 -0.056,0.12 -0.12533,0.12 h -47.74933 c -0.0693,0 -0.12534,-0.0533 -0.12534,-0.12 z"
     style="fill:none;stroke:#000000;stroke-width:2;stroke-linecap:butt;stroke-linejoin:round;stroke-miterlimit:10;stroke-dasharray:none;stroke-opacity:1"
     id="path72" /><path
     inkscape:connector-curvature="0"
     d="m 91.791543,125.17749 c 0,-0.0667 0.056,-0.12 0.12533,-0.12 h 47.754677 c 0.0667,0 0.12,0.0533 0.12,0.12 v 35.76 c 0,0.0667 -0.0533,0.12 -0.12,0.12 H 91.916873 c -0.0693,0 -0.12533,-0.0533 -0.12533,-0.12 z"
     style="fill:#ffff00;fill-opacity:1;fill-rule:evenodd;stroke:none;stroke-width:1.33333325"
     id="path74" /><path
     inkscape:connector-curvature="0"
     d="m 91.791543,125.17749 c 0,-0.0667 0.056,-0.12 0.12533,-0.12 h 47.754677 c 0.0667,0 0.12,0.0533 0.12,0.12 v 35.76 c 0,0.0667 -0.0533,0.12 -0.12,0.12 H 91.916873 c -0.0693,0 -0.12533,-0.0533 -0.12533,-0.12 z"
     style="fill:none;stroke:#000000;stroke-width:2;stroke-linecap:butt;stroke-linejoin:round;stroke-miterlimit:10;stroke-dasharray:none;stroke-opacity:1"
     id="path76" /><path
     inkscape:connector-curvature="0"
     d="m 136.79155,125.17749 c 0,-0.0667 0.0533,-0.12 0.12,-0.12 h 47.76 c 0.0667,0 0.12,0.0533 0.12,0.12 v 35.76 c 0,0.0667 -0.0533,0.12 -0.12,0.12 h -47.76 c -0.0667,0 -0.12,-0.0533 -0.12,-0.12 z"
     style="fill:#808080;fill-opacity:1;fill-rule:evenodd;stroke:none;stroke-width:1.33333325"
     id="path78" /><path
     inkscape:connector-curvature="0"
     d="m 136.79155,125.17749 c 0,-0.0667 0.0533,-0.12 0.12,-0.12 h 47.76 c 0.0667,0 0.12,0.0533 0.12,0.12 v 35.76 c 0,0.0667 -0.0533,0.12 -0.12,0.12 h -47.76 c -0.0667,0 -0.12,-0.0533 -0.12,-0.12 z"
     style="fill:none;stroke:#000000;stroke-width:2;stroke-linecap:butt;stroke-linejoin:round;stroke-miterlimit:10;stroke-dasharray:none;stroke-opacity:1"
     id="path80" /><path
     inkscape:connector-curvature="0"
     d="m 182.79155,125.17749 c 0,-0.0667 0.0533,-0.12 0.12,-0.12 h 47.75999 c 0.0667,0 0.12,0.0533 0.12,0.12 v 35.76 c 0,0.0667 -0.0533,0.12 -0.12,0.12 h -47.75999 c -0.0667,0 -0.12,-0.0533 -0.12,-0.12 z"
     style="fill:#808080;fill-opacity:1;fill-rule:evenodd;stroke:none;stroke-width:1.33333325"
     id="path82" /><path
     inkscape:connector-curvature="0"
     d="m 182.79155,125.17749 c 0,-0.0667 0.0533,-0.12 0.12,-0.12 h 47.75999 c 0.0667,0 0.12,0.0533 0.12,0.12 v 35.76 c 0,0.0667 -0.0533,0.12 -0.12,0.12 h -47.75999 c -0.0667,0 -0.12,-0.0533 -0.12,-0.12 z"
     style="fill:none;stroke:#000000;stroke-width:2;stroke-linecap:butt;stroke-linejoin:round;stroke-miterlimit:10;stroke-dasharray:none;stroke-opacity:1"
     id="path84" /><path
     inkscape:connector-curvature="0"
     d="m 364.79154,105.92415 c 0,0.08 -0.0533,0.13334 -0.13333,0.13334 h -38.73333 c -0.08,0 -0.13334,-0.0533 -0.13334,-0.13334 V 76.190812 c 0,-0.08 0.0533,-0.13333 0.13334,-0.13333 h 38.73333 c 0.08,0 0.13333,0.0533 0.13333,0.13333 z"
     style="fill:#99ccff;fill-opacity:1;fill-rule:evenodd;stroke:none;stroke-width:1.33333325"
     id="path98" /><path
     inkscape:connector-curvature="0"
     d="m 364.79154,105.92415 c 0,0.08 -0.0533,0.13334 -0.13333,0.13334 h -38.73333 c -0.08,0 -0.13334,-0.0533 -0.13334,-0.13334 V 76.190812 c 0,-0.08 0.0533,-0.13333 0.13334,-0.13333 h 38.73333 c 0.08,0 0.13333,0.0533 0.13333,0.13333 z"
     style="fill:none;stroke:#000000;stroke-width:2;stroke-linecap:butt;stroke-linejoin:round;stroke-miterlimit:10;stroke-dasharray:none;stroke-opacity:1"
     id="path100" /><path
     inkscape:connector-curvature="0"
     d="m 401.79154,105.92415 c 0,0.08 -0.0533,0.13334 -0.13333,0.13334 h -38.73334 c -0.08,0 -0.13333,-0.0533 -0.13333,-0.13334 V 76.190812 c 0,-0.08 0.0533,-0.13333 0.13333,-0.13333 h 38.73334 c 0.08,0 0.13333,0.0533 0.13333,0.13333 z"
     style="fill:#99ccff;fill-opacity:1;fill-rule:evenodd;stroke:none;stroke-width:1.33333325"
     id="path102" /><path
     inkscape:connector-curvature="0"
     d="m 401.79154,105.92415 c 0,0.08 -0.0533,0.13334 -0.13333,0.13334 h -38.73334 c -0.08,0 -0.13333,-0.0533 -0.13333,-0.13334 V 76.190812 c 0,-0.08 0.0533,-0.13333 0.13333,-0.13333 h 38.73334 c 0.08,0 0.13333,0.0533 0.13333,0.13333 z"
     style="fill:none;stroke:#000000;stroke-width:2;stroke-linecap:butt;stroke-linejoin:round;stroke-miterlimit:10;stroke-dasharray:none;stroke-opacity:1"
     id="path104" /><path
     inkscape:connector-curvature="0"
     d="m 438.79154,105.92415 c 0,0.08 -0.0533,0.13334 -0.13333,0.13334 h -38.73334 c -0.08,0 -0.13333,-0.0533 -0.13333,-0.13334 V 76.190812 c 0,-0.08 0.0533,-0.13333 0.13333,-0.13333 h 38.73334 c 0.08,0 0.13333,0.0533 0.13333,0.13333 z"
     style="fill:#ff0000;fill-opacity:1;fill-rule:evenodd;stroke:none;stroke-width:1.33333325"
     id="path106" /><path
     inkscape:connector-curvature="0"
     d="m 438.79154,105.92415 c 0,0.08 -0.0533,0.13334 -0.13333,0.13334 h -38.73334 c -0.08,0 -0.13333,-0.0533 -0.13333,-0.13334 V 76.190812 c 0,-0.08 0.0533,-0.13333 0.13333,-0.13333 h 38.73334 c 0.08,0 0.13333,0.0533 0.13333,0.13333 z"
     style="fill:none;stroke:#000000;stroke-width:2;stroke-linecap:butt;stroke-linejoin:round;stroke-miterlimit:10;stroke-dasharray:none;stroke-opacity:1"
     id="path108" /><path
     inkscape:connector-curvature="0"
     d="m 475.79154,105.92415 c 0,0.08 -0.0533,0.13334 -0.13334,0.13334 h -38.73333 c -0.08,0 -0.13333,-0.0533 -0.13333,-0.13334 V 76.190812 c 0,-0.08 0.0533,-0.13333 0.13333,-0.13333 h 38.73333 c 0.08,0 0.13334,0.0533 0.13334,0.13333 z"
     style="fill:#ff0000;fill-opacity:1;fill-rule:evenodd;stroke:none;stroke-width:1.33333325"
     id="path110" /><path
     inkscape:connector-curvature="0"
     d="m 475.79154,105.92415 c 0,0.08 -0.0533,0.13334 -0.13334,0.13334 h -38.73333 c -0.08,0 -0.13333,-0.0533 -0.13333,-0.13334 V 76.190812 c 0,-0.08 0.0533,-0.13333 0.13333,-0.13333 h 38.73333 c 0.08,0 0.13334,0.0533 0.13334,0.13333 z"
     style="fill:none;stroke:#000000;stroke-width:2;stroke-linecap:butt;stroke-linejoin:round;stroke-miterlimit:10;stroke-dasharray:none;stroke-opacity:1"
     id="path112" /><path
     inkscape:connector-curvature="0"
     d="m 513.79154,105.92415 c 0,0.08 -0.0533,0.13334 -0.13334,0.13334 h -39.73333 c -0.08,0 -0.13333,-0.0533 -0.13333,-0.13334 V 76.190812 c 0,-0.08 0.0533,-0.13333 0.13333,-0.13333 h 39.73333 c 0.08,0 0.13334,0.0533 0.13334,0.13333 z"
     style="fill:#99ccff;fill-opacity:1;fill-rule:evenodd;stroke:none;stroke-width:1.33333325"
     id="path114" /><path
     inkscape:connector-curvature="0"
     d="m 513.79154,105.92415 c 0,0.08 -0.0533,0.13334 -0.13334,0.13334 h -39.73333 c -0.08,0 -0.13333,-0.0533 -0.13333,-0.13334 V 76.190812 c 0,-0.08 0.0533,-0.13333 0.13333,-0.13333 h 39.73333 c 0.08,0 0.13334,0.0533 0.13334,0.13333 z"
     style="fill:none;stroke:#000000;stroke-width:2;stroke-linecap:butt;stroke-linejoin:round;stroke-miterlimit:10;stroke-dasharray:none;stroke-opacity:1"
     id="path116" /><path
     inkscape:connector-curvature="0"
     d="m 550.79154,105.92415 c 0,0.08 -0.0533,0.13334 -0.13334,0.13334 h -39.73333 c -0.08,0 -0.13333,-0.0533 -0.13333,-0.13334 V 76.190812 c 0,-0.08 0.0533,-0.13333 0.13333,-0.13333 h 39.73333 c 0.08,0 0.13334,0.0533 0.13334,0.13333 z"
     style="fill:#99ccff;fill-opacity:1;fill-rule:evenodd;stroke:none;stroke-width:1.33333325"
     id="path118" /><path
     inkscape:connector-curvature="0"
     d="m 550.79154,105.92415 c 0,0.08 -0.0533,0.13334 -0.13334,0.13334 h -39.73333 c -0.08,0 -0.13333,-0.0533 -0.13333,-0.13334 V 76.190812 c 0,-0.08 0.0533,-0.13333 0.13333,-0.13333 h 39.73333 c 0.08,0 0.13334,0.0533 0.13334,0.13333 z"
     style="fill:none;stroke:#000000;stroke-width:2;stroke-linecap:butt;stroke-linejoin:round;stroke-miterlimit:10;stroke-dasharray:none;stroke-opacity:1"
     id="path120" /><path
     inkscape:connector-curvature="0"
     d="m 587.79154,105.92415 c 0,0.08 -0.0533,0.13334 -0.13334,0.13334 h -39.73333 c -0.08,0 -0.13333,-0.0533 -0.13333,-0.13334 V 76.190812 c 0,-0.08 0.0533,-0.13333 0.13333,-0.13333 h 39.73333 c 0.08,0 0.13334,0.0533 0.13334,0.13333 z"
     style="fill:#ff0000;fill-opacity:1;fill-rule:evenodd;stroke:none;stroke-width:1.33333325"
     id="path122" /><path
     inkscape:connector-curvature="0"
     d="m 587.79154,105.92415 c 0,0.08 -0.0533,0.13334 -0.13334,0.13334 h -39.73333 c -0.08,0 -0.13333,-0.0533 -0.13333,-0.13334 V 76.190812 c 0,-0.08 0.0533,-0.13333 0.13333,-0.13333 h 39.73333 c 0.08,0 0.13334,0.0533 0.13334,0.13333 z"
     style="fill:none;stroke:#000000;stroke-width:2;stroke-linecap:butt;stroke-linejoin:round;stroke-miterlimit:10;stroke-dasharray:none;stroke-opacity:1"
     id="path124" /><path
     inkscape:connector-curvature="0"
     d="m 623.79153,105.92415 c 0,0.08 -0.0533,0.13334 -0.13333,0.13334 h -38.73333 c -0.08,0 -0.13333,-0.0533 -0.13333,-0.13334 V 76.190812 c 0,-0.08 0.0533,-0.13333 0.13333,-0.13333 h 38.73333 c 0.08,0 0.13333,0.0533 0.13333,0.13333 z"
     style="fill:#ff0000;fill-opacity:1;fill-rule:evenodd;stroke:none;stroke-width:1.33333325"
     id="path126" /><path
     inkscape:connector-curvature="0"
     d="m 623.79153,105.92415 c 0,0.08 -0.0533,0.13334 -0.13333,0.13334 h -38.73333 c -0.08,0 -0.13333,-0.0533 -0.13333,-0.13334 V 76.190812 c 0,-0.08 0.0533,-0.13333 0.13333,-0.13333 h 38.73333 c 0.08,0 0.13333,0.0533 0.13333,0.13333 z"
     style="fill:none;stroke:#000000;stroke-width:2;stroke-linecap:butt;stroke-linejoin:round;stroke-miterlimit:10;stroke-dasharray:none;stroke-opacity:1"
     id="path128" /><path
     inkscape:connector-curvature="0"
     d="m 661.79153,105.92415 c 0,0.08 -0.0533,0.13334 -0.13333,0.13334 h -38.73333 c -0.08,0 -0.13334,-0.0533 -0.13334,-0.13334 V 76.190812 c 0,-0.08 0.0533,-0.13333 0.13334,-0.13333 h 38.73333 c 0.08,0 0.13333,0.0533 0.13333,0.13333 z"
     style="fill:#ffff00;fill-opacity:1;fill-rule:evenodd;stroke:none;stroke-width:1.33333325"
     id="path130" /><path
     inkscape:connector-curvature="0"
     d="m 661.79153,105.92415 c 0,0.08 -0.0533,0.13334 -0.13333,0.13334 h -38.73333 c -0.08,0 -0.13334,-0.0533 -0.13334,-0.13334 V 76.190812 c 0,-0.08 0.0533,-0.13333 0.13334,-0.13333 h 38.73333 c 0.08,0 0.13333,0.0533 0.13333,0.13333 z"
     style="fill:none;stroke:#000000;stroke-width:2;stroke-linecap:butt;stroke-linejoin:round;stroke-miterlimit:10;stroke-dasharray:none;stroke-opacity:1"
     id="path132" /><path
     inkscape:connector-curvature="0"
     d="m 698.79153,105.92415 c 0,0.08 -0.0533,0.13334 -0.13333,0.13334 h -38.73333 c -0.08,0 -0.13334,-0.0533 -0.13334,-0.13334 V 76.190812 c 0,-0.08 0.0533,-0.13333 0.13334,-0.13333 h 38.73333 c 0.08,0 0.13333,0.0533 0.13333,0.13333 z"
     style="fill:#ffff00;fill-opacity:1;fill-rule:evenodd;stroke:none;stroke-width:1.33333325"
     id="path134" /><path
     inkscape:connector-curvature="0"
     d="m 698.79153,105.92415 c 0,0.08 -0.0533,0.13334 -0.13333,0.13334 h -38.73333 c -0.08,0 -0.13334,-0.0533 -0.13334,-0.13334 V 76.190812 c 0,-0.08 0.0533,-0.13333 0.13334,-0.13333 h 38.73333 c 0.08,0 0.13333,0.0533 0.13333,0.13333 z"
     style="fill:none;stroke:#000000;stroke-width:2;stroke-linecap:butt;stroke-linejoin:round;stroke-miterlimit:10;stroke-dasharray:none;stroke-opacity:1"
     id="path136" /><path
     inkscape:connector-curvature="0"
     d="m 735.79153,105.92415 c 0,0.08 -0.0533,0.13334 -0.13333,0.13334 h -38.73333 c -0.08,0 -0.13334,-0.0533 -0.13334,-0.13334 V 76.190812 c 0,-0.08 0.0533,-0.13333 0.13334,-0.13333 h 38.73333 c 0.08,0 0.13333,0.0533 0.13333,0.13333 z"
     style="fill:#808080;fill-opacity:1;fill-rule:evenodd;stroke:none;stroke-width:1.33333325"
     id="path138" /><path
     inkscape:connector-curvature="0"
     d="m 735.79153,105.92415 c 0,0.08 -0.0533,0.13334 -0.13333,0.13334 h -38.73333 c -0.08,0 -0.13334,-0.0533 -0.13334,-0.13334 V 76.190812 c 0,-0.08 0.0533,-0.13333 0.13334,-0.13333 h 38.73333 c 0.08,0 0.13333,0.0533 0.13333,0.13333 z"
     style="fill:none;stroke:#000000;stroke-width:2;stroke-linecap:butt;stroke-linejoin:round;stroke-miterlimit:10;stroke-dasharray:none;stroke-opacity:1"
     id="path140" /><path
     inkscape:connector-curvature="0"
     d="m 772.79153,105.92415 c 0,0.08 -0.0533,0.13334 -0.13333,0.13334 h -38.73334 c -0.08,0 -0.13333,-0.0533 -0.13333,-0.13334 V 76.190812 c 0,-0.08 0.0533,-0.13333 0.13333,-0.13333 h 38.73334 c 0.08,0 0.13333,0.0533 0.13333,0.13333 z"
     style="fill:#808080;fill-opacity:1;fill-rule:evenodd;stroke:none;stroke-width:1.33333325"
     id="path142" /><path
     inkscape:connector-curvature="0"
     d="m 772.79153,105.92415 c 0,0.08 -0.0533,0.13334 -0.13333,0.13334 h -38.73334 c -0.08,0 -0.13333,-0.0533 -0.13333,-0.13334 V 76.190812 c 0,-0.08 0.0533,-0.13333 0.13333,-0.13333 h 38.73334 c 0.08,0 0.13333,0.0533 0.13333,0.13333 z"
     style="fill:none;stroke:#000000;stroke-width:2;stroke-linecap:butt;stroke-linejoin:round;stroke-miterlimit:10;stroke-dasharray:none;stroke-opacity:1"
     id="path144" /><path
     inkscape:connector-curvature="0"
     d="m 811.79153,105.92415 c 0,0.08 -0.0533,0.13334 -0.13333,0.13334 h -38.73334 c -0.08,0 -0.13333,-0.0533 -0.13333,-0.13334 V 76.190812 c 0,-0.08 0.0533,-0.13333 0.13333,-0.13333 h 38.73334 c 0.08,0 0.13333,0.0533 0.13333,0.13333 z"
     style="fill:#ffff00;fill-opacity:1;fill-rule:evenodd;stroke:none;stroke-width:1.33333325"
     id="path146" /><path
     inkscape:connector-curvature="0"
     d="m 811.79153,105.92415 c 0,0.08 -0.0533,0.13334 -0.13333,0.13334 h -38.73334 c -0.08,0 -0.13333,-0.0533 -0.13333,-0.13334 V 76.190812 c 0,-0.08 0.0533,-0.13333 0.13333,-0.13333 h 38.73334 c 0.08,0 0.13333,0.0533 0.13333,0.13333 z"
     style="fill:none;stroke:#000000;stroke-width:2;stroke-linecap:butt;stroke-linejoin:round;stroke-miterlimit:10;stroke-dasharray:none;stroke-opacity:1"
     id="path148" /><path
     inkscape:connector-curvature="0"
     d="m 848.79153,105.92415 c 0,0.08 -0.0533,0.13334 -0.13333,0.13334 h -38.73334 c -0.08,0 -0.13333,-0.0533 -0.13333,-0.13334 V 76.190812 c 0,-0.08 0.0533,-0.13333 0.13333,-0.13333 h 38.73334 c 0.08,0 0.13333,0.0533 0.13333,0.13333 z"
     style="fill:#ffff00;fill-opacity:1;fill-rule:evenodd;stroke:none;stroke-width:1.33333325"
     id="path150" /><path
     inkscape:connector-curvature="0"
     d="m 848.79153,105.92415 c 0,0.08 -0.0533,0.13334 -0.13333,0.13334 h -38.73334 c -0.08,0 -0.13333,-0.0533 -0.13333,-0.13334 V 76.190812 c 0,-0.08 0.0533,-0.13333 0.13333,-0.13333 h 38.73334 c 0.08,0 0.13333,0.0533 0.13333,0.13333 z"
     style="fill:none;stroke:#000000;stroke-width:2;stroke-linecap:butt;stroke-linejoin:round;stroke-miterlimit:10;stroke-dasharray:none;stroke-opacity:1"
     id="path152" /><path
     inkscape:connector-curvature="0"
     d="m 885.79153,105.92415 c 0,0.08 -0.0533,0.13334 -0.13334,0.13334 h -38.73333 c -0.08,0 -0.13333,-0.0533 -0.13333,-0.13334 V 76.190812 c 0,-0.08 0.0533,-0.13333 0.13333,-0.13333 h 38.73333 c 0.08,0 0.13334,0.0533 0.13334,0.13333 z"
     style="fill:#808080;fill-opacity:1;fill-rule:evenodd;stroke:none;stroke-width:1.33333325"
     id="path154" /><path
     inkscape:connector-curvature="0"
     d="m 885.79153,105.92415 c 0,0.08 -0.0533,0.13334 -0.13334,0.13334 h -38.73333 c -0.08,0 -0.13333,-0.0533 -0.13333,-0.13334 V 76.190812 c 0,-0.08 0.0533,-0.13333 0.13333,-0.13333 h 38.73333 c 0.08,0 0.13334,0.0533 0.13334,0.13333 z"
     style="fill:none;stroke:#000000;stroke-width:2;stroke-linecap:butt;stroke-linejoin:round;stroke-miterlimit:10;stroke-dasharray:none;stroke-opacity:1"
     id="path156" /><path
     inkscape:connector-curvature="0"
     d="m 922.79153,105.92415 c 0,0.08 -0.0533,0.13334 -0.13334,0.13334 h -38.73333 c -0.08,0 -0.13333,-0.0533 -0.13333,-0.13334 V 76.190812 c 0,-0.08 0.0533,-0.13333 0.13333,-0.13333 h 38.73333 c 0.08,0 0.13334,0.0533 0.13334,0.13333 z"
     style="fill:#808080;fill-opacity:1;fill-rule:evenodd;stroke:none;stroke-width:1.33333325"
     id="path158" /><path
     inkscape:connector-curvature="0"
     d="m 922.79153,105.92415 c 0,0.08 -0.0533,0.13334 -0.13334,0.13334 h -38.73333 c -0.08,0 -0.13333,-0.0533 -0.13333,-0.13334 V 76.190812 c 0,-0.08 0.0533,-0.13333 0.13333,-0.13333 h 38.73333 c 0.08,0 0.13334,0.0533 0.13334,0.13333 z"
     style="fill:none;stroke:#000000;stroke-width:2;stroke-linecap:butt;stroke-linejoin:round;stroke-miterlimit:10;stroke-dasharray:none;stroke-opacity:1"
     id="path160" /><path
     inkscape:connector-curvature="0"
     d="m 245.79154,85.057482 h 52 v 6 h -52 z m 49,-6 18,9 -18,9.000005 z"
     style="fill:#000000;fill-opacity:1;fill-rule:nonzero;stroke:none;stroke-width:1.33333325"
     id="path174" /><text
     xml:space="preserve"
     style="font-style:normal;font-variant:normal;font-weight:normal;font-stretch:normal;font-size:24px;line-height:1.25;font-family:'Noto Sans';-inkscape-font-specification:'Noto Sans, Normal';font-variant-ligatures:normal;font-variant-caps:normal;font-variant-numeric:normal;font-feature-settings:normal;text-align:start;letter-spacing:0px;word-spacing:0px;writing-mode:lr-tb;text-anchor:start;fill:#000000;fill-opacity:1;stroke:none"
     x="-2.3280001"
     y="18.360001"
     id="text7461"><tspan
       sodipodi:role="line"
       id="tspan7459"
       x="-2.3280001"
       y="18.360001">Decomposition for a 2D array</tspan></text>
<text
     xml:space="preserve"
     style="font-style:normal;font-variant:normal;font-weight:normal;font-stretch:normal;font-size:24px;line-height:1.25;font-family:'Noto Sans';-inkscape-font-specification:'Noto Sans, Normal';font-variant-ligatures:normal;font-variant-caps:normal;font-variant-numeric:normal;font-feature-settings:normal;text-align:start;letter-spacing:0px;word-spacing:0px;writing-mode:lr-tb;text-anchor:start;fill:#000000;fill-opacity:1;stroke:none"
     x="591.36951"
     y="56.175129"
     id="text7465"><tspan
       sodipodi:role="line"
       id="tspan7463"
       x="591.36951"
       y="56.175129">File</tspan></text>
</svg>