<?xml version="1.0" encoding="UTF-8" standalone="no"?>
<svg
   xmlns:dc="http://purl.org/dc/elements/1.1/"
   xmlns:cc="http://creativecommons.org/ns#"
   xmlns:rdf="http://www.w3.org/1999/02/22-rdf-syntax-ns#"
   xmlns:svg="http://www.w3.org/2000/svg"
   xmlns="http://www.w3.org/2000/svg"
   xmlns:sodipodi="http://sodipodi.sourceforge.net/DTD/sodipodi-0.dtd"
   xmlns:inkscape="http://www.inkscape.org/namespaces/inkscape"
   viewBox="0 0 916.03546 165.66798"
   height="165.66798"
   width="916.03546"
   xml:space="preserve"
   id="svg2"
   version="1.1"
   sodipodi:docname="io-subarray.svg"
   inkscape:version="0.92.2 (5c3e80d, 2017-08-06)"><sodipodi:namedview
     pagecolor="#ffffff"
     bordercolor="#666666"
     borderopacity="1"
     objecttolerance="10"
     gridtolerance="10"
     guidetolerance="10"
     inkscape:pageopacity="0"
     inkscape:pageshadow="2"
     inkscape:window-width="1366"
     inkscape:window-height="690"
     id="namedview24979"
     showgrid="false"
     inkscape:zoom="0.79333333"
     inkscape:cx="466.0355"
     inkscape:cy="80.00001"
     inkscape:window-x="0"
     inkscape:window-y="24"
     inkscape:window-maximized="1"
     inkscape:current-layer="svg2" /><metadata
     id="metadata8"><rdf:RDF><cc:Work
         rdf:about=""><dc:format>image/svg+xml</dc:format><dc:type
           rdf:resource="http://purl.org/dc/dcmitype/StillImage" /><dc:title></dc:title></cc:Work></rdf:RDF></metadata><defs
     id="defs6"><clipPath
       id="clipPath18"
       clipPathUnits="userSpaceOnUse"><path
         style="clip-rule:evenodd"
         id="path16"
         d="M 0,1.2207e-4 H 720 V 450.00012 H 0 Z"
         inkscape:connector-curvature="0" /></clipPath><clipPath
       id="clipPath92"
       clipPathUnits="userSpaceOnUse"><path
         style="clip-rule:evenodd"
         id="path90"
         d="M 1.0729e-5,0 H 720.00001 V 450 H 1.0729e-5 Z"
         inkscape:connector-curvature="0" /></clipPath><clipPath
       id="clipPath168"
       clipPathUnits="userSpaceOnUse"><path
         style="clip-rule:evenodd"
         id="path166"
         d="M 1.0729e-5,0 H 720.00001 V 450 H 1.0729e-5 Z"
         inkscape:connector-curvature="0" /></clipPath></defs><path
     inkscape:connector-curvature="0"
     d="m 38.035497,32.787985 c 0,-0.0667 0.056,-0.12 0.125333,-0.12 h 47.749332 c 0.06933,0 0.125334,0.0533 0.125334,0.12 v 35.76 c 0,0.0667 -0.056,0.12 -0.125334,0.12 H 38.16083 c -0.06933,0 -0.125333,-0.0533 -0.125333,-0.12 z"
     style="fill:#99ccff;fill-opacity:1;fill-rule:evenodd;stroke:none;stroke-width:1.33333325"
     id="path22" /><path
     inkscape:connector-curvature="0"
     d="m 38.035497,32.787985 c 0,-0.0667 0.056,-0.12 0.125333,-0.12 h 47.749332 c 0.06933,0 0.125334,0.0533 0.125334,0.12 v 35.76 c 0,0.0667 -0.056,0.12 -0.125334,0.12 H 38.16083 c -0.06933,0 -0.125333,-0.0533 -0.125333,-0.12 z"
     style="fill:none;stroke:#000000;stroke-width:2;stroke-linecap:butt;stroke-linejoin:round;stroke-miterlimit:10;stroke-dasharray:none;stroke-opacity:1"
     id="path24" /><path
     inkscape:connector-curvature="0"
     d="m 84.035496,32.787985 c 0,-0.0667 0.056,-0.12 0.125333,-0.12 H 131.9155 c 0.0667,0 0.12,0.0533 0.12,0.12 v 35.76 c 0,0.0667 -0.0533,0.12 -0.12,0.12 H 84.160829 c -0.06933,0 -0.125333,-0.0533 -0.125333,-0.12 z"
     style="fill:#99ccff;fill-opacity:1;fill-rule:evenodd;stroke:none;stroke-width:1.33333325"
     id="path26" /><path
     inkscape:connector-curvature="0"
     d="m 84.035496,32.787985 c 0,-0.0667 0.056,-0.12 0.125333,-0.12 H 131.9155 c 0.0667,0 0.12,0.0533 0.12,0.12 v 35.76 c 0,0.0667 -0.0533,0.12 -0.12,0.12 H 84.160829 c -0.06933,0 -0.125333,-0.0533 -0.125333,-0.12 z"
     style="fill:none;stroke:#000000;stroke-width:2;stroke-linecap:butt;stroke-linejoin:round;stroke-miterlimit:10;stroke-dasharray:none;stroke-opacity:1"
     id="path28" /><path
     inkscape:connector-curvature="0"
     d="m 129.0355,32.787985 c 0,-0.0667 0.0533,-0.12 0.12,-0.12 h 47.76 c 0.0667,0 0.12,0.0533 0.12,0.12 v 35.76 c 0,0.0667 -0.0533,0.12 -0.12,0.12 h -47.76 c -0.0667,0 -0.12,-0.0533 -0.12,-0.12 z"
     style="fill:#ff0000;fill-opacity:1;fill-rule:evenodd;stroke:none;stroke-width:1.33333325"
     id="path30" /><path
     inkscape:connector-curvature="0"
     d="m 129.0355,32.787985 c 0,-0.0667 0.0533,-0.12 0.12,-0.12 h 47.76 c 0.0667,0 0.12,0.0533 0.12,0.12 v 35.76 c 0,0.0667 -0.0533,0.12 -0.12,0.12 h -47.76 c -0.0667,0 -0.12,-0.0533 -0.12,-0.12 z"
     style="fill:none;stroke:#000000;stroke-width:2;stroke-linecap:butt;stroke-linejoin:round;stroke-miterlimit:10;stroke-dasharray:none;stroke-opacity:1"
     id="path32" /><path
     inkscape:connector-curvature="0"
     d="m 175.0355,32.787985 c 0,-0.0667 0.0533,-0.12 0.12,-0.12 h 47.75999 c 0.0667,0 0.12,0.0533 0.12,0.12 v 35.76 c 0,0.0667 -0.0533,0.12 -0.12,0.12 H 175.1555 c -0.0667,0 -0.12,-0.0533 -0.12,-0.12 z"
     style="fill:#ff0000;fill-opacity:1;fill-rule:evenodd;stroke:none;stroke-width:1.33333325"
     id="path34" /><path
     inkscape:connector-curvature="0"
     d="m 175.0355,32.787985 c 0,-0.0667 0.0533,-0.12 0.12,-0.12 h 47.75999 c 0.0667,0 0.12,0.0533 0.12,0.12 v 35.76 c 0,0.0667 -0.0533,0.12 -0.12,0.12 H 175.1555 c -0.0667,0 -0.12,-0.0533 -0.12,-0.12 z"
     style="fill:none;stroke:#000000;stroke-width:2;stroke-linecap:butt;stroke-linejoin:round;stroke-miterlimit:10;stroke-dasharray:none;stroke-opacity:1"
     id="path36" /><path
     inkscape:connector-curvature="0"
     d="m 38.035497,66.787985 c 0,-0.0667 0.056,-0.12 0.125333,-0.12 h 47.749332 c 0.06933,0 0.125334,0.0533 0.125334,0.12 v 35.760005 c 0,0.0667 -0.056,0.12 -0.125334,0.12 H 38.16083 c -0.06933,0 -0.125333,-0.0533 -0.125333,-0.12 z"
     style="fill:#99ccff;fill-opacity:1;fill-rule:evenodd;stroke:none;stroke-width:1.33333325"
     id="path38" /><path
     inkscape:connector-curvature="0"
     d="m 38.035497,66.787985 c 0,-0.0667 0.056,-0.12 0.125333,-0.12 h 47.749332 c 0.06933,0 0.125334,0.0533 0.125334,0.12 v 35.760005 c 0,0.0667 -0.056,0.12 -0.125334,0.12 H 38.16083 c -0.06933,0 -0.125333,-0.0533 -0.125333,-0.12 z"
     style="fill:none;stroke:#000000;stroke-width:2;stroke-linecap:butt;stroke-linejoin:round;stroke-miterlimit:10;stroke-dasharray:none;stroke-opacity:1"
     id="path40" /><path
     inkscape:connector-curvature="0"
     d="m 84.035496,66.787985 c 0,-0.0667 0.056,-0.12 0.125333,-0.12 H 131.9155 c 0.0667,0 0.12,0.0533 0.12,0.12 v 35.760005 c 0,0.0667 -0.0533,0.12 -0.12,0.12 H 84.160829 c -0.06933,0 -0.125333,-0.0533 -0.125333,-0.12 z"
     style="fill:#99ccff;fill-opacity:1;fill-rule:evenodd;stroke:none;stroke-width:1.33333325"
     id="path42" /><path
     inkscape:connector-curvature="0"
     d="m 84.035496,66.787985 c 0,-0.0667 0.056,-0.12 0.125333,-0.12 H 131.9155 c 0.0667,0 0.12,0.0533 0.12,0.12 v 35.760005 c 0,0.0667 -0.0533,0.12 -0.12,0.12 H 84.160829 c -0.06933,0 -0.125333,-0.0533 -0.125333,-0.12 z"
     style="fill:none;stroke:#000000;stroke-width:2;stroke-linecap:butt;stroke-linejoin:round;stroke-miterlimit:10;stroke-dasharray:none;stroke-opacity:1"
     id="path44" /><path
     inkscape:connector-curvature="0"
     d="m 129.0355,66.787985 c 0,-0.0667 0.0533,-0.12 0.12,-0.12 h 47.76 c 0.0667,0 0.12,0.0533 0.12,0.12 v 35.760005 c 0,0.0667 -0.0533,0.12 -0.12,0.12 h -47.76 c -0.0667,0 -0.12,-0.0533 -0.12,-0.12 z"
     style="fill:#ff0000;fill-opacity:1;fill-rule:evenodd;stroke:none;stroke-width:1.33333325"
     id="path46" /><path
     inkscape:connector-curvature="0"
     d="m 129.0355,66.787985 c 0,-0.0667 0.0533,-0.12 0.12,-0.12 h 47.76 c 0.0667,0 0.12,0.0533 0.12,0.12 v 35.760005 c 0,0.0667 -0.0533,0.12 -0.12,0.12 h -47.76 c -0.0667,0 -0.12,-0.0533 -0.12,-0.12 z"
     style="fill:none;stroke:#000000;stroke-width:2;stroke-linecap:butt;stroke-linejoin:round;stroke-miterlimit:10;stroke-dasharray:none;stroke-opacity:1"
     id="path48" /><path
     inkscape:connector-curvature="0"
     d="m 175.0355,66.787985 c 0,-0.0667 0.0533,-0.12 0.12,-0.12 h 47.75999 c 0.0667,0 0.12,0.0533 0.12,0.12 v 35.760005 c 0,0.0667 -0.0533,0.12 -0.12,0.12 H 175.1555 c -0.0667,0 -0.12,-0.0533 -0.12,-0.12 z"
     style="fill:#ff0000;fill-opacity:1;fill-rule:evenodd;stroke:none;stroke-width:1.33333325"
     id="path50" /><path
     inkscape:connector-curvature="0"
     d="m 175.0355,66.787985 c 0,-0.0667 0.0533,-0.12 0.12,-0.12 h 47.75999 c 0.0667,0 0.12,0.0533 0.12,0.12 v 35.760005 c 0,0.0667 -0.0533,0.12 -0.12,0.12 H 175.1555 c -0.0667,0 -0.12,-0.0533 -0.12,-0.12 z"
     style="fill:none;stroke:#000000;stroke-width:2;stroke-linecap:butt;stroke-linejoin:round;stroke-miterlimit:10;stroke-dasharray:none;stroke-opacity:1"
     id="path52" /><path
     inkscape:connector-curvature="0"
     d="m 38.035497,100.78799 c 0,-0.0667 0.056,-0.12 0.125333,-0.12 h 47.749332 c 0.06933,0 0.125334,0.0533 0.125334,0.12 v 35.76 c 0,0.0667 -0.056,0.12 -0.125334,0.12 H 38.16083 c -0.06933,0 -0.125333,-0.0533 -0.125333,-0.12 z"
     style="fill:#ffff00;fill-opacity:1;fill-rule:evenodd;stroke:none;stroke-width:1.33333325"
     id="path54" /><path
     inkscape:connector-curvature="0"
     d="m 38.035497,100.78799 c 0,-0.0667 0.056,-0.12 0.125333,-0.12 h 47.749332 c 0.06933,0 0.125334,0.0533 0.125334,0.12 v 35.76 c 0,0.0667 -0.056,0.12 -0.125334,0.12 H 38.16083 c -0.06933,0 -0.125333,-0.0533 -0.125333,-0.12 z"
     style="fill:none;stroke:#000000;stroke-width:2;stroke-linecap:butt;stroke-linejoin:round;stroke-miterlimit:10;stroke-dasharray:none;stroke-opacity:1"
     id="path56" /><path
     inkscape:connector-curvature="0"
     d="m 84.035496,100.78799 c 0,-0.0667 0.056,-0.12 0.125333,-0.12 H 131.9155 c 0.0667,0 0.12,0.0533 0.12,0.12 v 35.76 c 0,0.0667 -0.0533,0.12 -0.12,0.12 H 84.160829 c -0.06933,0 -0.125333,-0.0533 -0.125333,-0.12 z"
     style="fill:#ffff00;fill-opacity:1;fill-rule:evenodd;stroke:none;stroke-width:1.33333325"
     id="path58" /><path
     inkscape:connector-curvature="0"
     d="m 84.035496,100.78799 c 0,-0.0667 0.056,-0.12 0.125333,-0.12 H 131.9155 c 0.0667,0 0.12,0.0533 0.12,0.12 v 35.76 c 0,0.0667 -0.0533,0.12 -0.12,0.12 H 84.160829 c -0.06933,0 -0.125333,-0.0533 -0.125333,-0.12 z"
     style="fill:none;stroke:#000000;stroke-width:2;stroke-linecap:butt;stroke-linejoin:round;stroke-miterlimit:10;stroke-dasharray:none;stroke-opacity:1"
     id="path60" /><path
     inkscape:connector-curvature="0"
     d="m 129.0355,100.78799 c 0,-0.0667 0.0533,-0.12 0.12,-0.12 h 47.76 c 0.0667,0 0.12,0.0533 0.12,0.12 v 35.76 c 0,0.0667 -0.0533,0.12 -0.12,0.12 h -47.76 c -0.0667,0 -0.12,-0.0533 -0.12,-0.12 z"
     style="fill:#808080;fill-opacity:1;fill-rule:evenodd;stroke:none;stroke-width:1.33333325"
     id="path62" /><path
     inkscape:connector-curvature="0"
     d="m 129.0355,100.78799 c 0,-0.0667 0.0533,-0.12 0.12,-0.12 h 47.76 c 0.0667,0 0.12,0.0533 0.12,0.12 v 35.76 c 0,0.0667 -0.0533,0.12 -0.12,0.12 h -47.76 c -0.0667,0 -0.12,-0.0533 -0.12,-0.12 z"
     style="fill:none;stroke:#000000;stroke-width:2;stroke-linecap:butt;stroke-linejoin:round;stroke-miterlimit:10;stroke-dasharray:none;stroke-opacity:1"
     id="path64" /><path
     inkscape:connector-curvature="0"
     d="m 175.0355,100.78799 c 0,-0.0667 0.0533,-0.12 0.12,-0.12 h 47.75999 c 0.0667,0 0.12,0.0533 0.12,0.12 v 35.76 c 0,0.0667 -0.0533,0.12 -0.12,0.12 H 175.1555 c -0.0667,0 -0.12,-0.0533 -0.12,-0.12 z"
     style="fill:#808080;fill-opacity:1;fill-rule:evenodd;stroke:none;stroke-width:1.33333325"
     id="path66" /><path
     inkscape:connector-curvature="0"
     d="m 175.0355,100.78799 c 0,-0.0667 0.0533,-0.12 0.12,-0.12 h 47.75999 c 0.0667,0 0.12,0.0533 0.12,0.12 v 35.76 c 0,0.0667 -0.0533,0.12 -0.12,0.12 H 175.1555 c -0.0667,0 -0.12,-0.0533 -0.12,-0.12 z"
     style="fill:none;stroke:#000000;stroke-width:2;stroke-linecap:butt;stroke-linejoin:round;stroke-miterlimit:10;stroke-dasharray:none;stroke-opacity:1"
     id="path68" /><path
     inkscape:connector-curvature="0"
     d="m 38.035497,128.78799 c 0,-0.0667 0.056,-0.12 0.125333,-0.12 h 47.749332 c 0.06933,0 0.125334,0.0533 0.125334,0.12 v 35.76 c 0,0.0667 -0.056,0.12 -0.125334,0.12 H 38.16083 c -0.06933,0 -0.125333,-0.0533 -0.125333,-0.12 z"
     style="fill:#ffff00;fill-opacity:1;fill-rule:evenodd;stroke:none;stroke-width:1.33333325"
     id="path70" /><path
     inkscape:connector-curvature="0"
     d="m 38.035497,128.78799 c 0,-0.0667 0.056,-0.12 0.125333,-0.12 h 47.749332 c 0.06933,0 0.125334,0.0533 0.125334,0.12 v 35.76 c 0,0.0667 -0.056,0.12 -0.125334,0.12 H 38.16083 c -0.06933,0 -0.125333,-0.0533 -0.125333,-0.12 z"
     style="fill:none;stroke:#000000;stroke-width:2;stroke-linecap:butt;stroke-linejoin:round;stroke-miterlimit:10;stroke-dasharray:none;stroke-opacity:1"
     id="path72" /><path
     inkscape:connector-curvature="0"
     d="m 84.035496,128.78799 c 0,-0.0667 0.056,-0.12 0.125333,-0.12 H 131.9155 c 0.0667,0 0.12,0.0533 0.12,0.12 v 35.76 c 0,0.0667 -0.0533,0.12 -0.12,0.12 H 84.160829 c -0.06933,0 -0.125333,-0.0533 -0.125333,-0.12 z"
     style="fill:#ffff00;fill-opacity:1;fill-rule:evenodd;stroke:none;stroke-width:1.33333325"
     id="path74" /><path
     inkscape:connector-curvature="0"
     d="m 84.035496,128.78799 c 0,-0.0667 0.056,-0.12 0.125333,-0.12 H 131.9155 c 0.0667,0 0.12,0.0533 0.12,0.12 v 35.76 c 0,0.0667 -0.0533,0.12 -0.12,0.12 H 84.160829 c -0.06933,0 -0.125333,-0.0533 -0.125333,-0.12 z"
     style="fill:none;stroke:#000000;stroke-width:2;stroke-linecap:butt;stroke-linejoin:round;stroke-miterlimit:10;stroke-dasharray:none;stroke-opacity:1"
     id="path76" /><path
     inkscape:connector-curvature="0"
     d="m 129.0355,128.78799 c 0,-0.0667 0.0533,-0.12 0.12,-0.12 h 47.76 c 0.0667,0 0.12,0.0533 0.12,0.12 v 35.76 c 0,0.0667 -0.0533,0.12 -0.12,0.12 h -47.76 c -0.0667,0 -0.12,-0.0533 -0.12,-0.12 z"
     style="fill:#808080;fill-opacity:1;fill-rule:evenodd;stroke:none;stroke-width:1.33333325"
     id="path78" /><path
     inkscape:connector-curvature="0"
     d="m 129.0355,128.78799 c 0,-0.0667 0.0533,-0.12 0.12,-0.12 h 47.76 c 0.0667,0 0.12,0.0533 0.12,0.12 v 35.76 c 0,0.0667 -0.0533,0.12 -0.12,0.12 h -47.76 c -0.0667,0 -0.12,-0.0533 -0.12,-0.12 z"
     style="fill:none;stroke:#000000;stroke-width:2;stroke-linecap:butt;stroke-linejoin:round;stroke-miterlimit:10;stroke-dasharray:none;stroke-opacity:1"
     id="path80" /><path
     inkscape:connector-curvature="0"
     d="m 175.0355,128.78799 c 0,-0.0667 0.0533,-0.12 0.12,-0.12 h 47.75999 c 0.0667,0 0.12,0.0533 0.12,0.12 v 35.76 c 0,0.0667 -0.0533,0.12 -0.12,0.12 H 175.1555 c -0.0667,0 -0.12,-0.0533 -0.12,-0.12 z"
     style="fill:#808080;fill-opacity:1;fill-rule:evenodd;stroke:none;stroke-width:1.33333325"
     id="path82" /><path
     inkscape:connector-curvature="0"
     d="m 175.0355,128.78799 c 0,-0.0667 0.0533,-0.12 0.12,-0.12 h 47.75999 c 0.0667,0 0.12,0.0533 0.12,0.12 v 35.76 c 0,0.0667 -0.0533,0.12 -0.12,0.12 H 175.1555 c -0.0667,0 -0.12,-0.0533 -0.12,-0.12 z"
     style="fill:none;stroke:#000000;stroke-width:2;stroke-linecap:butt;stroke-linejoin:round;stroke-miterlimit:10;stroke-dasharray:none;stroke-opacity:1"
     id="path84" /><g
     id="g86"
     transform="matrix(1.3333333,0,0,-1.3333333,-13.964502,385.66798)"><g
       id="g88"
       clip-path="url(#clipPath92)"><text
         transform="matrix(1,0,0,-1,9.25,276.85)"
         style="font-variant:normal;font-weight:normal;font-size:18.02499962px;font-family:Calibri;-inkscape-font-specification:Calibri;writing-mode:lr-tb;fill:#000000;fill-opacity:1;fill-rule:nonzero;stroke:none"
         id="text96"><tspan
           x="0 11.265625 20.242075 27.86665 37.564098 51.839901 61.591427 71.342949 78.120354 82.626602 88.664978 93.153198 102.90472 112.65625 114.9274 119.45168 129.2032 135.22356 139.7298 148.74229 152.50952 161.54005 172.80568 177.31192 186.32443 192.34477 198.36513 207.37762"
           y="0"
           id="tspan94">Decomposition for a 2D array</tspan></text>
</g></g><path
     inkscape:connector-curvature="0"
     d="m 357.03549,109.53465 c 0,0.08 -0.0533,0.13334 -0.13333,0.13334 h -38.73333 c -0.08,0 -0.13334,-0.0533 -0.13334,-0.13334 V 79.801315 c 0,-0.08 0.0533,-0.13333 0.13334,-0.13333 h 38.73333 c 0.08,0 0.13333,0.0533 0.13333,0.13333 z"
     style="fill:#99ccff;fill-opacity:1;fill-rule:evenodd;stroke:none;stroke-width:1.33333325"
     id="path98" /><path
     inkscape:connector-curvature="0"
     d="m 357.03549,109.53465 c 0,0.08 -0.0533,0.13334 -0.13333,0.13334 h -38.73333 c -0.08,0 -0.13334,-0.0533 -0.13334,-0.13334 V 79.801315 c 0,-0.08 0.0533,-0.13333 0.13334,-0.13333 h 38.73333 c 0.08,0 0.13333,0.0533 0.13333,0.13333 z"
     style="fill:none;stroke:#000000;stroke-width:2;stroke-linecap:butt;stroke-linejoin:round;stroke-miterlimit:10;stroke-dasharray:none;stroke-opacity:1"
     id="path100" /><path
     inkscape:connector-curvature="0"
     d="m 394.03549,109.53465 c 0,0.08 -0.0533,0.13334 -0.13333,0.13334 h -38.73334 c -0.08,0 -0.13333,-0.0533 -0.13333,-0.13334 V 79.801315 c 0,-0.08 0.0533,-0.13333 0.13333,-0.13333 h 38.73334 c 0.08,0 0.13333,0.0533 0.13333,0.13333 z"
     style="fill:#99ccff;fill-opacity:1;fill-rule:evenodd;stroke:none;stroke-width:1.33333325"
     id="path102" /><path
     inkscape:connector-curvature="0"
     d="m 394.03549,109.53465 c 0,0.08 -0.0533,0.13334 -0.13333,0.13334 h -38.73334 c -0.08,0 -0.13333,-0.0533 -0.13333,-0.13334 V 79.801315 c 0,-0.08 0.0533,-0.13333 0.13333,-0.13333 h 38.73334 c 0.08,0 0.13333,0.0533 0.13333,0.13333 z"
     style="fill:none;stroke:#000000;stroke-width:2;stroke-linecap:butt;stroke-linejoin:round;stroke-miterlimit:10;stroke-dasharray:none;stroke-opacity:1"
     id="path104" /><path
     inkscape:connector-curvature="0"
     d="m 431.03549,109.53465 c 0,0.08 -0.0533,0.13334 -0.13333,0.13334 h -38.73334 c -0.08,0 -0.13333,-0.0533 -0.13333,-0.13334 V 79.801315 c 0,-0.08 0.0533,-0.13333 0.13333,-0.13333 h 38.73334 c 0.08,0 0.13333,0.0533 0.13333,0.13333 z"
     style="fill:#ff0000;fill-opacity:1;fill-rule:evenodd;stroke:none;stroke-width:1.33333325"
     id="path106" /><path
     inkscape:connector-curvature="0"
     d="m 431.03549,109.53465 c 0,0.08 -0.0533,0.13334 -0.13333,0.13334 h -38.73334 c -0.08,0 -0.13333,-0.0533 -0.13333,-0.13334 V 79.801315 c 0,-0.08 0.0533,-0.13333 0.13333,-0.13333 h 38.73334 c 0.08,0 0.13333,0.0533 0.13333,0.13333 z"
     style="fill:none;stroke:#000000;stroke-width:2;stroke-linecap:butt;stroke-linejoin:round;stroke-miterlimit:10;stroke-dasharray:none;stroke-opacity:1"
     id="path108" /><path
     inkscape:connector-curvature="0"
     d="m 468.03549,109.53465 c 0,0.08 -0.0533,0.13334 -0.13334,0.13334 h -38.73333 c -0.08,0 -0.13333,-0.0533 -0.13333,-0.13334 V 79.801315 c 0,-0.08 0.0533,-0.13333 0.13333,-0.13333 h 38.73333 c 0.08,0 0.13334,0.0533 0.13334,0.13333 z"
     style="fill:#ff0000;fill-opacity:1;fill-rule:evenodd;stroke:none;stroke-width:1.33333325"
     id="path110" /><path
     inkscape:connector-curvature="0"
     d="m 468.03549,109.53465 c 0,0.08 -0.0533,0.13334 -0.13334,0.13334 h -38.73333 c -0.08,0 -0.13333,-0.0533 -0.13333,-0.13334 V 79.801315 c 0,-0.08 0.0533,-0.13333 0.13333,-0.13333 h 38.73333 c 0.08,0 0.13334,0.0533 0.13334,0.13333 z"
     style="fill:none;stroke:#000000;stroke-width:2;stroke-linecap:butt;stroke-linejoin:round;stroke-miterlimit:10;stroke-dasharray:none;stroke-opacity:1"
     id="path112" /><path
     inkscape:connector-curvature="0"
     d="m 506.03549,109.53465 c 0,0.08 -0.0533,0.13334 -0.13334,0.13334 h -39.73333 c -0.08,0 -0.13333,-0.0533 -0.13333,-0.13334 V 79.801315 c 0,-0.08 0.0533,-0.13333 0.13333,-0.13333 h 39.73333 c 0.08,0 0.13334,0.0533 0.13334,0.13333 z"
     style="fill:#99ccff;fill-opacity:1;fill-rule:evenodd;stroke:none;stroke-width:1.33333325"
     id="path114" /><path
     inkscape:connector-curvature="0"
     d="m 506.03549,109.53465 c 0,0.08 -0.0533,0.13334 -0.13334,0.13334 h -39.73333 c -0.08,0 -0.13333,-0.0533 -0.13333,-0.13334 V 79.801315 c 0,-0.08 0.0533,-0.13333 0.13333,-0.13333 h 39.73333 c 0.08,0 0.13334,0.0533 0.13334,0.13333 z"
     style="fill:none;stroke:#000000;stroke-width:2;stroke-linecap:butt;stroke-linejoin:round;stroke-miterlimit:10;stroke-dasharray:none;stroke-opacity:1"
     id="path116" /><path
     inkscape:connector-curvature="0"
     d="m 543.03549,109.53465 c 0,0.08 -0.0533,0.13334 -0.13334,0.13334 h -39.73333 c -0.08,0 -0.13333,-0.0533 -0.13333,-0.13334 V 79.801315 c 0,-0.08 0.0533,-0.13333 0.13333,-0.13333 h 39.73333 c 0.08,0 0.13334,0.0533 0.13334,0.13333 z"
     style="fill:#99ccff;fill-opacity:1;fill-rule:evenodd;stroke:none;stroke-width:1.33333325"
     id="path118" /><path
     inkscape:connector-curvature="0"
     d="m 543.03549,109.53465 c 0,0.08 -0.0533,0.13334 -0.13334,0.13334 h -39.73333 c -0.08,0 -0.13333,-0.0533 -0.13333,-0.13334 V 79.801315 c 0,-0.08 0.0533,-0.13333 0.13333,-0.13333 h 39.73333 c 0.08,0 0.13334,0.0533 0.13334,0.13333 z"
     style="fill:none;stroke:#000000;stroke-width:2;stroke-linecap:butt;stroke-linejoin:round;stroke-miterlimit:10;stroke-dasharray:none;stroke-opacity:1"
     id="path120" /><path
     inkscape:connector-curvature="0"
     d="m 580.03549,109.53465 c 0,0.08 -0.0533,0.13334 -0.13334,0.13334 h -39.73333 c -0.08,0 -0.13333,-0.0533 -0.13333,-0.13334 V 79.801315 c 0,-0.08 0.0533,-0.13333 0.13333,-0.13333 h 39.73333 c 0.08,0 0.13334,0.0533 0.13334,0.13333 z"
     style="fill:#ff0000;fill-opacity:1;fill-rule:evenodd;stroke:none;stroke-width:1.33333325"
     id="path122" /><path
     inkscape:connector-curvature="0"
     d="m 580.03549,109.53465 c 0,0.08 -0.0533,0.13334 -0.13334,0.13334 h -39.73333 c -0.08,0 -0.13333,-0.0533 -0.13333,-0.13334 V 79.801315 c 0,-0.08 0.0533,-0.13333 0.13333,-0.13333 h 39.73333 c 0.08,0 0.13334,0.0533 0.13334,0.13333 z"
     style="fill:none;stroke:#000000;stroke-width:2;stroke-linecap:butt;stroke-linejoin:round;stroke-miterlimit:10;stroke-dasharray:none;stroke-opacity:1"
     id="path124" /><path
     inkscape:connector-curvature="0"
     d="m 616.03548,109.53465 c 0,0.08 -0.0533,0.13334 -0.13333,0.13334 h -38.73333 c -0.08,0 -0.13333,-0.0533 -0.13333,-0.13334 V 79.801315 c 0,-0.08 0.0533,-0.13333 0.13333,-0.13333 h 38.73333 c 0.08,0 0.13333,0.0533 0.13333,0.13333 z"
     style="fill:#ff0000;fill-opacity:1;fill-rule:evenodd;stroke:none;stroke-width:1.33333325"
     id="path126" /><path
     inkscape:connector-curvature="0"
     d="m 616.03548,109.53465 c 0,0.08 -0.0533,0.13334 -0.13333,0.13334 h -38.73333 c -0.08,0 -0.13333,-0.0533 -0.13333,-0.13334 V 79.801315 c 0,-0.08 0.0533,-0.13333 0.13333,-0.13333 h 38.73333 c 0.08,0 0.13333,0.0533 0.13333,0.13333 z"
     style="fill:none;stroke:#000000;stroke-width:2;stroke-linecap:butt;stroke-linejoin:round;stroke-miterlimit:10;stroke-dasharray:none;stroke-opacity:1"
     id="path128" /><path
     inkscape:connector-curvature="0"
     d="m 654.03548,109.53465 c 0,0.08 -0.0533,0.13334 -0.13333,0.13334 h -38.73333 c -0.08,0 -0.13334,-0.0533 -0.13334,-0.13334 V 79.801315 c 0,-0.08 0.0533,-0.13333 0.13334,-0.13333 h 38.73333 c 0.08,0 0.13333,0.0533 0.13333,0.13333 z"
     style="fill:#ffff00;fill-opacity:1;fill-rule:evenodd;stroke:none;stroke-width:1.33333325"
     id="path130" /><path
     inkscape:connector-curvature="0"
     d="m 654.03548,109.53465 c 0,0.08 -0.0533,0.13334 -0.13333,0.13334 h -38.73333 c -0.08,0 -0.13334,-0.0533 -0.13334,-0.13334 V 79.801315 c 0,-0.08 0.0533,-0.13333 0.13334,-0.13333 h 38.73333 c 0.08,0 0.13333,0.0533 0.13333,0.13333 z"
     style="fill:none;stroke:#000000;stroke-width:2;stroke-linecap:butt;stroke-linejoin:round;stroke-miterlimit:10;stroke-dasharray:none;stroke-opacity:1"
     id="path132" /><path
     inkscape:connector-curvature="0"
     d="m 691.03548,109.53465 c 0,0.08 -0.0533,0.13334 -0.13333,0.13334 h -38.73333 c -0.08,0 -0.13334,-0.0533 -0.13334,-0.13334 V 79.801315 c 0,-0.08 0.0533,-0.13333 0.13334,-0.13333 h 38.73333 c 0.08,0 0.13333,0.0533 0.13333,0.13333 z"
     style="fill:#ffff00;fill-opacity:1;fill-rule:evenodd;stroke:none;stroke-width:1.33333325"
     id="path134" /><path
     inkscape:connector-curvature="0"
     d="m 691.03548,109.53465 c 0,0.08 -0.0533,0.13334 -0.13333,0.13334 h -38.73333 c -0.08,0 -0.13334,-0.0533 -0.13334,-0.13334 V 79.801315 c 0,-0.08 0.0533,-0.13333 0.13334,-0.13333 h 38.73333 c 0.08,0 0.13333,0.0533 0.13333,0.13333 z"
     style="fill:none;stroke:#000000;stroke-width:2;stroke-linecap:butt;stroke-linejoin:round;stroke-miterlimit:10;stroke-dasharray:none;stroke-opacity:1"
     id="path136" /><path
     inkscape:connector-curvature="0"
     d="m 728.03548,109.53465 c 0,0.08 -0.0533,0.13334 -0.13333,0.13334 h -38.73333 c -0.08,0 -0.13334,-0.0533 -0.13334,-0.13334 V 79.801315 c 0,-0.08 0.0533,-0.13333 0.13334,-0.13333 h 38.73333 c 0.08,0 0.13333,0.0533 0.13333,0.13333 z"
     style="fill:#808080;fill-opacity:1;fill-rule:evenodd;stroke:none;stroke-width:1.33333325"
     id="path138" /><path
     inkscape:connector-curvature="0"
     d="m 728.03548,109.53465 c 0,0.08 -0.0533,0.13334 -0.13333,0.13334 h -38.73333 c -0.08,0 -0.13334,-0.0533 -0.13334,-0.13334 V 79.801315 c 0,-0.08 0.0533,-0.13333 0.13334,-0.13333 h 38.73333 c 0.08,0 0.13333,0.0533 0.13333,0.13333 z"
     style="fill:none;stroke:#000000;stroke-width:2;stroke-linecap:butt;stroke-linejoin:round;stroke-miterlimit:10;stroke-dasharray:none;stroke-opacity:1"
     id="path140" /><path
     inkscape:connector-curvature="0"
     d="m 765.03548,109.53465 c 0,0.08 -0.0533,0.13334 -0.13333,0.13334 h -38.73334 c -0.08,0 -0.13333,-0.0533 -0.13333,-0.13334 V 79.801315 c 0,-0.08 0.0533,-0.13333 0.13333,-0.13333 h 38.73334 c 0.08,0 0.13333,0.0533 0.13333,0.13333 z"
     style="fill:#808080;fill-opacity:1;fill-rule:evenodd;stroke:none;stroke-width:1.33333325"
     id="path142" /><path
     inkscape:connector-curvature="0"
     d="m 765.03548,109.53465 c 0,0.08 -0.0533,0.13334 -0.13333,0.13334 h -38.73334 c -0.08,0 -0.13333,-0.0533 -0.13333,-0.13334 V 79.801315 c 0,-0.08 0.0533,-0.13333 0.13333,-0.13333 h 38.73334 c 0.08,0 0.13333,0.0533 0.13333,0.13333 z"
     style="fill:none;stroke:#000000;stroke-width:2;stroke-linecap:butt;stroke-linejoin:round;stroke-miterlimit:10;stroke-dasharray:none;stroke-opacity:1"
     id="path144" /><path
     inkscape:connector-curvature="0"
     d="m 804.03548,109.53465 c 0,0.08 -0.0533,0.13334 -0.13333,0.13334 h -38.73334 c -0.08,0 -0.13333,-0.0533 -0.13333,-0.13334 V 79.801315 c 0,-0.08 0.0533,-0.13333 0.13333,-0.13333 h 38.73334 c 0.08,0 0.13333,0.0533 0.13333,0.13333 z"
     style="fill:#ffff00;fill-opacity:1;fill-rule:evenodd;stroke:none;stroke-width:1.33333325"
     id="path146" /><path
     inkscape:connector-curvature="0"
     d="m 804.03548,109.53465 c 0,0.08 -0.0533,0.13334 -0.13333,0.13334 h -38.73334 c -0.08,0 -0.13333,-0.0533 -0.13333,-0.13334 V 79.801315 c 0,-0.08 0.0533,-0.13333 0.13333,-0.13333 h 38.73334 c 0.08,0 0.13333,0.0533 0.13333,0.13333 z"
     style="fill:none;stroke:#000000;stroke-width:2;stroke-linecap:butt;stroke-linejoin:round;stroke-miterlimit:10;stroke-dasharray:none;stroke-opacity:1"
     id="path148" /><path
     inkscape:connector-curvature="0"
     d="m 841.03548,109.53465 c 0,0.08 -0.0533,0.13334 -0.13333,0.13334 h -38.73334 c -0.08,0 -0.13333,-0.0533 -0.13333,-0.13334 V 79.801315 c 0,-0.08 0.0533,-0.13333 0.13333,-0.13333 h 38.73334 c 0.08,0 0.13333,0.0533 0.13333,0.13333 z"
     style="fill:#ffff00;fill-opacity:1;fill-rule:evenodd;stroke:none;stroke-width:1.33333325"
     id="path150" /><path
     inkscape:connector-curvature="0"
     d="m 841.03548,109.53465 c 0,0.08 -0.0533,0.13334 -0.13333,0.13334 h -38.73334 c -0.08,0 -0.13333,-0.0533 -0.13333,-0.13334 V 79.801315 c 0,-0.08 0.0533,-0.13333 0.13333,-0.13333 h 38.73334 c 0.08,0 0.13333,0.0533 0.13333,0.13333 z"
     style="fill:none;stroke:#000000;stroke-width:2;stroke-linecap:butt;stroke-linejoin:round;stroke-miterlimit:10;stroke-dasharray:none;stroke-opacity:1"
     id="path152" /><path
     inkscape:connector-curvature="0"
     d="m 878.03548,109.53465 c 0,0.08 -0.0533,0.13334 -0.13334,0.13334 h -38.73333 c -0.08,0 -0.13333,-0.0533 -0.13333,-0.13334 V 79.801315 c 0,-0.08 0.0533,-0.13333 0.13333,-0.13333 h 38.73333 c 0.08,0 0.13334,0.0533 0.13334,0.13333 z"
     style="fill:#808080;fill-opacity:1;fill-rule:evenodd;stroke:none;stroke-width:1.33333325"
     id="path154" /><path
     inkscape:connector-curvature="0"
     d="m 878.03548,109.53465 c 0,0.08 -0.0533,0.13334 -0.13334,0.13334 h -38.73333 c -0.08,0 -0.13333,-0.0533 -0.13333,-0.13334 V 79.801315 c 0,-0.08 0.0533,-0.13333 0.13333,-0.13333 h 38.73333 c 0.08,0 0.13334,0.0533 0.13334,0.13333 z"
     style="fill:none;stroke:#000000;stroke-width:2;stroke-linecap:butt;stroke-linejoin:round;stroke-miterlimit:10;stroke-dasharray:none;stroke-opacity:1"
     id="path156" /><path
     inkscape:connector-curvature="0"
     d="m 915.03548,109.53465 c 0,0.08 -0.0533,0.13334 -0.13334,0.13334 h -38.73333 c -0.08,0 -0.13333,-0.0533 -0.13333,-0.13334 V 79.801315 c 0,-0.08 0.0533,-0.13333 0.13333,-0.13333 h 38.73333 c 0.08,0 0.13334,0.0533 0.13334,0.13333 z"
     style="fill:#808080;fill-opacity:1;fill-rule:evenodd;stroke:none;stroke-width:1.33333325"
     id="path158" /><path
     inkscape:connector-curvature="0"
     d="m 915.03548,109.53465 c 0,0.08 -0.0533,0.13334 -0.13334,0.13334 h -38.73333 c -0.08,0 -0.13333,-0.0533 -0.13333,-0.13334 V 79.801315 c 0,-0.08 0.0533,-0.13333 0.13333,-0.13333 h 38.73333 c 0.08,0 0.13334,0.0533 0.13334,0.13333 z"
     style="fill:none;stroke:#000000;stroke-width:2;stroke-linecap:butt;stroke-linejoin:round;stroke-miterlimit:10;stroke-dasharray:none;stroke-opacity:1"
     id="path160" /><g
     id="g162"
     transform="matrix(1.3333333,0,0,-1.3333333,-13.964502,385.66798)"><g
       id="g164"
       clip-path="url(#clipPath168)"><text
         transform="matrix(1,0,0,-1,454.73,242.78)"
         style="font-variant:normal;font-weight:normal;font-size:18.02499962px;font-family:Calibri;-inkscape-font-specification:Calibri;writing-mode:lr-tb;fill:#000000;fill-opacity:1;fill-rule:nonzero;stroke:none"
         id="text172"><tspan
           x="0 8.2734747 12.72565 17.213875"
           y="0"
           id="tspan170">File</tspan></text>
</g></g><path
     inkscape:connector-curvature="0"
     d="m 238.03549,88.667985 h 52 v 6 h -52 z m 49,-6 18,9 -18,9.000005 z"
     style="fill:#000000;fill-opacity:1;fill-rule:nonzero;stroke:none;stroke-width:1.33333325"
     id="path174" /></svg>