<?xml version="1.0" encoding="UTF-8" standalone="no"?>
<svg
   xmlns:dc="http://purl.org/dc/elements/1.1/"
   xmlns:cc="http://creativecommons.org/ns#"
   xmlns:rdf="http://www.w3.org/1999/02/22-rdf-syntax-ns#"
   xmlns:svg="http://www.w3.org/2000/svg"
   xmlns="http://www.w3.org/2000/svg"
   xmlns:sodipodi="http://sodipodi.sourceforge.net/DTD/sodipodi-0.dtd"
   xmlns:inkscape="http://www.inkscape.org/namespaces/inkscape"
   viewBox="0 0 936.00665 371.99332"
   height="371.99332"
   width="936.00665"
   xml:space="preserve"
   id="svg2"
   version="1.1"
   sodipodi:docname="mpi-thread-support.svg"
   inkscape:version="0.92.2 (5c3e80d, 2017-08-06)"><sodipodi:namedview
     pagecolor="#ffffff"
     bordercolor="#666666"
     borderopacity="1"
     objecttolerance="10"
     gridtolerance="10"
     guidetolerance="10"
     inkscape:pageopacity="0"
     inkscape:pageshadow="2"
     inkscape:window-width="1366"
     inkscape:window-height="690"
     id="namedview152"
     showgrid="false"
     inkscape:zoom="0.79333333"
     inkscape:cx="473"
     inkscape:cy="211.99998"
     inkscape:window-x="0"
     inkscape:window-y="24"
     inkscape:window-maximized="1"
     inkscape:current-layer="svg2" /><metadata
     id="metadata8"><rdf:RDF><cc:Work
         rdf:about=""><dc:format>image/svg+xml</dc:format><dc:type
           rdf:resource="http://purl.org/dc/dcmitype/StillImage" /><dc:title></dc:title></cc:Work></rdf:RDF></metadata><defs
     id="defs6"><clipPath
       id="clipPath18"
       clipPathUnits="userSpaceOnUse"><path
         style="clip-rule:evenodd"
         id="path16"
         d="M 0,1.2207e-4 H 720 V 450.00012 H 0 Z"
         inkscape:connector-curvature="0" /></clipPath><clipPath
       id="clipPath32"
       clipPathUnits="userSpaceOnUse"><path
         style="clip-rule:evenodd"
         id="path30"
         d="M 1.0729e-5,0 H 720.00001 V 450 H 1.0729e-5 Z"
         inkscape:connector-curvature="0" /></clipPath><clipPath
       id="clipPath48"
       clipPathUnits="userSpaceOnUse"><path
         style="clip-rule:evenodd"
         id="path46"
         d="M 1.0729e-5,0 H 720.00001 V 450 H 1.0729e-5 Z"
         inkscape:connector-curvature="0" /></clipPath><clipPath
       id="clipPath64"
       clipPathUnits="userSpaceOnUse"><path
         style="clip-rule:evenodd"
         id="path62"
         d="M 1.0729e-5,0 H 720.00001 V 450 H 1.0729e-5 Z"
         inkscape:connector-curvature="0" /></clipPath><clipPath
       id="clipPath76"
       clipPathUnits="userSpaceOnUse"><path
         style="clip-rule:evenodd"
         id="path74"
         d="M 1.0729e-5,0 H 720.00001 V 450 H 1.0729e-5 Z"
         inkscape:connector-curvature="0" /></clipPath><clipPath
       id="clipPath92"
       clipPathUnits="userSpaceOnUse"><path
         style="clip-rule:evenodd"
         id="path90"
         d="M 1.0729e-5,0 H 720.00001 V 450 H 1.0729e-5 Z"
         inkscape:connector-curvature="0" /></clipPath><clipPath
       id="clipPath104"
       clipPathUnits="userSpaceOnUse"><path
         style="clip-rule:evenodd"
         id="path102"
         d="M 1.0729e-5,0 H 720.00001 V 450 H 1.0729e-5 Z"
         inkscape:connector-curvature="0" /></clipPath><clipPath
       id="clipPath116"
       clipPathUnits="userSpaceOnUse"><path
         style="clip-rule:evenodd"
         id="path114"
         d="M 1.0729e-5,0 H 720.00001 V 450 H 1.0729e-5 Z"
         inkscape:connector-curvature="0" /></clipPath><clipPath
       id="clipPath132"
       clipPathUnits="userSpaceOnUse"><path
         style="clip-rule:evenodd"
         id="path130"
         d="M 1.0729e-5,0 H 720.00001 V 450 H 1.0729e-5 Z"
         inkscape:connector-curvature="0" /></clipPath><clipPath
       id="clipPath144"
       clipPathUnits="userSpaceOnUse"><path
         style="clip-rule:evenodd"
         id="path142"
         d="M 1.0729e-5,0 H 720.00001 V 450 H 1.0729e-5 Z"
         inkscape:connector-curvature="0" /></clipPath><clipPath
       id="clipPath156"
       clipPathUnits="userSpaceOnUse"><path
         style="clip-rule:evenodd"
         id="path154"
         d="M 1.0729e-5,0 H 720.00001 V 450 H 1.0729e-5 Z"
         inkscape:connector-curvature="0" /></clipPath><clipPath
       id="clipPath174"
       clipPathUnits="userSpaceOnUse"><path
         style="clip-rule:evenodd"
         id="path172"
         d="M 1.0729e-5,0 H 720.00001 V 450 H 1.0729e-5 Z"
         inkscape:connector-curvature="0" /></clipPath><clipPath
       id="clipPath186"
       clipPathUnits="userSpaceOnUse"><path
         style="clip-rule:evenodd"
         id="path184"
         d="M 1.0729e-5,0 H 720.00001 V 450 H 1.0729e-5 Z"
         inkscape:connector-curvature="0" /></clipPath><clipPath
       id="clipPath198"
       clipPathUnits="userSpaceOnUse"><path
         style="clip-rule:evenodd"
         id="path196"
         d="M 1.0729e-5,0 H 720.00001 V 450 H 1.0729e-5 Z"
         inkscape:connector-curvature="0" /></clipPath><clipPath
       id="clipPath210"
       clipPathUnits="userSpaceOnUse"><path
         style="clip-rule:evenodd"
         id="path208"
         d="M 1.0729e-5,0 H 720.00001 V 450 H 1.0729e-5 Z"
         inkscape:connector-curvature="0" /></clipPath><clipPath
       id="clipPath228"
       clipPathUnits="userSpaceOnUse"><path
         style="clip-rule:evenodd"
         id="path226"
         d="M 1.0729e-5,0 H 720.00001 V 450 H 1.0729e-5 Z"
         inkscape:connector-curvature="0" /></clipPath><clipPath
       id="clipPath240"
       clipPathUnits="userSpaceOnUse"><path
         style="clip-rule:evenodd"
         id="path238"
         d="M 1.0729e-5,0 H 720.00001 V 450 H 1.0729e-5 Z"
         inkscape:connector-curvature="0" /></clipPath><clipPath
       id="clipPath252"
       clipPathUnits="userSpaceOnUse"><path
         style="clip-rule:evenodd"
         id="path250"
         d="M 1.0729e-5,0 H 720.00001 V 450 H 1.0729e-5 Z"
         inkscape:connector-curvature="0" /></clipPath><clipPath
       id="clipPath268"
       clipPathUnits="userSpaceOnUse"><path
         style="clip-rule:evenodd"
         id="path266"
         d="M 1.0729e-5,0 H 720.00001 V 450 H 1.0729e-5 Z"
         inkscape:connector-curvature="0" /></clipPath><clipPath
       id="clipPath280"
       clipPathUnits="userSpaceOnUse"><path
         style="clip-rule:evenodd"
         id="path278"
         d="M 1.0729e-5,0 H 720.00001 V 450 H 1.0729e-5 Z"
         inkscape:connector-curvature="0" /></clipPath><clipPath
       id="clipPath292"
       clipPathUnits="userSpaceOnUse"><path
         style="clip-rule:evenodd"
         id="path290"
         d="M 1.0729e-5,0 H 720.00001 V 450 H 1.0729e-5 Z"
         inkscape:connector-curvature="0" /></clipPath></defs><path
     inkscape:connector-curvature="0"
     d="M 72.499998,51.5 H 224.49999 V 9.5 H 72.499998 Z"
     style="fill:#ffffff;fill-opacity:1;fill-rule:evenodd;stroke:none;stroke-width:1.33333325"
     id="path22" /><path
     inkscape:connector-curvature="0"
     d="M 72.499998,51.5 H 224.49999 V 9.5 H 72.499998 Z"
     style="fill:none;stroke:#000000;stroke-width:3;stroke-linecap:butt;stroke-linejoin:round;stroke-miterlimit:10;stroke-dasharray:none;stroke-opacity:1"
     id="path24" /><g
     id="g26"
     transform="matrix(1.3333333,0,0,-1.3333333,-6.9999998,459.99332)"><g
       id="g28"
       clip-path="url(#clipPath32)"><text
         transform="matrix(1,0,0,-1,66.775,315.83)"
         style="font-variant:normal;font-weight:normal;font-size:20.27499962px;font-family:Calibri;-inkscape-font-specification:Calibri;writing-mode:lr-tb;fill:#000000;fill-opacity:1;fill-rule:nonzero;stroke:none"
         id="text36"><tspan
           x="0 17.254025 27.7362 32.987427 36.7383 47.240749 57.743198 62.244251"
           y="0"
           id="tspan34">MPI only</tspan></text>
</g></g><path
     inkscape:connector-curvature="0"
     d="m 586.50665,51.5 h 182 v -42 h -182 z"
     style="fill:#ffffff;fill-opacity:1;fill-rule:evenodd;stroke:none;stroke-width:1.33333325"
     id="path38" /><path
     inkscape:connector-curvature="0"
     d="m 586.50665,51.5 h 182 v -42 h -182 z"
     style="fill:none;stroke:#000000;stroke-width:3;stroke-linecap:butt;stroke-linejoin:round;stroke-miterlimit:10;stroke-dasharray:none;stroke-opacity:1"
     id="path40" /><g
     id="g42"
     transform="matrix(1.3333333,0,0,-1.3333333,-6.9999998,459.99332)"><g
       id="g44"
       clip-path="url(#clipPath48)"><text
         transform="matrix(1,0,0,-1,452.72,315.83)"
         style="font-variant:normal;font-weight:normal;font-size:20.27499962px;font-family:Calibri;-inkscape-font-specification:Calibri;writing-mode:lr-tb;fill:#000000;fill-opacity:1;fill-rule:nonzero;stroke:none"
         id="text52"><tspan
           x="0 13.482875 23.985325 33.737598 44.240051 61.494076 71.97625 76.497574 87.000023 97.502472 102.00352"
           y="0"
           id="tspan50">OpenMP only</tspan></text>
</g></g><path
     inkscape:connector-curvature="0"
     d="M 292.50666,76.5 H 481.50665 V 1.5 H 292.50666 Z"
     style="fill:#ffffff;fill-opacity:1;fill-rule:evenodd;stroke:none;stroke-width:1.33333325"
     id="path54" /><path
     inkscape:connector-curvature="0"
     d="M 292.50666,76.5 H 481.50665 V 1.5 H 292.50666 Z"
     style="fill:none;stroke:#000000;stroke-width:3;stroke-linecap:butt;stroke-linejoin:round;stroke-miterlimit:10;stroke-dasharray:none;stroke-opacity:1"
     id="path56" /><g
     id="g58"
     transform="matrix(1.3333333,0,0,-1.3333333,-6.9999998,459.99332)"><g
       id="g60"
       clip-path="url(#clipPath64)"><text
         transform="matrix(1,0,0,-1,231.35,321.5)"
         style="font-variant:normal;font-weight:normal;font-size:20.27499962px;font-family:Calibri;-inkscape-font-specification:Calibri;writing-mode:lr-tb;fill:#000000;fill-opacity:1;fill-rule:nonzero;stroke:none"
         id="text68"><tspan
           x="0 12.752975 21.775351 32.298077 39.069923 43.591251"
           y="0"
           id="tspan66">Hybrid</tspan></text>
</g></g><g
     id="g70"
     transform="matrix(1.3333333,0,0,-1.3333333,-6.9999998,459.99332)"><g
       id="g72"
       clip-path="url(#clipPath76)"><text
         transform="matrix(1,0,0,-1,231.35,297.48)"
         style="font-variant:normal;font-weight:normal;font-size:20.29999924px;font-family:Calibri;-inkscape-font-specification:Calibri;writing-mode:lr-tb;fill:#000000;fill-opacity:1;fill-rule:nonzero;stroke:none"
         id="text80"><tspan
           x="0 17.275299 27.770399 33.048401 36.8242 46.608799 51.866501 65.365997 75.881401 85.666 96.181396 113.4567"
           y="0"
           id="tspan78">MPI + OpenMP</tspan></text>
</g></g><path
     inkscape:connector-curvature="0"
     d="m 1.5,242.49999 h 256.99999 v -103 H 1.5 Z"
     style="fill:#ffffff;fill-opacity:1;fill-rule:evenodd;stroke:none;stroke-width:1.33333325"
     id="path82" /><path
     inkscape:connector-curvature="0"
     d="m 1.5,242.49999 h 256.99999 v -103 H 1.5 Z"
     style="fill:none;stroke:#000000;stroke-width:3;stroke-linecap:butt;stroke-linejoin:round;stroke-miterlimit:10;stroke-dasharray:none;stroke-opacity:1"
     id="path84" /><g
     id="g86"
     transform="matrix(1.3333333,0,0,-1.3333333,-6.9999998,459.99332)"><g
       id="g88"
       clip-path="url(#clipPath92)"><text
         transform="matrix(1,0,0,-1,13.55,218.18)"
         style="font-variant:normal;font-weight:normal;font-size:20.29999924px;font-family:Calibri;-inkscape-font-specification:Calibri;writing-mode:lr-tb;fill:#000000;fill-opacity:1;fill-rule:nonzero;stroke:none"
         id="text96"><tspan
           x="0 13.4995 24.0149 28.5215 37.5144 42.021 52.5364 63.0518 72.836403 77.343002 84.143501 94.618301 101.3782 111.1628 120.8865 131.4628 135.96941 150.2403 154.7469 159.25349 163.7601"
           y="0"
           id="tspan94">Only one thread will </tspan></text>
</g></g><g
     id="g98"
     transform="matrix(1.3333333,0,0,-1.3333333,-6.9999998,459.99332)"><g
       id="g100"
       clip-path="url(#clipPath104)"><text
         transform="matrix(1,0,0,-1,13.55,194.13)"
         style="font-variant:normal;font-weight:normal;font-size:20.27499962px;font-family:Calibri;-inkscape-font-specification:Calibri;writing-mode:lr-tb;fill:#000000;fill-opacity:1;fill-rule:nonzero;stroke:none"
         id="text108"><tspan
           x="0 9.7725496 18.024475 27.797026 36.04895 46.571674 53.3638"
           y="0"
           id="tspan106">execute</tspan></text>
</g></g><g
     id="g110"
     transform="matrix(1.3333333,0,0,-1.3333333,-6.9999998,459.99332)"><g
       id="g112"
       clip-path="url(#clipPath116)"><text
         transform="matrix(1,0,0,-1,13.55,172.35)"
         style="font-variant:normal;font-weight:normal;font-size:18.04999924px;font-family:Calibri;-inkscape-font-specification:Calibri;writing-mode:lr-tb;fill:#ff0000;fill-opacity:1;fill-rule:nonzero;stroke:none"
         id="text120"><tspan
           x="0 5.2525501 21.010201 30.017151 34.56575 43.554649 52.50745 63.752602 73.553749 82.542648 93.047752 104.31095 113.29985 121.5848 126.0612 138.06445 149.3457 156.85451 165.8434"
           y="0"
           id="tspan118">(MPI_THREAD_SINGLE)</tspan></text>
</g></g><path
     inkscape:connector-curvature="0"
     d="m 269.50666,226.49999 h 289.99999 v -71 H 269.50666 Z"
     style="fill:#ffffff;fill-opacity:1;fill-rule:evenodd;stroke:none;stroke-width:1.33333325"
     id="path122" /><path
     inkscape:connector-curvature="0"
     d="m 269.50666,226.49999 h 289.99999 v -71 H 269.50666 Z"
     style="fill:none;stroke:#000000;stroke-width:3;stroke-linecap:butt;stroke-linejoin:round;stroke-miterlimit:10;stroke-dasharray:none;stroke-opacity:1"
     id="path124" /><g
     id="g126"
     transform="matrix(1.3333333,0,0,-1.3333333,-6.9999998,459.99332)"><g
       id="g128"
       clip-path="url(#clipPath132)"><text
         transform="matrix(1,0,0,-1,214.33,205.85)"
         style="font-variant:normal;font-weight:normal;font-size:20.27499962px;font-family:Calibri;-inkscape-font-specification:Calibri;writing-mode:lr-tb;fill:#000000;fill-opacity:1;fill-rule:nonzero;stroke:none"
         id="text136"><tspan
           x="0 17.335125 27.817301 33.027973 36.778851 47.301575 57.824299 62.325352 71.347725 75.848778 86.371498 96.894226 101.39527 117.89912 127.6514 132.15245 142.67517 147.17622 153.96835 164.47079 171.24265 181.0152 190.76747"
           y="0"
           id="tspan134">MPI only on main thread</tspan></text>
</g></g><g
     id="g138"
     transform="matrix(1.3333333,0,0,-1.3333333,-6.9999998,459.99332)"><g
       id="g140"
       clip-path="url(#clipPath144)"><text
         transform="matrix(1,0,0,-1,214.33,184.08)"
         style="font-variant:normal;font-weight:normal;font-size:18.02499962px;font-family:Calibri;-inkscape-font-specification:Calibri;writing-mode:lr-tb;fill:#ff0000;fill-opacity:1;fill-rule:nonzero;stroke:none"
         id="text148"><tspan
           x="0"
           y="0"
           id="tspan146">(</tspan></text>
</g></g><g
     id="g150"
     transform="matrix(1.3333333,0,0,-1.3333333,-6.9999998,459.99332)"><g
       id="g152"
       clip-path="url(#clipPath156)"><text
         transform="matrix(1,0,0,-1,219.6,184.08)"
         style="font-variant:normal;font-weight:normal;font-size:18.02499962px;font-family:Calibri;-inkscape-font-specification:Calibri;writing-mode:lr-tb;fill:#ff0000;fill-opacity:1;fill-rule:nonzero;stroke:none"
         id="text160"><tspan
           x="0 15.735825 24.730301 29.2726 38.24905 47.207474 58.43705 68.224625 77.183052 87.673599 98.903175 107.87962 116.1531 127.4007 139.38733 151.37395 160.3504 167.8488 176.82526 188.05482"
           y="0"
           id="tspan158">MPI_THREAD_FUNNELED)</tspan></text>
</g></g><path
     inkscape:connector-curvature="0"
     d="m 146.98666,51.19333 -17.36,85.08 2.93334,0.6 17.36,-85.08 z m -20.65733,75.98666 4.164,12.30667 8.66667,-9.68 c 0.54666,-0.62667 0.49333,-1.57333 -0.12,-2.12 -0.62667,-0.54667 -1.57334,-0.50667 -2.12,0.12 l -6.94667,7.76 2.54667,0.52 -3.34667,-9.86666 c -0.26667,-0.78667 -1.12,-1.2 -1.90667,-0.93334 -0.78666,0.26667 -1.204,1.12 -0.93733,1.89333 z"
     style="fill:#000000;fill-opacity:1;fill-rule:nonzero;stroke:none;stroke-width:1.33333325"
     id="path162" /><path
     inkscape:connector-curvature="0"
     d="m 612.50665,228.49999 h 136 V 89.5 h -136 z"
     style="fill:#ffffff;fill-opacity:1;fill-rule:evenodd;stroke:none;stroke-width:1.33333325"
     id="path164" /><path
     inkscape:connector-curvature="0"
     d="m 612.50665,228.49999 h 136 V 89.5 h -136 z"
     style="fill:none;stroke:#000000;stroke-width:3;stroke-linecap:butt;stroke-linejoin:round;stroke-miterlimit:10;stroke-dasharray:none;stroke-opacity:1"
     id="path166" /><g
     id="g168"
     transform="matrix(1.3333333,0,0,-1.3333333,-6.9999998,459.99332)"><g
       id="g170"
       clip-path="url(#clipPath174)"><text
         transform="matrix(1,0,0,-1,471.57,255.75)"
         style="font-variant:normal;font-weight:normal;font-size:20.29999924px;font-family:Calibri;-inkscape-font-specification:Calibri;writing-mode:lr-tb;fill:#000000;fill-opacity:1;fill-rule:nonzero;stroke:none"
         id="text178"><tspan
           x="0 17.254999 27.750099 32.987499 36.743 47.238098 57.7332"
           y="0"
           id="tspan176">MPI on </tspan></text>
</g></g><g
     id="g180"
     transform="matrix(1.3333333,0,0,-1.3333333,-6.9999998,459.99332)"><g
       id="g182"
       clip-path="url(#clipPath186)"><text
         transform="matrix(1,0,0,-1,471.57,231.7)"
         style="font-variant:normal;font-weight:normal;font-size:20.27499962px;font-family:Calibri;-inkscape-font-specification:Calibri;writing-mode:lr-tb;fill:#000000;fill-opacity:1;fill-rule:nonzero;stroke:none"
         id="text190"><tspan
           x="0 16.483576 26.986025 33.737598 43.489876 47.990925 54.783051 65.244949 74.956673 85.499672"
           y="0"
           id="tspan188">more than </tspan></text>
</g></g><g
     id="g192"
     transform="matrix(1.3333333,0,0,-1.3333333,-6.9999998,459.99332)"><g
       id="g194"
       clip-path="url(#clipPath198)"><text
         transform="matrix(1,0,0,-1,471.57,207.65)"
         style="font-variant:normal;font-weight:normal;font-size:20.27499962px;font-family:Calibri;-inkscape-font-specification:Calibri;writing-mode:lr-tb;fill:#000000;fill-opacity:1;fill-rule:nonzero;stroke:none"
         id="text202"><tspan
           x="0 10.50245 21.0049 30.757175"
           y="0"
           id="tspan200">one </tspan></text>
</g></g><g
     id="g204"
     transform="matrix(1.3333333,0,0,-1.3333333,-6.9999998,459.99332)"><g
       id="g206"
       clip-path="url(#clipPath210)"><text
         transform="matrix(1,0,0,-1,471.57,183.63)"
         style="font-variant:normal;font-weight:normal;font-size:20.27499962px;font-family:Calibri;-inkscape-font-specification:Calibri;writing-mode:lr-tb;fill:#000000;fill-opacity:1;fill-rule:nonzero;stroke:none"
         id="text214"><tspan
           x="0 6.7921252 17.254025 24.0056 33.757874 43.469601"
           y="0"
           id="tspan212">thread</tspan></text>
</g></g><path
     inkscape:connector-curvature="0"
     d="m 387.91999,75.99333 26.89333,76.82666 -2.84,0.98667 -26.89333,-76.81333 z m 28.93333,67.37333 -2.48,12.74667 -9.88,-8.42667 c -0.62666,-0.53333 -0.70666,-1.48 -0.17333,-2.10667 0.54667,-0.62666 1.49333,-0.70666 2.12,-0.17333 l 7.93333,6.76 -2.45333,0.85333 1.98667,-10.22666 c 0.16,-0.81334 0.94666,-1.34667 1.76,-1.18667 0.81333,0.16 1.34666,0.94667 1.18666,1.76 z"
     style="fill:#000000;fill-opacity:1;fill-rule:nonzero;stroke:none;stroke-width:1.33333325"
     id="path216" /><path
     inkscape:connector-curvature="0"
     d="m 639.50665,370.49332 h 294.99999 v -71 H 639.50665 Z"
     style="fill:#ffffff;fill-opacity:1;fill-rule:evenodd;stroke:none;stroke-width:1.33333325"
     id="path218" /><path
     inkscape:connector-curvature="0"
     d="m 639.50665,370.49332 h 294.99999 v -71 H 639.50665 Z"
     style="fill:none;stroke:#000000;stroke-width:3;stroke-linecap:butt;stroke-linejoin:round;stroke-miterlimit:10;stroke-dasharray:none;stroke-opacity:1"
     id="path220" /><g
     id="g222"
     transform="matrix(1.3333333,0,0,-1.3333333,-6.9999998,459.99332)"><g
       id="g224"
       clip-path="url(#clipPath228)"><text
         transform="matrix(1,0,0,-1,492.45,97.65)"
         style="font-variant:normal;font-weight:normal;font-size:20.27499962px;font-family:Calibri;-inkscape-font-specification:Calibri;writing-mode:lr-tb;fill:#000000;fill-opacity:1;fill-rule:nonzero;stroke:none"
         id="text232"><tspan
           x="0 12.752975 23.255424 27.756475 34.508049 44.260326 52.491974 59.2841 65.995125 70.496178 78.7481 85.540222 90.000725 100.50317 111.00562 119.23727"
           y="0"
           id="tspan230">No restrictions </tspan></text>
</g></g><g
     id="g234"
     transform="matrix(1.3333333,0,0,-1.3333333,-6.9999998,459.99332)"><g
       id="g236"
       clip-path="url(#clipPath240)"><text
         transform="matrix(1,0,0,-1,492.45,75.875)"
         style="font-variant:normal;font-weight:normal;font-size:18.04999924px;font-family:Calibri;-inkscape-font-specification:Calibri;writing-mode:lr-tb;fill:#ff0000;fill-opacity:1;fill-rule:nonzero;stroke:none"
         id="text244"><tspan
           x="0"
           y="0"
           id="tspan242">(</tspan></text>
</g></g><g
     id="g246"
     transform="matrix(1.3333333,0,0,-1.3333333,-6.9999998,459.99332)"><g
       id="g248"
       clip-path="url(#clipPath252)"><text
         transform="matrix(1,0,0,-1,497.7,75.875)"
         style="font-variant:normal;font-weight:normal;font-size:18.04999924px;font-family:Calibri;-inkscape-font-specification:Calibri;writing-mode:lr-tb;fill:#ff0000;fill-opacity:1;fill-rule:nonzero;stroke:none"
         id="text256"><tspan
           x="0 15.75765 24.764601 29.3132 38.302101 47.254902 58.50005 68.301201 77.235947 87.686897 98.968147 107.95705 123.73275 134.97791 140.9705 149.9594 154.508 163.4608 170.9696 179.9585"
           y="0"
           id="tspan254">MPI_THREAD_MULTIPLE)</tspan></text>
</g></g><path
     inkscape:connector-curvature="0"
     d="m 307.50666,370.49332 h 287.99999 v -71 H 307.50666 Z"
     style="fill:#ffffff;fill-opacity:1;fill-rule:evenodd;stroke:none;stroke-width:1.33333325"
     id="path258" /><path
     inkscape:connector-curvature="0"
     d="m 307.50666,370.49332 h 287.99999 v -71 H 307.50666 Z"
     style="fill:none;stroke:#000000;stroke-width:3;stroke-linecap:butt;stroke-linejoin:round;stroke-miterlimit:10;stroke-dasharray:none;stroke-opacity:1"
     id="path260" /><g
     id="g262"
     transform="matrix(1.3333333,0,0,-1.3333333,-6.9999998,459.99332)"><g
       id="g264"
       clip-path="url(#clipPath268)"><text
         transform="matrix(1,0,0,-1,242.7,97.65)"
         style="font-variant:normal;font-weight:normal;font-size:20.27499962px;font-family:Calibri;-inkscape-font-specification:Calibri;writing-mode:lr-tb;fill:#000000;fill-opacity:1;fill-rule:nonzero;stroke:none"
         id="text272"><tspan
           x="0 12.77325 23.295975 27.878124 36.0895 46.612225 57.134949 65.40715 75.929878 82.701721 89.473572 99.246124 109.76885 116.56097 121.79192 139.12704 149.60922 154.84018 158.61133 166.88353 176.6358 181.15712 185.67845 193.93037"
           y="0"
           id="tspan270">No concurrent MPI calls </tspan></text>
</g></g><g
     id="g274"
     transform="matrix(1.3333333,0,0,-1.3333333,-6.9999998,459.99332)"><g
       id="g276"
       clip-path="url(#clipPath280)"><text
         transform="matrix(1,0,0,-1,242.7,75.875)"
         style="font-variant:normal;font-weight:normal;font-size:18.04999924px;font-family:Calibri;-inkscape-font-specification:Calibri;writing-mode:lr-tb;fill:#ff0000;fill-opacity:1;fill-rule:nonzero;stroke:none"
         id="text284"><tspan
           x="0"
           y="0"
           id="tspan282">(</tspan></text>
</g></g><g
     id="g286"
     transform="matrix(1.3333333,0,0,-1.3333333,-6.9999998,459.99332)"><g
       id="g288"
       clip-path="url(#clipPath292)"><text
         transform="matrix(1,0,0,-1,247.98,75.875)"
         style="font-variant:normal;font-weight:normal;font-size:18.04999924px;font-family:Calibri;-inkscape-font-specification:Calibri;writing-mode:lr-tb;fill:#ff0000;fill-opacity:1;fill-rule:nonzero;stroke:none"
         id="text296"><tspan
           x="0 15.7396 24.74655 29.295151 38.28405 47.236851 58.481998 68.28315 77.217903 87.668854 98.950104 107.939 116.22395 125.17675 134.97791 139.4182 149.86916 157.45015 161.92654 170.1754 179.16431 190.3914"
           y="0"
           id="tspan294">MPI_THREAD_SERIALIZED)</tspan></text>
</g></g><path
     inkscape:connector-curvature="0"
     d="m 679.91998,227.05999 -226.03999,70.61333 0.90667,2.86667 226.02666,-70.61333 z m -219.66666,63.33333 -8.76,9.6 12.66667,2.90667 c 0.8,0.17333 1.61333,-0.32 1.78666,-1.13333 0.18667,-0.81334 -0.30666,-1.61334 -1.12,-1.8 l -10.15999,-2.32 0.77333,2.46666 7.02666,-7.69333 c 0.56,-0.61333 0.52,-1.56 -0.0933,-2.12 -0.61333,-0.56 -1.56,-0.52 -2.12,0.0933 z"
     style="fill:#000000;fill-opacity:1;fill-rule:nonzero;stroke:none;stroke-width:1.33333325"
     id="path298" /><path
     inkscape:connector-curvature="0"
     d="m 482.50665,37.39333 128.77333,117.84 -2.02666,2.21333 -128.76,-117.85333 z m 126.09333,108.56 3.85334,12.4 -12.69334,-2.74667 c -0.81333,-0.17333 -1.32,-0.97333 -1.14666,-1.78667 0.17333,-0.81333 0.97333,-1.32 1.78666,-1.14666 l 10.17334,2.2 -1.74667,1.92 -3.09333,-9.96 c -0.24,-0.78667 0.2,-1.62667 0.98666,-1.86667 0.78667,-0.25333 1.62667,0.18667 1.88,0.98667 z"
     style="fill:#000000;fill-opacity:1;fill-rule:nonzero;stroke:none;stroke-width:1.33333325"
     id="path300" /><path
     inkscape:connector-curvature="0"
     d="m 681.33332,227.24666 104.70666,69.85333 -1.65333,2.49333 -104.72,-69.85333 z m 100.65333,61.08 5.70666,11.66666 -12.97333,-0.78666 c -0.82667,-0.04 -1.45333,-0.76 -1.4,-1.58667 0.04,-0.82667 0.76,-1.45333 1.58667,-1.4 l 10.4,0.62667 -1.44,2.16 -4.57334,-9.37334 c -0.36,-0.73333 -0.0533,-1.64 0.69334,-2 0.73333,-0.36 1.64,-0.0533 2,0.69334 z"
     style="fill:#000000;fill-opacity:1;fill-rule:nonzero;stroke:none;stroke-width:1.33333325"
     id="path302" /></svg>