<?xml version="1.0" encoding="UTF-8" standalone="no"?>
<svg
   xmlns:dc="http://purl.org/dc/elements/1.1/"
   xmlns:cc="http://creativecommons.org/ns#"
   xmlns:rdf="http://www.w3.org/1999/02/22-rdf-syntax-ns#"
   xmlns:svg="http://www.w3.org/2000/svg"
   xmlns="http://www.w3.org/2000/svg"
   xmlns:sodipodi="http://sodipodi.sourceforge.net/DTD/sodipodi-0.dtd"
   xmlns:inkscape="http://www.inkscape.org/namespaces/inkscape"
   viewBox="0 0 867.00665 176.99998"
   height="176.99998"
   width="867.00665"
   xml:space="preserve"
   id="svg2"
   version="1.1"
   sodipodi:docname="nonblocking-io.svg"
   inkscape:version="0.92.2 (5c3e80d, 2017-08-06)"><sodipodi:namedview
     pagecolor="#ffffff"
     bordercolor="#666666"
     borderopacity="1"
     objecttolerance="10"
     gridtolerance="10"
     guidetolerance="10"
     inkscape:pageopacity="0"
     inkscape:pageshadow="2"
     inkscape:window-width="1366"
     inkscape:window-height="690"
     id="namedview23789"
     showgrid="false"
     inkscape:zoom="0.79333333"
     inkscape:cx="429"
     inkscape:cy="123.00667"
     inkscape:window-x="0"
     inkscape:window-y="24"
     inkscape:window-maximized="1"
     inkscape:current-layer="svg2" /><metadata
     id="metadata8"><rdf:RDF><cc:Work
         rdf:about=""><dc:format>image/svg+xml</dc:format><dc:type
           rdf:resource="http://purl.org/dc/dcmitype/StillImage" /><dc:title></dc:title></cc:Work></rdf:RDF></metadata><defs
     id="defs6"><clipPath
       id="clipPath18"
       clipPathUnits="userSpaceOnUse"><path
         style="clip-rule:evenodd"
         id="path16"
         d="M 0,1.2207e-4 H 720 V 450.00012 H 0 Z"
         inkscape:connector-curvature="0" /></clipPath><clipPath
       id="clipPath32"
       clipPathUnits="userSpaceOnUse"><path
         style="clip-rule:evenodd"
         id="path30"
         d="M 1.0729e-5,0 H 720.00001 V 450 H 1.0729e-5 Z"
         inkscape:connector-curvature="0" /></clipPath><clipPath
       id="clipPath48"
       clipPathUnits="userSpaceOnUse"><path
         style="clip-rule:evenodd"
         id="path46"
         d="M 1.0729e-5,0 H 720.00001 V 450 H 1.0729e-5 Z"
         inkscape:connector-curvature="0" /></clipPath><clipPath
       id="clipPath64"
       clipPathUnits="userSpaceOnUse"><path
         style="clip-rule:evenodd"
         id="path62"
         d="M 1.0729e-5,0 H 720.00001 V 450 H 1.0729e-5 Z"
         inkscape:connector-curvature="0" /></clipPath><clipPath
       id="clipPath80"
       clipPathUnits="userSpaceOnUse"><path
         style="clip-rule:evenodd"
         id="path78"
         d="M 1.0729e-5,0 H 720.00001 V 450 H 1.0729e-5 Z"
         inkscape:connector-curvature="0" /></clipPath><clipPath
       id="clipPath96"
       clipPathUnits="userSpaceOnUse"><path
         style="clip-rule:evenodd"
         id="path94"
         d="M 1.0729e-5,0 H 720.00001 V 450 H 1.0729e-5 Z"
         inkscape:connector-curvature="0" /></clipPath><clipPath
       id="clipPath112"
       clipPathUnits="userSpaceOnUse"><path
         style="clip-rule:evenodd"
         id="path110"
         d="M 1.0729e-5,0 H 720.00001 V 450 H 1.0729e-5 Z"
         inkscape:connector-curvature="0" /></clipPath><clipPath
       id="clipPath128"
       clipPathUnits="userSpaceOnUse"><path
         style="clip-rule:evenodd"
         id="path126"
         d="M 1.0729e-5,0 H 720.00001 V 450 H 1.0729e-5 Z"
         inkscape:connector-curvature="0" /></clipPath><clipPath
       id="clipPath144"
       clipPathUnits="userSpaceOnUse"><path
         style="clip-rule:evenodd"
         id="path142"
         d="M 1.0729e-5,0 H 720.00001 V 450 H 1.0729e-5 Z"
         inkscape:connector-curvature="0" /></clipPath><clipPath
       id="clipPath160"
       clipPathUnits="userSpaceOnUse"><path
         style="clip-rule:evenodd"
         id="path158"
         d="M 1.0729e-5,0 H 720.00001 V 450 H 1.0729e-5 Z"
         inkscape:connector-curvature="0" /></clipPath><clipPath
       id="clipPath176"
       clipPathUnits="userSpaceOnUse"><path
         style="clip-rule:evenodd"
         id="path174"
         d="M 1.0729e-5,0 H 720.00001 V 450 H 1.0729e-5 Z"
         inkscape:connector-curvature="0" /></clipPath><clipPath
       id="clipPath188"
       clipPathUnits="userSpaceOnUse"><path
         style="clip-rule:evenodd"
         id="path186"
         d="M 8.392e-6,450 H 720 V 9.1553e-5 H 8.392e-6"
         inkscape:connector-curvature="0" /></clipPath><clipPath
       id="clipPath198"
       clipPathUnits="userSpaceOnUse"><path
         style="clip-rule:evenodd"
         id="path196"
         d="M 8.392e-6,450 H 720 V 9.1553e-5 H 8.392e-6"
         inkscape:connector-curvature="0" /></clipPath><clipPath
       id="clipPath212"
       clipPathUnits="userSpaceOnUse"><path
         style="clip-rule:evenodd"
         id="path210"
         d="M 1.0729e-5,0 H 720.00001 V 450 H 1.0729e-5 Z"
         inkscape:connector-curvature="0" /></clipPath><clipPath
       id="clipPath228"
       clipPathUnits="userSpaceOnUse"><path
         style="clip-rule:evenodd"
         id="path226"
         d="M 1.0729e-5,0 H 720.00001 V 450 H 1.0729e-5 Z"
         inkscape:connector-curvature="0" /></clipPath><clipPath
       id="clipPath240"
       clipPathUnits="userSpaceOnUse"><path
         style="clip-rule:evenodd"
         id="path238"
         d="M 6.71e-6,450 H 720 V 9.1553e-5 H 6.71e-6"
         inkscape:connector-curvature="0" /></clipPath><clipPath
       id="clipPath250"
       clipPathUnits="userSpaceOnUse"><path
         style="clip-rule:evenodd"
         id="path248"
         d="M 6.71e-6,450 H 720 V 9.1553e-5 H 6.71e-6"
         inkscape:connector-curvature="0" /></clipPath><clipPath
       id="clipPath264"
       clipPathUnits="userSpaceOnUse"><path
         style="clip-rule:evenodd"
         id="path262"
         d="M 1.0729e-5,0 H 720.00001 V 450 H 1.0729e-5 Z"
         inkscape:connector-curvature="0" /></clipPath><clipPath
       id="clipPath280"
       clipPathUnits="userSpaceOnUse"><path
         style="clip-rule:evenodd"
         id="path278"
         d="M 1.0729e-5,0 H 720.00001 V 450 H 1.0729e-5 Z"
         inkscape:connector-curvature="0" /></clipPath><clipPath
       id="clipPath292"
       clipPathUnits="userSpaceOnUse"><path
         style="clip-rule:evenodd"
         id="path290"
         d="M 2.4713e-5,450 H 720 V 9.1553e-5 H 2.4713e-5"
         inkscape:connector-curvature="0" /></clipPath><clipPath
       id="clipPath302"
       clipPathUnits="userSpaceOnUse"><path
         style="clip-rule:evenodd"
         id="path300"
         d="M 2.4713e-5,450 H 720 V 9.1553e-5 H 2.4713e-5"
         inkscape:connector-curvature="0" /></clipPath><clipPath
       id="clipPath316"
       clipPathUnits="userSpaceOnUse"><path
         style="clip-rule:evenodd"
         id="path314"
         d="M 1.0729e-5,0 H 720.00001 V 450 H 1.0729e-5 Z"
         inkscape:connector-curvature="0" /></clipPath><clipPath
       id="clipPath332"
       clipPathUnits="userSpaceOnUse"><path
         style="clip-rule:evenodd"
         id="path330"
         d="M 1.0729e-5,0 H 720.00001 V 450 H 1.0729e-5 Z"
         inkscape:connector-curvature="0" /></clipPath><clipPath
       id="clipPath344"
       clipPathUnits="userSpaceOnUse"><path
         style="clip-rule:evenodd"
         id="path342"
         d="M 2.3031e-5,450 H 720 V 9.1553e-5 H 2.3031e-5"
         inkscape:connector-curvature="0" /></clipPath><clipPath
       id="clipPath354"
       clipPathUnits="userSpaceOnUse"><path
         style="clip-rule:evenodd"
         id="path352"
         d="M 2.3031e-5,450 H 720 V 9.1553e-5 H 2.3031e-5"
         inkscape:connector-curvature="0" /></clipPath></defs><path
     inkscape:connector-curvature="0"
     d="M 1.5,39.49999 H 153.49999 V 1.5 H 1.5 Z"
     style="fill:#e2f3f0;fill-opacity:1;fill-rule:evenodd;stroke:none;stroke-width:1.33333325"
     id="path22" /><path
     inkscape:connector-curvature="0"
     d="M 1.5,39.49999 H 153.49999 V 1.5 H 1.5 Z"
     style="fill:none;stroke:#000000;stroke-width:3;stroke-linecap:butt;stroke-linejoin:round;stroke-miterlimit:10;stroke-dasharray:none;stroke-opacity:1"
     id="path24" /><g
     id="g26"
     transform="matrix(1.3333333,0,0,-1.3333333,-50.999999,353.99332)"><g
       id="g28"
       clip-path="url(#clipPath32)"><text
         transform="matrix(1,0,0,-1,62.3,244.48)"
         style="font-variant:normal;font-weight:normal;font-size:18.02499962px;font-family:Calibri;-inkscape-font-specification:Calibri;writing-mode:lr-tb;fill:#000000;fill-opacity:1;fill-rule:nonzero;stroke:none"
         id="text36"><tspan
           x="0 9.7515249 19.50305 33.778851 43.530376 53.281898 59.320274"
           y="0"
           id="tspan34">Compute</tspan></text>
</g></g><path
     inkscape:connector-curvature="0"
     d="m 153.50666,39.49999 h 64 V 1.5 h -64 z"
     style="fill:#f2c8d6;fill-opacity:1;fill-rule:evenodd;stroke:none;stroke-width:1.33333325"
     id="path38" /><path
     inkscape:connector-curvature="0"
     d="m 153.50666,39.49999 h 64 V 1.5 h -64 z"
     style="fill:none;stroke:#000000;stroke-width:3;stroke-linecap:butt;stroke-linejoin:round;stroke-miterlimit:10;stroke-dasharray:none;stroke-opacity:1"
     id="path40" /><g
     id="g42"
     transform="matrix(1.3333333,0,0,-1.3333333,-50.999999,353.99332)"><g
       id="g44"
       clip-path="url(#clipPath48)"><text
         transform="matrix(1,0,0,-1,165.93,244.48)"
         style="font-variant:normal;font-weight:normal;font-size:18.02499962px;font-family:Calibri;-inkscape-font-specification:Calibri;writing-mode:lr-tb;fill:#000000;fill-opacity:1;fill-rule:nonzero;stroke:none"
         id="text52"><tspan
           x="0 4.5423002 11.2476"
           y="0"
           id="tspan50">I/O</tspan></text>
</g></g><path
     inkscape:connector-curvature="0"
     d="m 217.50666,39.49999 h 152 V 1.5 h -152 z"
     style="fill:#e2f3f0;fill-opacity:1;fill-rule:evenodd;stroke:none;stroke-width:1.33333325"
     id="path54" /><path
     inkscape:connector-curvature="0"
     d="m 217.50666,39.49999 h 152 V 1.5 h -152 z"
     style="fill:none;stroke:#000000;stroke-width:3;stroke-linecap:butt;stroke-linejoin:round;stroke-miterlimit:10;stroke-dasharray:none;stroke-opacity:1"
     id="path56" /><g
     id="g58"
     transform="matrix(1.3333333,0,0,-1.3333333,-50.999999,353.99332)"><g
       id="g60"
       clip-path="url(#clipPath64)"><text
         transform="matrix(1,0,0,-1,224.48,244.48)"
         style="font-variant:normal;font-weight:normal;font-size:18.02499962px;font-family:Calibri;-inkscape-font-specification:Calibri;writing-mode:lr-tb;fill:#000000;fill-opacity:1;fill-rule:nonzero;stroke:none"
         id="text68"><tspan
           x="0 9.7334995 19.466999 33.742802 43.476299 53.209801 59.248177"
           y="0"
           id="tspan66">Compute</tspan></text>
</g></g><path
     inkscape:connector-curvature="0"
     d="m 369.50666,39.49999 h 63.99999 V 1.5 h -63.99999 z"
     style="fill:#f2c8d6;fill-opacity:1;fill-rule:evenodd;stroke:none;stroke-width:1.33333325"
     id="path70" /><path
     inkscape:connector-curvature="0"
     d="m 369.50666,39.49999 h 63.99999 V 1.5 h -63.99999 z"
     style="fill:none;stroke:#000000;stroke-width:3;stroke-linecap:butt;stroke-linejoin:round;stroke-miterlimit:10;stroke-dasharray:none;stroke-opacity:1"
     id="path72" /><g
     id="g74"
     transform="matrix(1.3333333,0,0,-1.3333333,-50.999999,353.99332)"><g
       id="g76"
       clip-path="url(#clipPath80)"><text
         transform="matrix(1,0,0,-1,328.08,244.48)"
         style="font-variant:normal;font-weight:normal;font-size:18.02499962px;font-family:Calibri;-inkscape-font-specification:Calibri;writing-mode:lr-tb;fill:#000000;fill-opacity:1;fill-rule:nonzero;stroke:none"
         id="text84"><tspan
           x="0 4.5423002 11.28365"
           y="0"
           id="tspan82">I/O</tspan></text>
</g></g><path
     inkscape:connector-curvature="0"
     d="m 433.50665,39.49999 h 152 V 1.5 h -152 z"
     style="fill:#e2f3f0;fill-opacity:1;fill-rule:evenodd;stroke:none;stroke-width:1.33333325"
     id="path86" /><path
     inkscape:connector-curvature="0"
     d="m 433.50665,39.49999 h 152 V 1.5 h -152 z"
     style="fill:none;stroke:#000000;stroke-width:3;stroke-linecap:butt;stroke-linejoin:round;stroke-miterlimit:10;stroke-dasharray:none;stroke-opacity:1"
     id="path88" /><g
     id="g90"
     transform="matrix(1.3333333,0,0,-1.3333333,-50.999999,353.99332)"><g
       id="g92"
       clip-path="url(#clipPath96)"><text
         transform="matrix(1,0,0,-1,386.65,244.48)"
         style="font-variant:normal;font-weight:normal;font-size:18.02499962px;font-family:Calibri;-inkscape-font-specification:Calibri;writing-mode:lr-tb;fill:#000000;fill-opacity:1;fill-rule:nonzero;stroke:none"
         id="text100"><tspan
           x="0 9.7334995 19.466999 33.724773 43.458275 53.191776 59.230148"
           y="0"
           id="tspan98">Compute</tspan></text>
</g></g><path
     inkscape:connector-curvature="0"
     d="m 585.50665,39.49999 h 64 V 1.5 h -64 z"
     style="fill:#f2c8d6;fill-opacity:1;fill-rule:evenodd;stroke:none;stroke-width:1.33333325"
     id="path102" /><path
     inkscape:connector-curvature="0"
     d="m 585.50665,39.49999 h 64 V 1.5 h -64 z"
     style="fill:none;stroke:#000000;stroke-width:3;stroke-linecap:butt;stroke-linejoin:round;stroke-miterlimit:10;stroke-dasharray:none;stroke-opacity:1"
     id="path104" /><g
     id="g106"
     transform="matrix(1.3333333,0,0,-1.3333333,-50.999999,353.99332)"><g
       id="g108"
       clip-path="url(#clipPath112)"><text
         transform="matrix(1,0,0,-1,490.25,244.48)"
         style="font-variant:normal;font-weight:normal;font-size:18.02499962px;font-family:Calibri;-inkscape-font-specification:Calibri;writing-mode:lr-tb;fill:#000000;fill-opacity:1;fill-rule:nonzero;stroke:none"
         id="text116"><tspan
           x="0 4.5423002 11.2476"
           y="0"
           id="tspan114">I/O</tspan></text>
</g></g><path
     inkscape:connector-curvature="0"
     d="m 649.50665,39.49999 h 152 V 1.5 h -152 z"
     style="fill:#e2f3f0;fill-opacity:1;fill-rule:evenodd;stroke:none;stroke-width:1.33333325"
     id="path118" /><path
     inkscape:connector-curvature="0"
     d="m 649.50665,39.49999 h 152 V 1.5 h -152 z"
     style="fill:none;stroke:#000000;stroke-width:3;stroke-linecap:butt;stroke-linejoin:round;stroke-miterlimit:10;stroke-dasharray:none;stroke-opacity:1"
     id="path120" /><g
     id="g122"
     transform="matrix(1.3333333,0,0,-1.3333333,-50.999999,353.99332)"><g
       id="g124"
       clip-path="url(#clipPath128)"><text
         transform="matrix(1,0,0,-1,548.8,244.48)"
         style="font-variant:normal;font-weight:normal;font-size:18.02499962px;font-family:Calibri;-inkscape-font-specification:Calibri;writing-mode:lr-tb;fill:#000000;fill-opacity:1;fill-rule:nonzero;stroke:none"
         id="text132"><tspan
           x="0 9.7515249 19.50305 33.778851 43.530376 53.281898 59.320274"
           y="0"
           id="tspan130">Compute</tspan></text>
</g></g><path
     inkscape:connector-curvature="0"
     d="m 801.50665,39.49999 h 63.99999 V 1.5 h -63.99999 z"
     style="fill:#f2c8d6;fill-opacity:1;fill-rule:evenodd;stroke:none;stroke-width:1.33333325"
     id="path134" /><path
     inkscape:connector-curvature="0"
     d="m 801.50665,39.49999 h 63.99999 V 1.5 h -63.99999 z"
     style="fill:none;stroke:#000000;stroke-width:3;stroke-linecap:butt;stroke-linejoin:round;stroke-miterlimit:10;stroke-dasharray:none;stroke-opacity:1"
     id="path136" /><g
     id="g138"
     transform="matrix(1.3333333,0,0,-1.3333333,-50.999999,353.99332)"><g
       id="g140"
       clip-path="url(#clipPath144)"><text
         transform="matrix(1,0,0,-1,652.43,244.48)"
         style="font-variant:normal;font-weight:normal;font-size:18.02499962px;font-family:Calibri;-inkscape-font-specification:Calibri;writing-mode:lr-tb;fill:#000000;fill-opacity:1;fill-rule:nonzero;stroke:none"
         id="text148"><tspan
           x="0 4.5423002 11.2476"
           y="0"
           id="tspan146">I/O</tspan></text>
</g></g><path
     inkscape:connector-curvature="0"
     d="m 1.5,115.49999 h 151.99999 v -38 H 1.5 Z"
     style="fill:#e2f3f0;fill-opacity:1;fill-rule:evenodd;stroke:none;stroke-width:1.33333325"
     id="path150" /><path
     inkscape:connector-curvature="0"
     d="m 1.5,115.49999 h 151.99999 v -38 H 1.5 Z"
     style="fill:none;stroke:#000000;stroke-width:3;stroke-linecap:butt;stroke-linejoin:round;stroke-miterlimit:10;stroke-dasharray:none;stroke-opacity:1"
     id="path152" /><g
     id="g154"
     transform="matrix(1.3333333,0,0,-1.3333333,-50.999999,353.99332)"><g
       id="g156"
       clip-path="url(#clipPath160)"><text
         transform="matrix(1,0,0,-1,62.3,187.48)"
         style="font-variant:normal;font-weight:normal;font-size:18.02499962px;font-family:Calibri;-inkscape-font-specification:Calibri;writing-mode:lr-tb;fill:#000000;fill-opacity:1;fill-rule:nonzero;stroke:none"
         id="text164"><tspan
           x="0 9.7515249 19.50305 33.778851 43.530376 53.281898 59.320274"
           y="0"
           id="tspan162">Compute</tspan></text>
</g></g><path
     inkscape:connector-curvature="0"
     d="m 169.50666,175.49999 h 64 v -38 h -64 z"
     style="fill:#f2c8d6;fill-opacity:1;fill-rule:evenodd;stroke:none;stroke-width:1.33333325"
     id="path166" /><path
     inkscape:connector-curvature="0"
     d="m 169.50666,175.49999 h 64 v -38 h -64 z"
     style="fill:none;stroke:#000000;stroke-width:3;stroke-linecap:butt;stroke-linejoin:round;stroke-miterlimit:10;stroke-dasharray:none;stroke-opacity:1"
     id="path168" /><g
     id="g170"
     transform="matrix(1.3333333,0,0,-1.3333333,-50.999999,353.99332)"><g
       id="g172"
       clip-path="url(#clipPath176)"><text
         transform="matrix(1,0,0,-1,177.92,142.17)"
         style="font-variant:normal;font-weight:normal;font-size:18.02499962px;font-family:Calibri;-inkscape-font-specification:Calibri;writing-mode:lr-tb;fill:#000000;fill-opacity:1;fill-rule:nonzero;stroke:none"
         id="text180"><tspan
           x="0 4.5423002 11.2476"
           y="0"
           id="tspan178">I/O</tspan></text>
</g></g><g
     id="g182"
     transform="matrix(1.3333333,0,0,-1.3333333,-50.999999,353.99332)"><g
       id="g184"
       clip-path="url(#clipPath188)"><path
         inkscape:connector-curvature="0"
         d="M 153.22,178.87 V 153.3 h 3.72 v 1.57 l 8.44,-4.5 -8.44,-4.5 v 1.58 h -9.56 v 31.42 z"
         style="fill:#e2f3f0;fill-opacity:1;fill-rule:evenodd;stroke:none"
         id="path190" /></g></g><g
     id="g192"
     transform="matrix(1.3333333,0,0,-1.3333333,-50.999999,353.99332)"><g
       id="g194"
       clip-path="url(#clipPath198)"><path
         inkscape:connector-curvature="0"
         d="M 153.22,178.87 V 153.3 h 3.72 v 1.57 l 8.44,-4.5 -8.44,-4.5 v 1.58 h -9.56 v 31.42 z"
         style="fill:none;stroke:#000000;stroke-width:2.25;stroke-linecap:butt;stroke-linejoin:miter;stroke-miterlimit:8;stroke-dasharray:none;stroke-opacity:1"
         id="path200" /></g></g><path
     inkscape:connector-curvature="0"
     d="m 153.50666,115.49999 h 152 v -38 h -152 z"
     style="fill:#e2f3f0;fill-opacity:1;fill-rule:evenodd;stroke:none;stroke-width:1.33333325"
     id="path202" /><path
     inkscape:connector-curvature="0"
     d="m 153.50666,115.49999 h 152 v -38 h -152 z"
     style="fill:none;stroke:#000000;stroke-width:3;stroke-linecap:butt;stroke-linejoin:round;stroke-miterlimit:10;stroke-dasharray:none;stroke-opacity:1"
     id="path204" /><g
     id="g206"
     transform="matrix(1.3333333,0,0,-1.3333333,-50.999999,353.99332)"><g
       id="g208"
       clip-path="url(#clipPath212)"><text
         transform="matrix(1,0,0,-1,176.43,187.48)"
         style="font-variant:normal;font-weight:normal;font-size:18.02499962px;font-family:Calibri;-inkscape-font-specification:Calibri;writing-mode:lr-tb;fill:#000000;fill-opacity:1;fill-rule:nonzero;stroke:none"
         id="text216"><tspan
           x="0 9.7334995 19.466999 33.742802 43.476299 53.209801 59.248177"
           y="0"
           id="tspan214">Compute</tspan></text>
</g></g><path
     inkscape:connector-curvature="0"
     d="m 321.50666,175.49999 h 64 v -38 h -64 z"
     style="fill:#f2c8d6;fill-opacity:1;fill-rule:evenodd;stroke:none;stroke-width:1.33333325"
     id="path218" /><path
     inkscape:connector-curvature="0"
     d="m 321.50666,175.49999 h 64 v -38 h -64 z"
     style="fill:none;stroke:#000000;stroke-width:3;stroke-linecap:butt;stroke-linejoin:round;stroke-miterlimit:10;stroke-dasharray:none;stroke-opacity:1"
     id="path220" /><g
     id="g222"
     transform="matrix(1.3333333,0,0,-1.3333333,-50.999999,353.99332)"><g
       id="g224"
       clip-path="url(#clipPath228)"><text
         transform="matrix(1,0,0,-1,292.05,142.17)"
         style="font-variant:normal;font-weight:normal;font-size:18.02499962px;font-family:Calibri;-inkscape-font-specification:Calibri;writing-mode:lr-tb;fill:#000000;fill-opacity:1;fill-rule:nonzero;stroke:none"
         id="text232"><tspan
           x="0 4.5423002 11.2476"
           y="0"
           id="tspan230">I/O</tspan></text>
</g></g><g
     id="g234"
     transform="matrix(1.3333333,0,0,-1.3333333,-50.999999,353.99332)"><g
       id="g236"
       clip-path="url(#clipPath240)"><path
         inkscape:connector-curvature="0"
         d="M 267.22,178.87 V 153.3 h 3.72 v 1.57 l 8.44,-4.5 -8.44,-4.5 v 1.58 h -9.56 v 31.42 z"
         style="fill:#e2f3f0;fill-opacity:1;fill-rule:evenodd;stroke:none"
         id="path242" /></g></g><g
     id="g244"
     transform="matrix(1.3333333,0,0,-1.3333333,-50.999999,353.99332)"><g
       id="g246"
       clip-path="url(#clipPath250)"><path
         inkscape:connector-curvature="0"
         d="M 267.22,178.87 V 153.3 h 3.72 v 1.57 l 8.44,-4.5 -8.44,-4.5 v 1.58 h -9.56 v 31.42 z"
         style="fill:none;stroke:#000000;stroke-width:2.25;stroke-linecap:butt;stroke-linejoin:miter;stroke-miterlimit:8;stroke-dasharray:none;stroke-opacity:1"
         id="path252" /></g></g><path
     inkscape:connector-curvature="0"
     d="m 305.50666,115.49999 h 151.99999 v -38 H 305.50666 Z"
     style="fill:#e2f3f0;fill-opacity:1;fill-rule:evenodd;stroke:none;stroke-width:1.33333325"
     id="path254" /><path
     inkscape:connector-curvature="0"
     d="m 305.50666,115.49999 h 151.99999 v -38 H 305.50666 Z"
     style="fill:none;stroke:#000000;stroke-width:3;stroke-linecap:butt;stroke-linejoin:round;stroke-miterlimit:10;stroke-dasharray:none;stroke-opacity:1"
     id="path256" /><g
     id="g258"
     transform="matrix(1.3333333,0,0,-1.3333333,-50.999999,353.99332)"><g
       id="g260"
       clip-path="url(#clipPath264)"><text
         transform="matrix(1,0,0,-1,290.55,187.48)"
         style="font-variant:normal;font-weight:normal;font-size:18.02499962px;font-family:Calibri;-inkscape-font-specification:Calibri;writing-mode:lr-tb;fill:#000000;fill-opacity:1;fill-rule:nonzero;stroke:none"
         id="text268"><tspan
           x="0 9.7334995 19.466999 33.724773 43.458275 53.191776 59.230148"
           y="0"
           id="tspan266">Compute</tspan></text>
</g></g><path
     inkscape:connector-curvature="0"
     d="m 473.50665,175.49999 h 64 v -38 h -64 z"
     style="fill:#f2c8d6;fill-opacity:1;fill-rule:evenodd;stroke:none;stroke-width:1.33333325"
     id="path270" /><path
     inkscape:connector-curvature="0"
     d="m 473.50665,175.49999 h 64 v -38 h -64 z"
     style="fill:none;stroke:#000000;stroke-width:3;stroke-linecap:butt;stroke-linejoin:round;stroke-miterlimit:10;stroke-dasharray:none;stroke-opacity:1"
     id="path272" /><g
     id="g274"
     transform="matrix(1.3333333,0,0,-1.3333333,-50.999999,353.99332)"><g
       id="g276"
       clip-path="url(#clipPath280)"><text
         transform="matrix(1,0,0,-1,406.15,142.17)"
         style="font-variant:normal;font-weight:normal;font-size:18.02499962px;font-family:Calibri;-inkscape-font-specification:Calibri;writing-mode:lr-tb;fill:#000000;fill-opacity:1;fill-rule:nonzero;stroke:none"
         id="text284"><tspan
           x="0 4.5423002 11.301675"
           y="0"
           id="tspan282">I/O</tspan></text>
</g></g><g
     id="g286"
     transform="matrix(1.3333333,0,0,-1.3333333,-50.999999,353.99332)"><g
       id="g288"
       clip-path="url(#clipPath292)"><path
         inkscape:connector-curvature="0"
         d="M 381.22,178.87 V 153.3 h 3.72 v 1.57 l 8.44,-4.5 -8.44,-4.5 v 1.58 h -9.56 v 31.42 z"
         style="fill:#e2f3f0;fill-opacity:1;fill-rule:evenodd;stroke:none"
         id="path294" /></g></g><g
     id="g296"
     transform="matrix(1.3333333,0,0,-1.3333333,-50.999999,353.99332)"><g
       id="g298"
       clip-path="url(#clipPath302)"><path
         inkscape:connector-curvature="0"
         d="M 381.22,178.87 V 153.3 h 3.72 v 1.57 l 8.44,-4.5 -8.44,-4.5 v 1.58 h -9.56 v 31.42 z"
         style="fill:none;stroke:#000000;stroke-width:2.25;stroke-linecap:butt;stroke-linejoin:miter;stroke-miterlimit:8;stroke-dasharray:none;stroke-opacity:1"
         id="path304" /></g></g><path
     inkscape:connector-curvature="0"
     d="m 457.50665,115.49999 h 152 v -38 h -152 z"
     style="fill:#e2f3f0;fill-opacity:1;fill-rule:evenodd;stroke:none;stroke-width:1.33333325"
     id="path306" /><path
     inkscape:connector-curvature="0"
     d="m 457.50665,115.49999 h 152 v -38 h -152 z"
     style="fill:none;stroke:#000000;stroke-width:3;stroke-linecap:butt;stroke-linejoin:round;stroke-miterlimit:10;stroke-dasharray:none;stroke-opacity:1"
     id="path308" /><g
     id="g310"
     transform="matrix(1.3333333,0,0,-1.3333333,-50.999999,353.99332)"><g
       id="g312"
       clip-path="url(#clipPath316)"><text
         transform="matrix(1,0,0,-1,404.65,187.48)"
         style="font-variant:normal;font-weight:normal;font-size:18.02499962px;font-family:Calibri;-inkscape-font-specification:Calibri;writing-mode:lr-tb;fill:#000000;fill-opacity:1;fill-rule:nonzero;stroke:none"
         id="text320"><tspan
           x="0 9.7515249 19.50305 33.778851 43.530376 53.281898 59.320274"
           y="0"
           id="tspan318">Compute</tspan></text>
</g></g><path
     inkscape:connector-curvature="0"
     d="m 625.50665,175.49999 h 64 v -38 h -64 z"
     style="fill:#f2c8d6;fill-opacity:1;fill-rule:evenodd;stroke:none;stroke-width:1.33333325"
     id="path322" /><path
     inkscape:connector-curvature="0"
     d="m 625.50665,175.49999 h 64 v -38 h -64 z"
     style="fill:none;stroke:#000000;stroke-width:3;stroke-linecap:butt;stroke-linejoin:round;stroke-miterlimit:10;stroke-dasharray:none;stroke-opacity:1"
     id="path324" /><g
     id="g326"
     transform="matrix(1.3333333,0,0,-1.3333333,-50.999999,353.99332)"><g
       id="g328"
       clip-path="url(#clipPath332)"><text
         transform="matrix(1,0,0,-1,520.28,142.17)"
         style="font-variant:normal;font-weight:normal;font-size:18.02499962px;font-family:Calibri;-inkscape-font-specification:Calibri;writing-mode:lr-tb;fill:#000000;fill-opacity:1;fill-rule:nonzero;stroke:none"
         id="text336"><tspan
           x="0 4.5423002 11.2476"
           y="0"
           id="tspan334">I/O</tspan></text>
</g></g><g
     id="g338"
     transform="matrix(1.3333333,0,0,-1.3333333,-50.999999,353.99332)"><g
       id="g340"
       clip-path="url(#clipPath344)"><path
         inkscape:connector-curvature="0"
         d="M 495.22,178.87 V 153.3 h 3.72 v 1.57 l 8.44,-4.5 -8.44,-4.5 v 1.58 h -9.56 v 31.42 z"
         style="fill:#e2f3f0;fill-opacity:1;fill-rule:evenodd;stroke:none"
         id="path346" /></g></g><g
     id="g348"
     transform="matrix(1.3333333,0,0,-1.3333333,-50.999999,353.99332)"><g
       id="g350"
       clip-path="url(#clipPath354)"><path
         inkscape:connector-curvature="0"
         d="M 495.22,178.87 V 153.3 h 3.72 v 1.57 l 8.44,-4.5 -8.44,-4.5 v 1.58 h -9.56 v 31.42 z"
         style="fill:none;stroke:#000000;stroke-width:2.25;stroke-linecap:butt;stroke-linejoin:miter;stroke-miterlimit:8;stroke-dasharray:none;stroke-opacity:1"
         id="path356" /></g></g></svg>