<?xml version="1.0" encoding="UTF-8" standalone="no"?>
<svg
   xmlns:dc="http://purl.org/dc/elements/1.1/"
   xmlns:cc="http://creativecommons.org/ns#"
   xmlns:rdf="http://www.w3.org/1999/02/22-rdf-syntax-ns#"
   xmlns:svg="http://www.w3.org/2000/svg"
   xmlns="http://www.w3.org/2000/svg"
   xmlns:sodipodi="http://sodipodi.sourceforge.net/DTD/sodipodi-0.dtd"
   xmlns:inkscape="http://www.inkscape.org/namespaces/inkscape"
   viewBox="0 0 1122.5197 793.70079"
   height="210mm"
   width="297mm"
   xml:space="preserve"
   id="svg2"
   version="1.1"
   sodipodi:docname="threads.svg"
   inkscape:version="0.92.2 (5c3e80d, 2017-08-06)"><sodipodi:namedview
     pagecolor="#ffffff"
     bordercolor="#666666"
     borderopacity="1"
     objecttolerance="10"
     gridtolerance="10"
     guidetolerance="10"
     inkscape:pageopacity="0"
     inkscape:pageshadow="2"
     inkscape:window-width="1075"
     inkscape:window-height="607"
     id="namedview86"
     showgrid="false"
     units="mm"
     inkscape:zoom="0.32708333"
     inkscape:cx="480"
     inkscape:cy="300"
     inkscape:window-x="0"
     inkscape:window-y="24"
     inkscape:window-maximized="0"
     inkscape:current-layer="svg2" /><metadata
     id="metadata8"><rdf:RDF><cc:Work
         rdf:about=""><dc:format>image/svg+xml</dc:format><dc:type
           rdf:resource="http://purl.org/dc/dcmitype/StillImage" /><dc:title></dc:title></cc:Work></rdf:RDF></metadata><defs
     id="defs6"><clipPath
       id="clipPath18"
       clipPathUnits="userSpaceOnUse"><path
         style="clip-rule:evenodd"
         id="path16"
         d="M 0,1.2207e-4 H 720 V 450.00012 H 0 Z"
         inkscape:connector-curvature="0" /></clipPath><clipPath
       id="clipPath28"
       clipPathUnits="userSpaceOnUse"><path
         style="clip-rule:evenodd"
         id="path26"
         d="M 1.0729e-5,0 H 720.00001 V 450 H 1.0729e-5 Z"
         inkscape:connector-curvature="0" /></clipPath><clipPath
       id="clipPath40"
       clipPathUnits="userSpaceOnUse"><path
         style="clip-rule:evenodd"
         id="path38"
         d="M 1.0729e-5,0 H 720.00001 V 450 H 1.0729e-5 Z"
         inkscape:connector-curvature="0" /></clipPath><clipPath
       id="clipPath80"
       clipPathUnits="userSpaceOnUse"><path
         style="clip-rule:evenodd"
         id="path78"
         d="M 1.0729e-5,0 H 720.00001 V 450 H 1.0729e-5 Z"
         inkscape:connector-curvature="0" /></clipPath><clipPath
       id="clipPath92"
       clipPathUnits="userSpaceOnUse"><path
         style="clip-rule:evenodd"
         id="path90"
         d="M 1.0729e-5,0 H 720.00001 V 450 H 1.0729e-5 Z"
         inkscape:connector-curvature="0" /></clipPath><clipPath
       id="clipPath104"
       clipPathUnits="userSpaceOnUse"><path
         style="clip-rule:evenodd"
         id="path102"
         d="M 1.0729e-5,0 H 720.00001 V 450 H 1.0729e-5 Z"
         inkscape:connector-curvature="0" /></clipPath><clipPath
       id="clipPath116"
       clipPathUnits="userSpaceOnUse"><path
         style="clip-rule:evenodd"
         id="path114"
         d="M 1.0729e-5,0 H 720.00001 V 450 H 1.0729e-5 Z"
         inkscape:connector-curvature="0" /></clipPath><clipPath
       id="clipPath154"
       clipPathUnits="userSpaceOnUse"><path
         style="clip-rule:evenodd"
         id="path152"
         d="M 1.0729e-5,0 H 720.00001 V 450 H 1.0729e-5 Z"
         inkscape:connector-curvature="0" /></clipPath><clipPath
       id="clipPath166"
       clipPathUnits="userSpaceOnUse"><path
         style="clip-rule:evenodd"
         id="path164"
         d="M 1.0729e-5,0 H 720.00001 V 450 H 1.0729e-5 Z"
         inkscape:connector-curvature="0" /></clipPath></defs><g
     id="g22"
     transform="matrix(3.4707196,0,0,-3.4707196,-698.74648,1151.6194)"><g
       id="g24"
       clip-path="url(#clipPath28)"><text
         transform="matrix(1,0,0,-1,265.05,178.75)"
         style="font-style:normal;font-variant:normal;font-weight:normal;font-stretch:normal;font-size:15.77501869px;font-family:'Noto Sans';-inkscape-font-specification:'Noto Sans, Normal';font-variant-ligatures:normal;font-variant-caps:normal;font-variant-numeric:normal;font-feature-settings:normal;text-align:start;writing-mode:lr-tb;text-anchor:start;fill:#000000;fill-opacity:1;fill-rule:nonzero;stroke:none"
         id="text32"><tspan
           x="0 8.2345505 15.727675 20.980749 28.473875 32.212551 35.951225 43.444351 47.183025 50.9217 56.174774 63.6679 71.145248 74.883926 83.134247"
           y="0"
           id="tspan30"
           style="font-style:normal;font-variant:normal;font-weight:normal;font-stretch:normal;font-size:15.77501869px;font-family:'Noto Sans';-inkscape-font-specification:'Noto Sans, Normal';font-variant-ligatures:normal;font-variant-caps:normal;font-variant-numeric:normal;font-feature-settings:normal;text-align:start;writing-mode:lr-tb;text-anchor:start">Parallel region</tspan></text>
</g></g><g
     id="g34"
     transform="matrix(3.4707196,0,0,-3.4707196,-698.74648,1152.14)"><g
       id="g36"
       clip-path="url(#clipPath40)"><text
         transform="matrix(1,0,0,-1,372.9,178.9)"
         style="font-style:normal;font-variant:normal;font-weight:normal;font-stretch:normal;font-size:15.77501869px;font-family:'Noto Sans';-inkscape-font-specification:'Noto Sans, Normal';font-variant-ligatures:normal;font-variant-caps:normal;font-variant-numeric:normal;font-feature-settings:normal;text-align:start;writing-mode:lr-tb;text-anchor:start;fill:#000000;fill-opacity:1;fill-rule:nonzero;stroke:none"
         id="text44"><tspan
           x="0 8.2345505 15.727675 20.980749 28.473875 32.212551 35.951225 43.444351 47.183025 50.9217 56.174774 63.6679 71.145248 74.883926 83.134247"
           y="0"
           id="tspan42"
           style="font-style:normal;font-variant:normal;font-weight:normal;font-stretch:normal;font-size:15.77501869px;font-family:'Noto Sans';-inkscape-font-specification:'Noto Sans, Normal';font-variant-ligatures:normal;font-variant-caps:normal;font-variant-numeric:normal;font-feature-settings:normal;text-align:start;writing-mode:lr-tb;text-anchor:start">Parallel region</tspan></text>
</g></g><path
     inkscape:connector-curvature="0"
     d="M 46.587458,350.21487 H 215.95857 v 7.80911 H 46.587458 Z m 147.887362,-13.11932 29.22348,17.04122 -29.22348,17.00654 c -1.83949,1.1106 -4.23429,0.48588 -5.34489,-1.3883 -1.07594,-1.87419 -0.45121,-4.26899 1.42298,-5.34491 l 23.42735,-13.67462 v 6.7679 l -23.42735,-13.67465 c -1.87419,-1.07592 -2.49892,-3.47071 -1.42298,-5.34489 1.1106,-1.8742 3.5054,-2.49893 5.34489,-1.38829 z"
     style="fill:#000000;fill-opacity:1;fill-rule:nonzero;stroke:none;stroke-width:3.47071934"
     id="path46" /><path
     inkscape:connector-curvature="0"
     d="m 226.82194,355.83744 60.00873,-90.03048 -6.49023,-4.33839 -60.00876,90.03045 z m 64.34715,-82.4643 3.26246,-25.9957 -22.76793,13.0152 z"
     style="fill:#000000;fill-opacity:1;fill-rule:nonzero;stroke:none;stroke-width:3.47071934"
     id="path48" /><path
     inkscape:connector-curvature="0"
     d="m 225.32952,356.60098 53.37966,-26.68982 -3.50543,-7.01087 -53.37964,26.68985 z m 53.37966,-17.97834 15.72237,-20.92844 h -26.20394 z"
     style="fill:#5173c9;fill-opacity:1;fill-rule:nonzero;stroke:none;stroke-width:3.47071934"
     id="path50" /><path
     inkscape:connector-curvature="0"
     d="m 225.32952,350.63135 53.37966,26.68983 -3.50543,6.97614 -53.37964,-26.68982 z m 53.37966,17.94362 15.72237,20.96314 h -26.20394 z"
     style="fill:#5173c9;fill-opacity:1;fill-rule:nonzero;stroke:none;stroke-width:3.47071934"
     id="path52" /><path
     inkscape:connector-curvature="0"
     d="m 226.82194,351.95021 60.00873,90.03048 -6.49023,4.3384 -60.00876,-90.03048 z m 64.34715,82.4296 3.26246,25.9957 -22.76793,-12.98049 z"
     style="fill:#5173c9;fill-opacity:1;fill-rule:nonzero;stroke:none;stroke-width:3.47071934"
     id="path54" /><path
     inkscape:connector-curvature="0"
     d="M 293.84151,456.9395 H 424.8612 v 7.80911 H 293.84151 Z m 127.13247,-7.80912 23.42737,11.73101 -23.42737,11.69636 z"
     style="fill:#5173c9;fill-opacity:1;fill-rule:nonzero;stroke:none;stroke-width:3.47071934"
     id="path56" /><path
     inkscape:connector-curvature="0"
     d="M 293.84151,386.65743 H 424.8612 v 7.80911 H 293.84151 Z m 127.13247,-7.80913 23.42737,11.73103 -23.42737,11.69633 z"
     style="fill:#5173c9;fill-opacity:1;fill-rule:nonzero;stroke:none;stroke-width:3.47071934"
     id="path58" /><path
     inkscape:connector-curvature="0"
     d="M 293.84151,313.77231 H 424.8612 v 7.80912 H 293.84151 Z m 127.13247,-7.80912 23.42737,11.73101 -23.42737,11.69635 z"
     style="fill:#5173c9;fill-opacity:1;fill-rule:nonzero;stroke:none;stroke-width:3.47071934"
     id="path60" /><path
     inkscape:connector-curvature="0"
     d="M 293.84151,243.49024 H 424.8612 v 7.80912 H 293.84151 Z m 127.13247,-7.80911 23.42737,11.73103 -23.42737,11.69631 z"
     style="fill:#000000;fill-opacity:1;fill-rule:nonzero;stroke:none;stroke-width:3.47071934"
     id="path62" /><path
     inkscape:connector-curvature="0"
     d="m 448.08032,245.22562 60.00873,90.03044 -6.49023,4.3384 -60.00876,-90.03048 z m 64.34714,82.42956 3.26247,25.99571 -22.76794,-12.98051 z"
     style="fill:#000000;fill-opacity:1;fill-rule:nonzero;stroke:none;stroke-width:3.47071934"
     id="path64" /><path
     inkscape:connector-curvature="0"
     d="m 446.58789,314.1888 53.37968,26.68983 -3.50543,6.97614 -53.37967,-26.68983 z m 53.37968,17.9436 15.72236,20.96315 h -26.20394 z"
     style="fill:#5173c9;fill-opacity:1;fill-rule:nonzero;stroke:none;stroke-width:3.47071934"
     id="path66" /><path
     inkscape:connector-curvature="0"
     d="m 446.58789,393.04354 53.37968,-26.68982 -3.50543,-7.01087 -53.37967,26.68984 z m 53.37968,-17.97834 15.72236,-20.92843 h -26.20394 z"
     style="fill:#5173c9;fill-opacity:1;fill-rule:nonzero;stroke:none;stroke-width:3.47071934"
     id="path68" /><path
     inkscape:connector-curvature="0"
     d="m 448.08032,462.56207 60.00873,-90.03048 -6.49023,-4.3384 -60.00876,90.03046 z m 64.34714,-82.4643 3.26247,-25.961 -22.76794,12.98049 z"
     style="fill:#5173c9;fill-opacity:1;fill-rule:nonzero;stroke:none;stroke-width:3.47071934"
     id="path70" /><path
     inkscape:connector-curvature="0"
     d="m 515.0999,350.21487 h 98.53372 v 7.80911 H 515.0999 Z m 77.08468,-13.11932 29.18876,17.04122 -29.18876,17.00654 c -1.87419,1.1106 -4.26899,0.48588 -5.34491,-1.3883 -1.07591,-1.87419 -0.45118,-4.26899 1.38829,-5.34491 v 0 l 23.42734,-13.67462 v 6.7679 l -23.42734,-13.67465 c -1.83947,-1.07592 -2.4642,-3.47071 -1.38829,-5.34489 1.07592,-1.8742 3.47072,-2.49893 5.34491,-1.38829 z"
     style="fill:#000000;fill-opacity:1;fill-rule:nonzero;stroke:none;stroke-width:3.47071934"
     id="path72" /><g
     id="g74"
     transform="matrix(3.4707196,0,0,-3.4707196,-701.8038,1136.3328)"><g
       id="g76"
       clip-path="url(#clipPath80)"><text
         transform="matrix(1,0,0,-1,210.63,206.7)"
         style="font-variant:normal;font-weight:normal;font-size:15.77501862px;font-family:'Noto Sans';-inkscape-font-specification:'Noto Sans, Normal';writing-mode:lr;fill:#000000;fill-opacity:1;fill-rule:nonzero;stroke:none;font-style:normal;font-stretch:normal;text-anchor:start;text-align:start;font-variant-ligatures:normal;font-variant-caps:normal;font-variant-numeric:normal;font-feature-settings:normal;"
         id="text84"><tspan
           x="0 7.4773502 14.970475 20.223551 23.962225 31.455351"
           y="0"
           id="tspan82"
           style="-inkscape-font-specification:'Noto Sans, Normal';font-family:'Noto Sans';font-weight:normal;font-style:normal;font-stretch:normal;font-variant:normal;font-size:15.77501862px;text-anchor:start;text-align:start;writing-mode:lr;font-variant-ligatures:normal;font-variant-caps:normal;font-variant-numeric:normal;font-feature-settings:normal;">Serial</tspan></text>
</g></g><g
     id="g86"
     transform="matrix(3.4707196,0,0,-3.4707196,-701.8038,1136.3328)"><g
       id="g88"
       clip-path="url(#clipPath92)"><text
         transform="matrix(1,0,0,-1,210.63,187.17)"
         style="font-variant:normal;font-weight:normal;font-size:15.77501862px;font-family:'Noto Sans';-inkscape-font-specification:'Noto Sans, Normal';writing-mode:lr;fill:#000000;fill-opacity:1;fill-rule:nonzero;stroke:none;font-style:normal;font-stretch:normal;text-anchor:start;text-align:start;font-variant-ligatures:normal;font-variant-caps:normal;font-variant-numeric:normal;font-feature-settings:normal;"
         id="text96"><tspan
           x="0 5.2530751 12.7462 20.223551 23.962225 32.212551"
           y="0"
           id="tspan94"
           style="-inkscape-font-specification:'Noto Sans, Normal';font-family:'Noto Sans';font-weight:normal;font-style:normal;font-stretch:normal;font-variant:normal;font-size:15.77501862px;text-anchor:start;text-align:start;writing-mode:lr;font-variant-ligatures:normal;font-variant-caps:normal;font-variant-numeric:normal;font-feature-settings:normal;">region</tspan></text>
</g></g><g
     id="g98"
     transform="matrix(3.4707196,0,0,-3.4707196,-701.8038,1136.3328)"><g
       id="g100"
       clip-path="url(#clipPath104)"><text
         transform="matrix(1,0,0,-1,346.42,259.95)"
         style="font-variant:normal;font-weight:normal;font-size:15.77501862px;font-family:'Noto Sans';-inkscape-font-specification:'Noto Sans, Normal';writing-mode:lr;fill:#000000;fill-opacity:1;fill-rule:nonzero;stroke:none;font-style:normal;font-stretch:normal;text-anchor:start;text-align:start;font-variant-ligatures:normal;font-variant-caps:normal;font-variant-numeric:normal;font-feature-settings:normal;"
         id="text108"><tspan
           x="0 7.4773502 14.970475 20.223551 23.962225 31.455351"
           y="0"
           id="tspan106"
           style="-inkscape-font-specification:'Noto Sans, Normal';font-family:'Noto Sans';font-weight:normal;font-style:normal;font-stretch:normal;font-variant:normal;font-size:15.77501862px;text-anchor:start;text-align:start;writing-mode:lr;font-variant-ligatures:normal;font-variant-caps:normal;font-variant-numeric:normal;font-feature-settings:normal;">Serial</tspan></text>
</g></g><g
     id="g110"
     transform="matrix(3.4707196,0,0,-3.4707196,-701.8038,1136.3328)"><g
       id="g112"
       clip-path="url(#clipPath116)"><text
         transform="matrix(1,0,0,-1,346.42,240.42)"
         style="font-variant:normal;font-weight:normal;font-size:15.77501862px;font-family:'Noto Sans';-inkscape-font-specification:'Noto Sans, Normal';writing-mode:lr;fill:#000000;fill-opacity:1;fill-rule:nonzero;stroke:none;font-style:normal;font-stretch:normal;text-anchor:start;text-align:start;font-variant-ligatures:normal;font-variant-caps:normal;font-variant-numeric:normal;font-feature-settings:normal;"
         id="text120"><tspan
           x="0 5.2530751 12.7462 20.223551 23.962225 32.212551"
           y="0"
           id="tspan118"
           style="-inkscape-font-specification:'Noto Sans, Normal';font-family:'Noto Sans';font-weight:normal;font-style:normal;font-stretch:normal;font-variant:normal;font-size:15.77501862px;text-anchor:start;text-align:start;writing-mode:lr;font-variant-ligatures:normal;font-variant-caps:normal;font-variant-numeric:normal;font-feature-settings:normal;">region</tspan></text>
</g></g><path
     inkscape:connector-curvature="0"
     d="m 627.69003,355.83744 60.00877,-90.03048 -6.49026,-4.33839 -60.00874,90.03045 z m 64.34715,-82.4643 3.26249,-25.9957 -22.76792,13.0152 z"
     style="fill:#5173c9;fill-opacity:1;fill-rule:nonzero;stroke:none;stroke-width:3.47071934"
     id="path122" /><path
     inkscape:connector-curvature="0"
     d="m 626.19763,356.60098 53.37968,-26.68982 -3.50544,-7.01087 -53.37967,26.68985 z m 53.37968,-17.97834 15.72236,-20.92844 h -26.20394 z"
     style="fill:#5173c9;fill-opacity:1;fill-rule:nonzero;stroke:none;stroke-width:3.47071934"
     id="path124" /><path
     inkscape:connector-curvature="0"
     d="m 626.19763,350.63135 53.37968,26.68983 -3.50544,6.97614 -53.37967,-26.68982 z m 53.37968,17.94362 15.72236,20.96314 h -26.20394 z"
     style="fill:#000000;fill-opacity:1;fill-rule:nonzero;stroke:none;stroke-width:3.47071934"
     id="path126" /><path
     inkscape:connector-curvature="0"
     d="m 627.69003,351.95021 60.00877,90.03048 -6.49026,4.3384 -60.00874,-90.03048 z m 64.34715,82.4296 3.26249,25.9957 -22.76792,-12.98049 z"
     style="fill:#5173c9;fill-opacity:1;fill-rule:nonzero;stroke:none;stroke-width:3.47071934"
     id="path128" /><path
     inkscape:connector-curvature="0"
     d="M 694.70964,456.9395 H 825.7293 v 7.80911 H 694.70964 Z m 127.13247,-7.80912 23.42734,11.73101 -23.42734,11.69636 z"
     style="fill:#5173c9;fill-opacity:1;fill-rule:nonzero;stroke:none;stroke-width:3.47071934"
     id="path130" /><path
     inkscape:connector-curvature="0"
     d="M 694.70964,384.05438 H 825.7293 v 7.80912 H 694.70964 Z m 127.13247,-7.80911 23.42734,11.73101 -23.42734,11.69634 z"
     style="fill:#000000;fill-opacity:1;fill-rule:nonzero;stroke:none;stroke-width:3.47071934"
     id="path132" /><path
     inkscape:connector-curvature="0"
     d="M 694.70964,313.77231 H 825.7293 v 7.80912 H 694.70964 Z m 127.13247,-7.80912 23.42734,11.73101 -23.42734,11.69635 z"
     style="fill:#5173c9;fill-opacity:1;fill-rule:nonzero;stroke:none;stroke-width:3.47071934"
     id="path134" /><path
     inkscape:connector-curvature="0"
     d="M 694.70964,243.49024 H 825.7293 v 7.80912 H 694.70964 Z m 127.13247,-7.80911 23.42734,11.73103 -23.42734,11.69631 z"
     style="fill:#5173c9;fill-opacity:1;fill-rule:nonzero;stroke:none;stroke-width:3.47071934"
     id="path136" /><path
     inkscape:connector-curvature="0"
     d="m 848.94841,245.22562 60.00874,90.03044 -6.49025,4.3384 -60.00872,-90.03048 z m 64.34715,82.42956 3.26247,25.99571 -22.76791,-12.98051 z"
     style="fill:#5173c9;fill-opacity:1;fill-rule:nonzero;stroke:none;stroke-width:3.47071934"
     id="path138" /><path
     inkscape:connector-curvature="0"
     d="m 847.45602,314.1888 53.37964,26.68983 -3.5054,6.97614 -53.37968,-26.68983 z m 53.37964,17.9436 15.72237,20.96315 H 890.3541 Z"
     style="fill:#5173c9;fill-opacity:1;fill-rule:nonzero;stroke:none;stroke-width:3.47071934"
     id="path140" /><path
     inkscape:connector-curvature="0"
     d="m 847.45602,393.04354 53.37964,-26.68982 -3.5054,-7.01087 -53.37968,26.68984 z m 53.37964,-17.97834 15.72237,-20.92843 H 890.3541 Z"
     style="fill:#000000;fill-opacity:1;fill-rule:nonzero;stroke:none;stroke-width:3.47071934"
     id="path142" /><path
     inkscape:connector-curvature="0"
     d="m 848.94841,462.56207 60.00874,-90.03048 -6.49025,-4.3384 -60.00872,90.03046 z m 64.34715,-82.4643 3.26247,-25.961 -22.76791,12.98049 z"
     style="fill:#5173c9;fill-opacity:1;fill-rule:nonzero;stroke:none;stroke-width:3.47071934"
     id="path144" /><path
     inkscape:connector-curvature="0"
     d="m 915.96802,350.21487 h 169.40578 v 7.80911 H 915.96802 Z m 147.92218,-13.11932 29.2233,17.04122 -29.2233,17.00654 c -1.8396,1.1106 -4.2343,0.48588 -5.3449,-1.3883 -1.076,-1.87419 -0.4512,-4.26899 1.4228,-5.34491 l 23.4275,-13.67462 v 6.7679 l -23.4275,-13.67465 c -1.874,-1.07592 -2.4988,-3.47071 -1.4228,-5.34489 1.1106,-1.8742 3.5053,-2.49893 5.3449,-1.38829 z"
     style="fill:#000000;fill-opacity:1;fill-rule:nonzero;stroke:none;stroke-width:3.47071934"
     id="path146" /><g
     id="g148"
     transform="matrix(3.4707196,0,0,-3.4707196,-701.8038,1136.3328)"><g
       id="g150"
       clip-path="url(#clipPath154)"><text
         transform="matrix(1,0,0,-1,468.15,206.85)"
         style="font-variant:normal;font-weight:normal;font-size:15.77501862px;font-family:'Noto Sans';-inkscape-font-specification:'Noto Sans, Normal';writing-mode:lr;fill:#000000;fill-opacity:1;fill-rule:nonzero;stroke:none;font-style:normal;font-stretch:normal;text-anchor:start;text-align:start;font-variant-ligatures:normal;font-variant-caps:normal;font-variant-numeric:normal;font-feature-settings:normal;"
         id="text158"><tspan
           x="0 7.4773502 14.970475 20.223551 23.962225 31.455351"
           y="0"
           id="tspan156"
           style="-inkscape-font-specification:'Noto Sans, Normal';font-family:'Noto Sans';font-weight:normal;font-style:normal;font-stretch:normal;font-variant:normal;font-size:15.77501862px;text-anchor:start;text-align:start;writing-mode:lr;font-variant-ligatures:normal;font-variant-caps:normal;font-variant-numeric:normal;font-feature-settings:normal;">Serial</tspan></text>
</g></g><g
     id="g160"
     transform="matrix(3.4707196,0,0,-3.4707196,-701.8038,1136.3328)"><g
       id="g162"
       clip-path="url(#clipPath166)"><text
         transform="matrix(1,0,0,-1,468.15,187.33)"
         style="font-variant:normal;font-weight:normal;font-size:15.77501862px;font-family:'Noto Sans';-inkscape-font-specification:'Noto Sans, Normal';writing-mode:lr;fill:#000000;fill-opacity:1;fill-rule:nonzero;stroke:none;font-style:normal;font-stretch:normal;text-anchor:start;text-align:start;font-variant-ligatures:normal;font-variant-caps:normal;font-variant-numeric:normal;font-feature-settings:normal;"
         id="text170"><tspan
           x="0 5.2530751 12.7462 20.223551 23.962225 32.212551"
           y="0"
           id="tspan168"
           style="-inkscape-font-specification:'Noto Sans, Normal';font-family:'Noto Sans';font-weight:normal;font-style:normal;font-stretch:normal;font-variant:normal;font-size:15.77501862px;text-anchor:start;text-align:start;writing-mode:lr;font-variant-ligatures:normal;font-variant-caps:normal;font-variant-numeric:normal;font-feature-settings:normal;">region</tspan></text>
</g></g></svg>