<?xml version="1.0" encoding="UTF-8" standalone="no"?>
<svg
   xmlns:dc="http://purl.org/dc/elements/1.1/"
   xmlns:cc="http://creativecommons.org/ns#"
   xmlns:rdf="http://www.w3.org/1999/02/22-rdf-syntax-ns#"
   xmlns:svg="http://www.w3.org/2000/svg"
   xmlns="http://www.w3.org/2000/svg"
   xmlns:sodipodi="http://sodipodi.sourceforge.net/DTD/sodipodi-0.dtd"
   xmlns:inkscape="http://www.inkscape.org/namespaces/inkscape"
   viewBox="0 0 627.00098 156.00099"
   height="156.00099"
   width="627.00098"
   xml:space="preserve"
   id="svg2"
   version="1.1"
   sodipodi:docname="type-struct.svg"
   inkscape:version="0.92.2 (5c3e80d, 2017-08-06)"><sodipodi:namedview
     pagecolor="#ffffff"
     bordercolor="#666666"
     borderopacity="1"
     objecttolerance="10"
     gridtolerance="10"
     guidetolerance="10"
     inkscape:pageopacity="0"
     inkscape:pageshadow="2"
     inkscape:window-width="1366"
     inkscape:window-height="690"
     id="namedview6260"
     showgrid="false"
     inkscape:zoom="0.79333333"
     inkscape:cx="328.99384"
     inkscape:cy="84.00717"
     inkscape:window-x="0"
     inkscape:window-y="24"
     inkscape:window-maximized="1"
     inkscape:current-layer="svg2" /><metadata
     id="metadata8"><rdf:RDF><cc:Work
         rdf:about=""><dc:format>image/svg+xml</dc:format><dc:type
           rdf:resource="http://purl.org/dc/dcmitype/StillImage" /><dc:title></dc:title></cc:Work></rdf:RDF></metadata><defs
     id="defs6"><clipPath
       id="clipPath18"
       clipPathUnits="userSpaceOnUse"><path
         style="clip-rule:evenodd"
         id="path16"
         d="M 0,1.2207e-4 H 720 V 450.00012 H 0 Z"
         inkscape:connector-curvature="0" /></clipPath><clipPath
       id="clipPath32"
       clipPathUnits="userSpaceOnUse"><path
         style="clip-rule:evenodd"
         id="path30"
         d="M 1.0729e-5,0 H 720.00001 V 450 H 1.0729e-5 Z"
         inkscape:connector-curvature="0" /></clipPath><clipPath
       id="clipPath44"
       clipPathUnits="userSpaceOnUse"><path
         style="clip-rule:evenodd"
         id="path42"
         d="M 1.0729e-5,0 H 720.00001 V 450 H 1.0729e-5 Z"
         inkscape:connector-curvature="0" /></clipPath><clipPath
       id="clipPath56"
       clipPathUnits="userSpaceOnUse"><path
         style="clip-rule:evenodd"
         id="path54"
         d="M 1.0729e-5,0 H 720.00001 V 450 H 1.0729e-5 Z"
         inkscape:connector-curvature="0" /></clipPath><clipPath
       id="clipPath68"
       clipPathUnits="userSpaceOnUse"><path
         style="clip-rule:evenodd"
         id="path66"
         d="M 1.0729e-5,0 H 720.00001 V 450 H 1.0729e-5 Z"
         inkscape:connector-curvature="0" /></clipPath><clipPath
       id="clipPath80"
       clipPathUnits="userSpaceOnUse"><path
         style="clip-rule:evenodd"
         id="path78"
         d="M 1.0729e-5,0 H 720.00001 V 450 H 1.0729e-5 Z"
         inkscape:connector-curvature="0" /></clipPath><clipPath
       id="clipPath92"
       clipPathUnits="userSpaceOnUse"><path
         style="clip-rule:evenodd"
         id="path90"
         d="M 1.0729e-5,0 H 720.00001 V 450 H 1.0729e-5 Z"
         inkscape:connector-curvature="0" /></clipPath><clipPath
       id="clipPath104"
       clipPathUnits="userSpaceOnUse"><path
         style="clip-rule:evenodd"
         id="path102"
         d="M 1.0729e-5,0 H 720.00001 V 450 H 1.0729e-5 Z"
         inkscape:connector-curvature="0" /></clipPath></defs><path
     inkscape:connector-curvature="0"
     d="m 0.50049996,12.23383 c 0,-6.48 5.25334004,-11.73333004 11.73334004,-11.73333004 h 602.51998 c 6.48,0 11.74667,5.25333004 11.74667,11.73333004 v 131.52 c 0,6.48 -5.26667,11.74666 -11.74667,11.74666 H 12.23384 c -6.48,0 -11.73334004,-5.26666 -11.73334004,-11.74666 z"
     style="fill:#ccff66;fill-opacity:1;fill-rule:evenodd;stroke:none;stroke-width:1.33333325"
     id="path22" /><path
     inkscape:connector-curvature="0"
     d="m 0.50049996,12.23383 c 0,-6.48 5.25334004,-11.73333004 11.73334004,-11.73333004 h 602.51998 c 6.48,0 11.74667,5.25333004 11.74667,11.73333004 v 131.52 c 0,6.48 -5.26667,11.74666 -11.74667,11.74666 H 12.23384 c -6.48,0 -11.73334004,-5.26666 -11.73334004,-11.74666 z"
     style="fill:none;stroke:#000000;stroke-width:1.00099993;stroke-linecap:butt;stroke-linejoin:miter;stroke-miterlimit:10;stroke-dasharray:none;stroke-opacity:1"
     id="path24" /><g
     id="g26"
     transform="matrix(1.3333333,0,0,-1.3333333,-151.00616,371.99382)"><g
       id="g28"
       clip-path="url(#clipPath32)"><text
         transform="matrix(1,0,0,-1,150.38,249.35)"
         style="font-variant:normal;font-weight:bold;font-size:18.02499962px;font-family:Calibri;-inkscape-font-specification:Calibri-Bold;writing-mode:lr-tb;fill:#000000;fill-opacity:1;fill-rule:nonzero;stroke:none"
         id="text36"><tspan
           x="0 7.5344501 17.231899 26.983425 36.716927 42.71925 51.695702 60.726227"
           y="0"
           id="tspan34">count=3,</tspan></text>
</g></g><g
     id="g38"
     transform="matrix(1.3333333,0,0,-1.3333333,-151.00616,371.99382)"><g
       id="g40"
       clip-path="url(#clipPath44)"><text
         transform="matrix(1,0,0,-1,219.45,249.35)"
         style="font-variant:normal;font-weight:bold;font-size:18.02499962px;font-family:Calibri;-inkscape-font-specification:Calibri-Bold;writing-mode:lr-tb;fill:#000000;fill-opacity:1;fill-rule:nonzero;stroke:none"
         id="text48"><tspan
           x="0 9.7334995 14.221725 23.919174 31.453625 40.448101 44.936325 53.930801 63.664299"
           y="0"
           id="tspan46">blocklens</tspan></text>
</g></g><g
     id="g50"
     transform="matrix(1.3333333,0,0,-1.3333333,-151.00616,371.99382)"><g
       id="g52"
       clip-path="url(#clipPath56)"><text
         transform="matrix(1,0,0,-1,290.75,249.35)"
         style="font-variant:normal;font-weight:bold;font-size:18.02499962px;font-family:Calibri;-inkscape-font-specification:Calibri-Bold;writing-mode:lr-tb;fill:#000000;fill-opacity:1;fill-rule:nonzero;stroke:none"
         id="text60"><tspan
           x="0 8.97645 14.293825 21.810249 30.840775 35.365051 44.395576 48.919849 57.950375 65.466797 70.748123"
           y="0"
           id="tspan58">=(/2,2,1/),</tspan></text>
</g></g><g
     id="g62"
     transform="matrix(1.3333333,0,0,-1.3333333,-151.00616,371.99382)"><g
       id="g64"
       clip-path="url(#clipPath68)"><text
         transform="matrix(1,0,0,-1,371.1,249.35)"
         style="font-variant:normal;font-weight:bold;font-size:18.02499962px;font-family:Calibri;-inkscape-font-specification:Calibri-Bold;writing-mode:lr-tb;fill:#000000;fill-opacity:1;fill-rule:nonzero;stroke:none"
         id="text72"><tspan
           x="0 9.7334995 14.221725 21.702101 31.4356"
           y="0"
           id="tspan70">disps</tspan></text>
</g></g><g
     id="g74"
     transform="matrix(1.3333333,0,0,-1.3333333,-151.00616,371.99382)"><g
       id="g76"
       clip-path="url(#clipPath80)"><text
         transform="matrix(1,0,0,-1,410.13,249.35)"
         style="font-variant:normal;font-weight:bold;font-size:18.02499962px;font-family:Calibri;-inkscape-font-specification:Calibri-Bold;writing-mode:lr-tb;fill:#000000;fill-opacity:1;fill-rule:nonzero;stroke:none"
         id="text84"><tspan
           x="0 8.97645 12.022675 17.304001 24.820425 33.850948 38.357201 47.387726 51.893974 60.9245 68.440926"
           y="0"
           id="tspan82">= (/0,3,9/)</tspan></text>
</g></g><g
     id="g86"
     transform="matrix(1.3333333,0,0,-1.3333333,-151.00616,371.99382)"><g
       id="g88"
       clip-path="url(#clipPath92)"><text
         transform="matrix(1,0,0,-1,144.55,219.67)"
         style="font-variant:normal;font-weight:bold;font-size:18.02499962px;font-family:Calibri;-inkscape-font-specification:Calibri-Bold;writing-mode:lr-tb;fill:#000000;fill-opacity:1;fill-rule:nonzero;stroke:none"
         id="text96"><tspan
           x="0 6.02035 14.293825 24.045349 33.111923"
           y="0"
           id="tspan94">types</tspan></text>
</g></g><g
     id="g98"
     transform="matrix(1.3333333,0,0,-1.3333333,-151.00616,371.99382)"><g
       id="g100"
       clip-path="url(#clipPath104)"><text
         transform="matrix(1,0,0,-1,132.78,179.17)"
         style="font-variant:normal;font-weight:bold;font-size:18.02499962px;font-family:Calibri;-inkscape-font-specification:Calibri-Bold;writing-mode:lr-tb;fill:#000000;fill-opacity:1;fill-rule:nonzero;stroke:none"
         id="text108"><tspan
           x="0 9.7334995 18.727976 32.210674 38.213001 46.468449 56.20195"
           y="0"
           id="tspan106">newtype</tspan></text>
</g></g><path
     inkscape:connector-curvature="0"
     d="m 157.5005,89.50049 h 45 v -37 h -45 z"
     style="fill:#408000;fill-opacity:1;fill-rule:evenodd;stroke:none;stroke-width:1.33333325"
     id="path110" /><path
     inkscape:connector-curvature="0"
     d="m 157.5005,89.50049 h 45 v -37 h -45 z"
     style="fill:none;stroke:#000000;stroke-width:5;stroke-linecap:butt;stroke-linejoin:miter;stroke-miterlimit:10;stroke-dasharray:none;stroke-opacity:1"
     id="path112" /><path
     inkscape:connector-curvature="0"
     d="m 157.5005,143.50049 h 45 v -37 h -45 z"
     style="fill:#408000;fill-opacity:1;fill-rule:evenodd;stroke:none;stroke-width:1.33333325"
     id="path114" /><path
     inkscape:connector-curvature="0"
     d="m 157.5005,143.50049 h 45 v -37 h -45 z"
     style="fill:none;stroke:#000000;stroke-width:5;stroke-linecap:butt;stroke-linejoin:miter;stroke-miterlimit:10;stroke-dasharray:none;stroke-opacity:1"
     id="path116" /><path
     inkscape:connector-curvature="0"
     d="m 202.5005,143.50049 h 45 v -37 h -45 z"
     style="fill:#408000;fill-opacity:1;fill-rule:evenodd;stroke:none;stroke-width:1.33333325"
     id="path118" /><path
     inkscape:connector-curvature="0"
     d="m 202.5005,143.50049 h 45 v -37 h -45 z"
     style="fill:none;stroke:#000000;stroke-width:5;stroke-linecap:butt;stroke-linejoin:miter;stroke-miterlimit:10;stroke-dasharray:none;stroke-opacity:1"
     id="path120" /><path
     inkscape:connector-curvature="0"
     d="m 245.5005,143.50049 h 45 v -37 h -45 z"
     style="fill:#ffffff;fill-opacity:1;fill-rule:evenodd;stroke:none;stroke-width:1.33333325"
     id="path122" /><path
     inkscape:connector-curvature="0"
     d="m 245.5005,143.50049 h 45 v -37 h -45 z"
     style="fill:none;stroke:#000000;stroke-width:5;stroke-linecap:butt;stroke-linejoin:miter;stroke-miterlimit:10;stroke-dasharray:none;stroke-opacity:1"
     id="path124" /><path
     inkscape:connector-curvature="0"
     d="m 247.5005,89.50049 h 45 v -37 h -45 z"
     style="fill:#ffff00;fill-opacity:1;fill-rule:evenodd;stroke:none;stroke-width:1.33333325"
     id="path126" /><path
     inkscape:connector-curvature="0"
     d="m 247.5005,89.50049 h 45 v -37 h -45 z"
     style="fill:none;stroke:#000000;stroke-width:5;stroke-linecap:butt;stroke-linejoin:miter;stroke-miterlimit:10;stroke-dasharray:none;stroke-opacity:1"
     id="path128" /><path
     inkscape:connector-curvature="0"
     d="m 470.50049,143.50049 h 45 v -37 h -45 z"
     style="fill:#ffffff;fill-opacity:1;fill-rule:evenodd;stroke:none;stroke-width:1.33333325"
     id="path130" /><path
     inkscape:connector-curvature="0"
     d="m 470.50049,143.50049 h 45 v -37 h -45 z"
     style="fill:none;stroke:#000000;stroke-width:5;stroke-linecap:butt;stroke-linejoin:miter;stroke-miterlimit:10;stroke-dasharray:none;stroke-opacity:1"
     id="path132" /><path
     inkscape:connector-curvature="0"
     d="m 516.50049,143.50049 h 45 v -37 h -45 z"
     style="fill:#ffffff;fill-opacity:1;fill-rule:evenodd;stroke:none;stroke-width:1.33333325"
     id="path134" /><path
     inkscape:connector-curvature="0"
     d="m 516.50049,143.50049 h 45 v -37 h -45 z"
     style="fill:none;stroke:#000000;stroke-width:5;stroke-linecap:butt;stroke-linejoin:miter;stroke-miterlimit:10;stroke-dasharray:none;stroke-opacity:1"
     id="path136" /><path
     inkscape:connector-curvature="0"
     d="m 292.5005,89.50049 h 44.99999 v -37 H 292.5005 Z"
     style="fill:#ffff00;fill-opacity:1;fill-rule:evenodd;stroke:none;stroke-width:1.33333325"
     id="path138" /><path
     inkscape:connector-curvature="0"
     d="m 292.5005,89.50049 h 44.99999 v -37 H 292.5005 Z"
     style="fill:none;stroke:#000000;stroke-width:5;stroke-linecap:butt;stroke-linejoin:miter;stroke-miterlimit:10;stroke-dasharray:none;stroke-opacity:1"
     id="path140" /><path
     inkscape:connector-curvature="0"
     d="m 290.5005,143.50049 h 44.99999 v -37 H 290.5005 Z"
     style="fill:#ffff00;fill-opacity:1;fill-rule:evenodd;stroke:none;stroke-width:1.33333325"
     id="path142" /><path
     inkscape:connector-curvature="0"
     d="m 290.5005,143.50049 h 44.99999 v -37 H 290.5005 Z"
     style="fill:none;stroke:#000000;stroke-width:5;stroke-linecap:butt;stroke-linejoin:miter;stroke-miterlimit:10;stroke-dasharray:none;stroke-opacity:1"
     id="path144" /><path
     inkscape:connector-curvature="0"
     d="m 335.50049,143.50049 h 45 v -37 h -45 z"
     style="fill:#ffff00;fill-opacity:1;fill-rule:evenodd;stroke:none;stroke-width:1.33333325"
     id="path146" /><path
     inkscape:connector-curvature="0"
     d="m 335.50049,143.50049 h 45 v -37 h -45 z"
     style="fill:none;stroke:#000000;stroke-width:5;stroke-linecap:butt;stroke-linejoin:miter;stroke-miterlimit:10;stroke-dasharray:none;stroke-opacity:1"
     id="path148" /><path
     inkscape:connector-curvature="0"
     d="m 381.50049,143.50049 h 45 v -37 h -45 z"
     style="fill:#ffff00;fill-opacity:1;fill-rule:evenodd;stroke:none;stroke-width:1.33333325"
     id="path150" /><path
     inkscape:connector-curvature="0"
     d="m 381.50049,143.50049 h 45 v -37 h -45 z"
     style="fill:none;stroke:#000000;stroke-width:5;stroke-linecap:butt;stroke-linejoin:miter;stroke-miterlimit:10;stroke-dasharray:none;stroke-opacity:1"
     id="path152" /><path
     inkscape:connector-curvature="0"
     d="m 426.50049,143.50049 h 45 v -37 h -45 z"
     style="fill:#ffff00;fill-opacity:1;fill-rule:evenodd;stroke:none;stroke-width:1.33333325"
     id="path154" /><path
     inkscape:connector-curvature="0"
     d="m 426.50049,143.50049 h 45 v -37 h -45 z"
     style="fill:none;stroke:#000000;stroke-width:5;stroke-linecap:butt;stroke-linejoin:miter;stroke-miterlimit:10;stroke-dasharray:none;stroke-opacity:1"
     id="path156" /><path
     inkscape:connector-curvature="0"
     d="m 563.50049,143.50049 h 45 v -37 h -45 z"
     style="fill:#ff0000;fill-opacity:1;fill-rule:evenodd;stroke:none;stroke-width:1.33333325"
     id="path158" /><path
     inkscape:connector-curvature="0"
     d="m 563.50049,143.50049 h 45 v -37 h -45 z"
     style="fill:none;stroke:#000000;stroke-width:5;stroke-linecap:butt;stroke-linejoin:miter;stroke-miterlimit:10;stroke-dasharray:none;stroke-opacity:1"
     id="path160" /><path
     inkscape:connector-curvature="0"
     d="m 380.50049,89.50049 h 45 v -37 h -45 z"
     style="fill:#ff0000;fill-opacity:1;fill-rule:evenodd;stroke:none;stroke-width:1.33333325"
     id="path162" /><path
     inkscape:connector-curvature="0"
     d="m 380.50049,89.50049 h 45 v -37 h -45 z"
     style="fill:none;stroke:#000000;stroke-width:5;stroke-linecap:butt;stroke-linejoin:miter;stroke-miterlimit:10;stroke-dasharray:none;stroke-opacity:1"
     id="path164" /></svg>